SplineFontDB: 3.0
FontName: Asap-Symbol
FullName: Asap Symbol
FamilyName: Asap Symbol
<<<<<<< HEAD
Weight: Medium
=======
Weight: Heavy
>>>>>>> FETCH_HEAD
Copyright: Copyright (c) 2014, Omnibus-Type (www.omnibus-type.com omnibus.type@gmail.com) with Reserved Font Name 'Asap'
Version: 001.000
ItalicAngle: 0
UnderlinePosition: -50
UnderlineWidth: 50
Ascent: 800
Descent: 200
InvalidEm: 0
sfntRevision: 0x00010000
LayerCount: 2
Layer: 0 0 "Back" 1
Layer: 1 0 "Fore" 0
<<<<<<< HEAD
XUID: [1021 191 1600663927 14903418]
=======
XUID: [1021 505 -982332716 9457992]
>>>>>>> FETCH_HEAD
FSType: 8
OS2Version: 3
OS2_WeightWidthSlopeOnly: 0
OS2_UseTypoMetrics: 1
<<<<<<< HEAD
CreationTime: 1416602058
ModificationTime: 1416631760
PfmFamily: 33
TTFWeight: 500
TTFWidth: 5
LineGap: 0
VLineGap: 0
Panose: 2 15 6 4 3 2 2 6 2 3
=======
CreationTime: 1418646625
ModificationTime: 1418646625
PfmFamily: 17
TTFWeight: 900
TTFWidth: 5
LineGap: 0
VLineGap: 0
Panose: 2 15 5 4 3 2 2 6 2 3
>>>>>>> FETCH_HEAD
OS2TypoAscent: 940
OS2TypoAOffset: 0
OS2TypoDescent: -212
OS2TypoDOffset: 0
OS2TypoLinegap: 48
OS2WinAscent: 988
OS2WinAOffset: 0
OS2WinDescent: 212
OS2WinDOffset: 0
HheadAscent: 988
HheadAOffset: 0
HheadDescent: -212
HheadDOffset: 0
OS2SubXSize: 650
OS2SubYSize: 600
OS2SubXOff: 0
OS2SubYOff: 75
OS2SupXSize: 650
OS2SupYSize: 600
OS2SupXOff: 0
OS2SupYOff: 350
OS2StrikeYSize: 50
OS2StrikeYPos: 313
OS2CapHeight: 0
OS2XHeight: 0
OS2Vendor: 'OMNI'
OS2CodePages: 20000001.00000000
OS2UnicodeRanges: 00000003.00000000.00000000.00000000
Lookup: 1 0 0 "'aalt' Access All Alternates lookup 0" { "'aalt' Access All Alternates lookup 0 subtable"  } ['aalt' ('DFLT' <'dflt' > 'grek' <'dflt' > 'latn' <'dflt' > ) ]
Lookup: 3 0 0 "'aalt' Access All Alternates lookup 1" { "'aalt' Access All Alternates lookup 1 subtable"  } ['aalt' ('DFLT' <'dflt' > 'grek' <'dflt' > 'latn' <'dflt' > ) ]

StartChar: .notdef
Encoding: 65536 -1 0
Width: 514
Flags: MW
HStem: 0 50<87 427 87 507> 650 50<86 426 86 86>
<<<<<<< HEAD
VStem: 7 49<95 95 95 605> 456 51<95 605 605 605>
=======
VStem: 7 49<95 605 95 700> 456 51<95 605 605 605>
>>>>>>> FETCH_HEAD
LayerCount: 2
Back
Fore
SplineSet
<<<<<<< HEAD
7 700 m 1
 507 700 l 1
 507 0 l 1
 7 0 l 1
 7 700 l 1
426 650 m 1
 86 650 l 1
 257 395 l 1
 426 650 l 1
56 95 m 1
 227 350 l 1
 56 605 l 1
 56 95 l 1
456 95 m 1
 456 605 l 1
 287 350 l 1
 456 95 l 1
427 50 m 1
 256 305 l 1
 87 50 l 1
 427 50 l 1
=======
7 0 m 1
 7 700 l 1
 507 700 l 1
 507 0 l 1
 7 0 l 1
257 395 m 1
 426 650 l 1
 86 650 l 1
 257 395 l 1
56 605 m 1
 56 95 l 1
 227 350 l 1
 56 605 l 1
287 350 m 1
 456 95 l 1
 456 605 l 1
 287 350 l 1
87 50 m 1
 427 50 l 1
 256 305 l 1
 87 50 l 1
>>>>>>> FETCH_HEAD
EndSplineSet
EndChar

StartChar: A
Encoding: 65 65 2
Width: 613
Flags: MW
<<<<<<< HEAD
HStem: 162 100<205 405 205 439 170 405> 569 133<305 305 305 308>
=======
HStem: -2 21G<40.5 58 58 78 525 537 537 560> 162 100<205 405 205 439 170 405> 569 133<305 308 305 305> 682 20G<287 326 326 338>
>>>>>>> FETCH_HEAD
VStem: 7 599<11 19.5>
LayerCount: 2
Back
Fore
SplineSet
<<<<<<< HEAD
326 702 m 2
=======
326 702 m 2xd8
>>>>>>> FETCH_HEAD
 350 702 369 698 374 684 c 2
 603 32 l 2
 605 26 606 22 606 17 c 0
 606 5 593 -2 560 -2 c 2
 537 -2 l 2
 513 -2 494 2 490 16 c 2
 439 162 l 1
 170 162 l 1
 121 16 l 2
 116 3 100 -2 78 -2 c 2
 58 -2 l 2
 23 -2 7 5 7 17 c 0
 7 22 8 26 10 33 c 2
 240 684 l 2
 245 698 264 702 287 702 c 2
<<<<<<< HEAD
 326 702 l 2
305 569 m 2
 304.759765625 567.8203125 304.529296875 566.649414062 304.2890625 565.469726562 c 0
 300.51953125 546.540039062 296.58984375 526.8203125 290 508 c 2
 205 262 l 1
 405 262 l 1
 321 508 l 2
 315 527 311 549 308 569 c 1
 305 569 l 2
EndSplineSet
Substitution2: "Single Substitution lookup 13 subtable" ordfeminine
Substitution2: "'ss06' Style Set 6 lookup 12 subtable" one.ss01
=======
 326 702 l 2xd8
308 569 m 1xe8
 305 569 l 1
 301 549 297 528 290 508 c 2
 205 262 l 1
 405 262 l 1
 321 508 l 2
 315 527 311 549 308 569 c 1xe8
EndSplineSet
Substitution2: "Single Substitution lookup 14 subtable" ordfeminine
Substitution2: "'ss06' Style Set 6 lookup 13 subtable" one.ss01
>>>>>>> FETCH_HEAD
Substitution2: "'ss05' Style Set 5 lookup 11 subtable" A.ss05
Substitution2: "'ss04' Style Set 4 lookup 10 subtable" A.ss04
Substitution2: "'ss03' Style Set 3 lookup 9 subtable" A.ss03
Substitution2: "'ss02' Style Set 2 lookup 8 subtable" A.ss02
Substitution2: "'ss01' Style Set 1 lookup 7 subtable" A.ss01
Substitution2: "'salt' Stylistic Alternatives lookup 6 subtable" A.ss01
AlternateSubs2: "'aalt' Access All Alternates lookup 1 subtable" ordfeminine A.ss01 A.ss02 A.ss03 A.ss04 A.ss05
Position2: "'cpsp' Capital Spacing lookup 1 subtable" dx=5 dy=0 dh=10 dv=0
EndChar

StartChar: Aacute
Encoding: 193 193 3
Width: 613
Flags: MW
<<<<<<< HEAD
HStem: 162 100
VStem: 7.00999 599
LayerCount: 2
Back
Fore
SplineSet
387 910 m 0
 423 910 440.009765625 906.998046875 440.009765625 895.998046875 c 0
 440.009765625 887.23828125 434.939453125 881.658203125 387.529296875 829.358398438 c 0
 375.359375 815.928710938 360.389648438 799.428710938 342 778.999023438 c 0
 331 766.999023438 313 757.999023438 280 757.999023438 c 0
 261 757.999023438 254 760.999023438 254 769.999023438 c 0
 254 777.7890625 263.120117188 793.489257812 288.940429688 837.939453125 c 0
 296.23046875 850.509765625 304.860351562 865.370117188 315 883 c 0
 326 903 352 910 387 910 c 0
326.009765625 701.998046875 m 2
 350.009765625 701.998046875 369.009765625 697.998046875 374.009765625 683.998046875 c 2
 603.009765625 31.998046875 l 2
 605.009765625 25.998046875 606.009765625 21.998046875 606.009765625 16.998046875 c 0
 606.009765625 4.998046875 593.009765625 -2.001953125 560.009765625 -2.001953125 c 2
 537.009765625 -2.001953125 l 2
 513.009765625 -2.001953125 494.009765625 1.998046875 490.009765625 15.998046875 c 2
 439.009765625 161.998046875 l 1
 170.009765625 161.998046875 l 1
 121.009765625 15.998046875 l 2
 116.009765625 2.998046875 100.009765625 -2.001953125 78.009765625 -2.001953125 c 2
 58.009765625 -2.001953125 l 2
 23.009765625 -2.001953125 7.009765625 4.998046875 7.009765625 16.998046875 c 0
 7.009765625 21.998046875 8.009765625 25.998046875 10.009765625 32.998046875 c 2
 240.009765625 683.998046875 l 2
 245.009765625 697.998046875 264.009765625 701.998046875 287.009765625 701.998046875 c 2
 326.009765625 701.998046875 l 2
305.009765625 568.998046875 m 2
 304.76953125 567.818359375 304.5390625 566.647460938 304.298828125 565.467773438 c 0
 300.529296875 546.538085938 296.599609375 526.818359375 290.009765625 507.998046875 c 2
 205.009765625 261.998046875 l 1
 405.009765625 261.998046875 l 1
 321.009765625 507.998046875 l 2
 315.009765625 526.998046875 311.009765625 548.998046875 308.009765625 568.998046875 c 1
 305.009765625 568.998046875 l 2
=======
HStem: -2 21G<40.5 58 58 78 525 537 537 560> 162 100<205 405 205 439 170 405> 569 133<305 308 305 305> 682 20G<287 326 326 338>
VStem: 7 599<11 19.5>
LayerCount: 2
Back
Fore
SplineSet
387 910 m 0xd8
 423 910 440 907 440 896 c 0
 440 885 432 879 342 779 c 0
 331 767 313 758 280 758 c 0
 261 758 254 761 254 770 c 0
 254 780 269 803 315 883 c 0
 326 903 352 910 387 910 c 0xd8
326 702 m 2
 350 702 369 698 374 684 c 2
 603 32 l 2
 605 26 606 22 606 17 c 0
 606 5 593 -2 560 -2 c 2
 537 -2 l 2
 513 -2 494 2 490 16 c 2
 439 162 l 1
 170 162 l 1
 121 16 l 2
 116 3 100 -2 78 -2 c 2
 58 -2 l 2
 23 -2 7 5 7 17 c 0
 7 22 8 26 10 33 c 2
 240 684 l 2
 245 698 264 702 287 702 c 2
 326 702 l 2
308 569 m 1xe8
 305 569 l 1
 301 549 297 528 290 508 c 2
 205 262 l 1
 405 262 l 1
 321 508 l 2
 315 527 311 549 308 569 c 1xe8
>>>>>>> FETCH_HEAD
EndSplineSet
Position2: "'cpsp' Capital Spacing lookup 1 subtable" dx=5 dy=0 dh=10 dv=0
EndChar

StartChar: Acircumflex
Encoding: 194 194 4
Width: 613
Flags: MW
<<<<<<< HEAD
HStem: 162 100<205 405 205 439 170 405> 751 144<193.5 316 201 316 297 402 297 413>
=======
HStem: -2 21G<40.5 58 58 78 525 537 537 560> 162 100<205 405 205 439 170 405> 569 133<305 308 305 305> 682 20G<287 326 326 338> 751 144<193.5 316 201 316 297 402 297 413>
>>>>>>> FETCH_HEAD
VStem: 7 599<11 19.5>
LayerCount: 2
Back
Fore
SplineSet
<<<<<<< HEAD
316 895 m 2
=======
316 895 m 2xdc
>>>>>>> FETCH_HEAD
 340 895 358 891 369 874 c 2
 429 780 l 2
 433 774 435 769 435 764 c 0
 435 756 428 751 413 751 c 2
 402 751 l 2
 382 751 365 756 354 769 c 2
 306 828 l 1
 260 769 l 2
 248 755 232 751 211 751 c 2
 201 751 l 2
 186 751 179 755 179 764 c 0
 179 768 181 774 185 780 c 2
 245 874 l 2
 255 891 274 895 297 895 c 2
<<<<<<< HEAD
 316 895 l 2
=======
 316 895 l 2xdc
>>>>>>> FETCH_HEAD
326 702 m 2
 350 702 369 698 374 684 c 2
 603 32 l 2
 605 26 606 22 606 17 c 0
 606 5 593 -2 560 -2 c 2
 537 -2 l 2
 513 -2 494 2 490 16 c 2
 439 162 l 1
 170 162 l 1
 121 16 l 2
 116 3 100 -2 78 -2 c 2
 58 -2 l 2
 23 -2 7 5 7 17 c 0
 7 22 8 26 10 33 c 2
 240 684 l 2
 245 698 264 702 287 702 c 2
 326 702 l 2
<<<<<<< HEAD
305 569 m 2
 304.759765625 567.8203125 304.529296875 566.649414062 304.2890625 565.469726562 c 0
 300.51953125 546.540039062 296.58984375 526.8203125 290 508 c 2
 205 262 l 1
 405 262 l 1
 321 508 l 2
 315 527 311 549 308 569 c 1
 305 569 l 2
=======
308 569 m 1xec
 305 569 l 1
 301 549 297 528 290 508 c 2
 205 262 l 1
 405 262 l 1
 321 508 l 2
 315 527 311 549 308 569 c 1xec
>>>>>>> FETCH_HEAD
EndSplineSet
Position2: "'cpsp' Capital Spacing lookup 1 subtable" dx=5 dy=0 dh=10 dv=0
EndChar

StartChar: Adieresis
Encoding: 196 196 5
Width: 613
Flags: MW
<<<<<<< HEAD
HStem: 162 100<205 405 205 439 170 405> 771 108<210 244 370 404>
=======
HStem: -2 21G<40.5 58 58 78 525 537 537 560> 162 100<205 405 205 439 170 405> 569 133<305 308 305 305> 682 20G<287 326 326 338> 771 108<210 244 370 404>
>>>>>>> FETCH_HEAD
VStem: 177 100<798 853 789.5 861> 337 100<798 853 789.5 861>
LayerCount: 2
Back
Fore
SplineSet
<<<<<<< HEAD
228 879 m 0
=======
228 879 m 0xde
>>>>>>> FETCH_HEAD
 262 879 277 870 277 853 c 2
 277 798 l 2
 277 781 262 771 226 771 c 0
 192 771 177 781 177 798 c 2
 177 853 l 2
<<<<<<< HEAD
 177 869 192 879 228 879 c 0
=======
 177 869 192 879 228 879 c 0xde
>>>>>>> FETCH_HEAD
388 879 m 0
 422 879 437 870 437 853 c 2
 437 798 l 2
 437 781 422 771 386 771 c 0
 352 771 337 781 337 798 c 2
 337 853 l 2
 337 869 352 879 388 879 c 0
326 702 m 2
 350 702 369 698 374 684 c 2
 603 32 l 2
 605 26 606 22 606 17 c 0
 606 5 593 -2 560 -2 c 2
 537 -2 l 2
 513 -2 494 2 490 16 c 2
 439 162 l 1
 170 162 l 1
 121 16 l 2
 116 3 100 -2 78 -2 c 2
 58 -2 l 2
 23 -2 7 5 7 17 c 0
 7 22 8 26 10 33 c 2
 240 684 l 2
 245 698 264 702 287 702 c 2
 326 702 l 2
<<<<<<< HEAD
305 569 m 2
 304.759765625 567.8203125 304.529296875 566.649414062 304.2890625 565.469726562 c 0
 300.51953125 546.540039062 296.58984375 526.8203125 290 508 c 2
 205 262 l 1
 405 262 l 1
 321 508 l 2
 315 527 311 549 308 569 c 1
 305 569 l 2
=======
308 569 m 1xee
 305 569 l 1
 301 549 297 528 290 508 c 2
 205 262 l 1
 405 262 l 1
 321 508 l 2
 315 527 311 549 308 569 c 1xee
>>>>>>> FETCH_HEAD
EndSplineSet
Position2: "'cpsp' Capital Spacing lookup 1 subtable" dx=5 dy=0 dh=10 dv=0
EndChar

StartChar: Agrave
Encoding: 192 192 6
Width: 613
Flags: MW
<<<<<<< HEAD
HStem: 161.99 100
VStem: 7 599
LayerCount: 2
Back
Fore
SplineSet
235 910 m 0
 271 910 296.000976562 902.990234375 307.000976562 882.990234375 c 0
 317.130859375 865.360351562 325.760742188 850.5 333.060546875 837.940429688 c 0
 358.870117188 793.490234375 367.990234375 777.790039062 367.990234375 769.990234375 c 0
 367.990234375 760.990234375 360.990234375 757.990234375 341.990234375 757.990234375 c 0
 308.990234375 757.990234375 290.990234375 766.990234375 279.990234375 778.990234375 c 0
 256.400390625 805.5 238.430664062 825.41015625 224.760742188 840.549804688 c 0
 186.860351562 882.530273438 182 887.91015625 182 896 c 0
 182 907 200 910 235 910 c 0
326.000976562 701.990234375 m 2
 350.000976562 701.990234375 369.000976562 697.990234375 374.000976562 683.990234375 c 2
 603.000976562 31.990234375 l 2
 605.000976562 25.990234375 606.000976562 21.990234375 606.000976562 16.990234375 c 0
 606.000976562 4.990234375 593.000976562 -2.009765625 560.000976562 -2.009765625 c 2
 537.000976562 -2.009765625 l 2
 513.000976562 -2.009765625 494.000976562 1.990234375 490.000976562 15.990234375 c 2
 439.000976562 161.990234375 l 1
 170.000976562 161.990234375 l 1
 121.000976562 15.990234375 l 2
 116.000976562 2.990234375 100.000976562 -2.009765625 78.0009765625 -2.009765625 c 2
 58.0009765625 -2.009765625 l 2
 23.0009765625 -2.009765625 7.0009765625 4.990234375 7.0009765625 16.990234375 c 0
 7.0009765625 21.990234375 8.0009765625 25.990234375 10.0009765625 32.990234375 c 2
 240.000976562 683.990234375 l 2
 245.000976562 697.990234375 264.000976562 701.990234375 287.000976562 701.990234375 c 2
 326.000976562 701.990234375 l 2
305.000976562 568.990234375 m 2
 304.760742188 567.8203125 304.530273438 566.639648438 304.290039062 565.459960938 c 0
 300.520507812 546.530273438 296.590820312 526.8203125 290.000976562 507.990234375 c 2
 205.000976562 261.990234375 l 1
 405.000976562 261.990234375 l 1
 321.000976562 507.990234375 l 2
 315.000976562 526.990234375 311.000976562 548.990234375 308.000976562 568.990234375 c 1
 305.000976562 568.990234375 l 2
=======
HStem: -2 21G<40.5 58 58 78 525 537 537 560> 162 100<205 405 205 439 170 405> 569 133<305 308 305 305> 682 20G<287 326 326 338>
VStem: 7 599<11 19.5>
LayerCount: 2
Back
Fore
SplineSet
235 910 m 0xd8
 271 910 296 903 307 883 c 0
 353 803 368 780 368 770 c 0
 368 761 361 758 342 758 c 0
 309 758 291 767 280 779 c 0
 191 879 182 885 182 896 c 0
 182 907 200 910 235 910 c 0xd8
326 702 m 2
 350 702 369 698 374 684 c 2
 603 32 l 2
 605 26 606 22 606 17 c 0
 606 5 593 -2 560 -2 c 2
 537 -2 l 2
 513 -2 494 2 490 16 c 2
 439 162 l 1
 170 162 l 1
 121 16 l 2
 116 3 100 -2 78 -2 c 2
 58 -2 l 2
 23 -2 7 5 7 17 c 0
 7 22 8 26 10 33 c 2
 240 684 l 2
 245 698 264 702 287 702 c 2
 326 702 l 2
308 569 m 1xe8
 305 569 l 1
 301 549 297 528 290 508 c 2
 205 262 l 1
 405 262 l 1
 321 508 l 2
 315 527 311 549 308 569 c 1xe8
>>>>>>> FETCH_HEAD
EndSplineSet
Position2: "'cpsp' Capital Spacing lookup 1 subtable" dx=5 dy=0 dh=10 dv=0
EndChar

StartChar: Aring
Encoding: 197 197 7
Width: 613
Flags: MW
<<<<<<< HEAD
HStem: 162 100<205 405 205 439 170 405> 735 47<294 318.5 294 331> 869 48<294 318.5>
=======
HStem: -2 21G<40.5 58 58 78 525 537 537 560> 162 100<205 405 205 439 170 405> 569 133<305 308 305 305> 682 20G<287 326 326 338> 735 47<294 318.5 294 331> 869 48<294 318.5>
>>>>>>> FETCH_HEAD
VStem: 215 48<812.5 837.5 812.5 850.5> 351 46<812.5 837.5>
LayerCount: 2
Back
Fore
SplineSet
<<<<<<< HEAD
306 917 m 0
 356 917 397 876 397 825 c 0
 397 775 356 735 306 735 c 0
 255 735 215 775 215 825 c 0
 215 876 255 917 306 917 c 0
=======
306 917 m 0xdf
 356 917 397 876 397 825 c 0
 397 775 356 735 306 735 c 0
 255 735 215 775 215 825 c 0
 215 876 255 917 306 917 c 0xdf
>>>>>>> FETCH_HEAD
306 869 m 0
 282 869 263 850 263 825 c 0
 263 800 282 782 306 782 c 0
 331 782 351 800 351 825 c 0
 351 850 331 869 306 869 c 0
326 702 m 2
 350 702 369 698 374 684 c 2
 603 32 l 2
 605 26 606 22 606 17 c 0
 606 5 593 -2 560 -2 c 2
 537 -2 l 2
 513 -2 494 2 490 16 c 2
 439 162 l 1
 170 162 l 1
 121 16 l 2
 116 3 100 -2 78 -2 c 2
 58 -2 l 2
 23 -2 7 5 7 17 c 0
 7 22 8 26 10 33 c 2
 240 684 l 2
 245 698 264 702 287 702 c 2
 326 702 l 2
<<<<<<< HEAD
305 569 m 2
 304.759765625 567.8203125 304.529296875 566.649414062 304.2890625 565.469726562 c 0
 300.51953125 546.540039062 296.58984375 526.8203125 290 508 c 2
 205 262 l 1
 405 262 l 1
 321 508 l 2
 315 527 311 549 308 569 c 1
 305 569 l 2
=======
308 569 m 1xef
 305 569 l 1
 301 549 297 528 290 508 c 2
 205 262 l 1
 405 262 l 1
 321 508 l 2
 315 527 311 549 308 569 c 1xef
>>>>>>> FETCH_HEAD
EndSplineSet
Position2: "'cpsp' Capital Spacing lookup 1 subtable" dx=5 dy=0 dh=10 dv=0
EndChar

StartChar: Atilde
Encoding: 195 195 8
Width: 613
Flags: MW
<<<<<<< HEAD
HStem: 162 100<205.009 405.009 205.009 439.009 170.009 405.009> 763 63<369.255 385 369.255 398.001> 808 63<226.99 238.82>
VStem: 7.00999 599
=======
HStem: -2 21G<40.5 58 58 78 525 537 537 560> 162 100<205 405 205 439 170 405> 569 133<305 308 305 305> 682 20G<287 326 326 338> 763 63<364.5 385 364.5 398> 808 63<227 247>
VStem: 7 599<11 19.5>
>>>>>>> FETCH_HEAD
LayerCount: 2
Back
Fore
SplineSet
<<<<<<< HEAD
378 826 m 0xd0
 392 826 400.008789062 837 413.008789062 858 c 0
 419.668945312 868.66015625 423.668945312 872.66015625 429.149414062 872.66015625 c 0
 431.889648438 872.66015625 435 871.66015625 439 870 c 2
 461 861 l 2
 467.5703125 858.009765625 470.220703125 854.309570312 470.220703125 849.049804688 c 0
 470.220703125 845.5 469.010742188 841.240234375 467.000976562 836 c 0
 448.000976562 783 416.000976562 763 380.000976562 763 c 0xd0
 347.901367188 763 312.731445312 778.330078125 283.451171875 791.08984375 c 0
 262.55078125 800.200195312 244.650390625 808 232.990234375 808 c 0
 220.990234375 808 210.990234375 798 197.990234375 776 c 0
 191.73046875 765.41015625 187.5703125 761.379882812 181.900390625 761.379882812 c 0
 179.110351562 761.379882812 175.950195312 762.349609375 171.990234375 764 c 2
 149.990234375 773 l 2
 143.419921875 775.990234375 140.780273438 779.690429688 140.780273438 784.950195312 c 0
 140.780273438 788.5 141.98046875 792.759765625 144 798 c 0
 165 856 200 871 231 871 c 0xb0
 249.6796875 871 270.099609375 865.41015625 289.889648438 858.169921875 c 0
 326.259765625 844.870117188 360.509765625 826 378 826 c 0xd0
326.008789062 702 m 2
 350.008789062 702 369.008789062 698 374.008789062 684 c 2
 603.008789062 32 l 2
 605.008789062 26 606.008789062 22 606.008789062 17 c 0
 606.008789062 5 593.008789062 -2 560.008789062 -2 c 2
 537.008789062 -2 l 2
 513.008789062 -2 494.008789062 2 490.008789062 16 c 2
 439.008789062 162 l 1
 170.008789062 162 l 1
 121.008789062 16 l 2
 116.008789062 3 100.008789062 -2 78.0087890625 -2 c 2
 58.0087890625 -2 l 2
 23.0087890625 -2 7.0087890625 5 7.0087890625 17 c 0
 7.0087890625 22 8.0087890625 26 10.0087890625 33 c 2
 240.008789062 684 l 2
 245.008789062 698 264.008789062 702 287.008789062 702 c 2
 326.008789062 702 l 2
305.008789062 569 m 2
 304.768554688 567.8203125 304.538085938 566.649414062 304.297851562 565.469726562 c 0
 300.528320312 546.540039062 296.598632812 526.8203125 290.008789062 508 c 2
 205.008789062 262 l 1
 405.008789062 262 l 1
 321.008789062 508 l 2
 315.008789062 527 311.008789062 549 308.008789062 569 c 1
 305.008789062 569 l 2
=======
378 826 m 0xda
 392 826 400 837 413 858 c 0
 423 874 427 875 439 870 c 2
 461 861 l 2
 472 856 472 849 467 836 c 0
 448 783 416 763 380 763 c 0xda
 325 763 261 808 233 808 c 0
 221 808 211 798 198 776 c 0
 188.66015625 760.190429688 184 759 172 764 c 2
 150 773 l 2
 139 778 139 785 144 798 c 0
 165 856 200 871 231 871 c 0xd6
 284 871 351 826 378 826 c 0xda
326 702 m 2
 350 702 369 698 374 684 c 2
 603 32 l 2
 605 26 606 22 606 17 c 0
 606 5 593 -2 560 -2 c 2
 537 -2 l 2
 513 -2 494 2 490 16 c 2
 439 162 l 1
 170 162 l 1
 121 16 l 2
 116 3 100 -2 78 -2 c 2
 58 -2 l 2
 23 -2 7 5 7 17 c 0
 7 22 8 26 10 33 c 2
 240 684 l 2
 245 698 264 702 287 702 c 2
 326 702 l 2
308 569 m 1xea
 305 569 l 1
 301 549 297 528 290 508 c 2
 205 262 l 1
 405 262 l 1
 321 508 l 2
 315 527 311 549 308 569 c 1xea
>>>>>>> FETCH_HEAD
EndSplineSet
Position2: "'cpsp' Capital Spacing lookup 1 subtable" dx=5 dy=0 dh=10 dv=0
EndChar

StartChar: AE
Encoding: 198 198 9
Width: 915
Flags: MW
HStem: 0 100<500.5 817 578 817 578 817> 162 100<226 428 226 448 176 428> 308 100<535 788 535 535> 600 100<474 816 474 474>
VStem: -6 848<11 39>
LayerCount: 2
Back
Fore
SplineSet
816 700 m 2
 833 700 841 688 841 661 c 2
 841 639 l 2
 841 612 833 600 816 600 c 2
 474 600 l 1
 514 408 l 1
 788 408 l 2
 805 408 812 397 812 369 c 2
 812 347 l 2
 812 320 805 308 788 308 c 2
 535 308 l 1
 578 100 l 1
 817 100 l 2
 834 100 842 88 842 61 c 2
 842 39 l 2
 842 12 834 0 817 0 c 2
 511 0 l 2
 490 0 479 9 475 29 c 2
 448 162 l 1
 176 162 l 1
 105 16 l 2
 98 4 83 -2 62 -2 c 2
 43 -2 l 2
 8 -2 -6 5 -6 17 c 0
 -6 22 -5 28 -2 34 c 2
 319 673 l 2
 329 692 342 700 363 700 c 2
 816 700 l 2
<<<<<<< HEAD
372 578 m 1
=======
375 578 m 1
 372 578 l 1
>>>>>>> FETCH_HEAD
 348 510 l 1
 226 262 l 1
 428 262 l 1
 377 509 l 1
 375 578 l 1
<<<<<<< HEAD
 372 578 l 1
=======
>>>>>>> FETCH_HEAD
EndSplineSet
Position2: "'cpsp' Capital Spacing lookup 1 subtable" dx=5 dy=0 dh=10 dv=0
EndChar

StartChar: B
Encoding: 66 66 10
Width: 593
Flags: MW
<<<<<<< HEAD
HStem: 0 100<107 327 202 309> 308 100<202 297 202 297 297 310> 600 100<202 202 202 296>
=======
HStem: 0 100<107 327 202 309> 308 100<202 297 297 310 202 297> 600 100<202 296 202 202>
>>>>>>> FETCH_HEAD
VStem: 85 117<100 308 408 600> 416 120<489.5 538.5> 445 120<174.5 240>
LayerCount: 2
Back
Fore
SplineSet
307 700 m 2xf8
 464 700 536 628 536 523 c 0xf8
 536 456 486 391 427 371 c 1
 427 367 l 1
 462 360 565 310 565 202 c 0xf4
 565 67 477 0 309 0 c 2
 119 0 l 2
 95 0 85 10 85 34 c 2
 85 666 l 2
 85 690 95 700 119 700 c 2
 307 700 l 2xf8
<<<<<<< HEAD
202 600 m 1
=======
296 600 m 2
 202 600 l 1
>>>>>>> FETCH_HEAD
 202 408 l 1
 297 408 l 2
 369 408 416 452 416 507 c 0
 416 570 379 600 296 600 c 2
<<<<<<< HEAD
 202 600 l 1
202 308 m 1
=======
310 308 m 2
 202 308 l 1
>>>>>>> FETCH_HEAD
 202 100 l 1
 327 100 l 2
 403 100 445 141 445 208 c 0xf4
 445 272 399 308 310 308 c 2
<<<<<<< HEAD
 202 308 l 1
EndSplineSet
Substitution2: "'ss06' Style Set 6 lookup 12 subtable" two.ss01
=======
EndSplineSet
Substitution2: "'ss06' Style Set 6 lookup 13 subtable" two.ss01
>>>>>>> FETCH_HEAD
Substitution2: "'ss05' Style Set 5 lookup 11 subtable" B.ss05
Substitution2: "'ss04' Style Set 4 lookup 10 subtable" B.ss04
Substitution2: "'ss03' Style Set 3 lookup 9 subtable" B.ss03
Substitution2: "'ss02' Style Set 2 lookup 8 subtable" B.ss02
Substitution2: "'ss01' Style Set 1 lookup 7 subtable" B.ss01
Substitution2: "'salt' Stylistic Alternatives lookup 6 subtable" B.ss01
AlternateSubs2: "'aalt' Access All Alternates lookup 1 subtable" B.ss01 B.ss02 B.ss03 B.ss04 B.ss05
Position2: "'cpsp' Capital Spacing lookup 1 subtable" dx=5 dy=0 dh=10 dv=0
EndChar

StartChar: C
Encoding: 67 67 11
Width: 619
Flags: MW
<<<<<<< HEAD
HStem: -7 100<307.511 413.396 307.511 427.5> 606 101<309.511 415.471>
VStem: 52 120.01
=======
HStem: -7 100<307.5 427 307.5 427.5> 606 101<309.5 427.5 271.5 428>
VStem: 52 120<263 438 263 470>
>>>>>>> FETCH_HEAD
LayerCount: 2
Back
Fore
SplineSet
380 707 m 0
<<<<<<< HEAD
 475 707 579.010742188 675 579.010742188 641 c 0
 579.010742188 620 550.010742188 568 532.010742188 568 c 0
 528.87109375 568 523.55078125 570.58984375 515.701171875 574.419921875 c 0
 493.470703125 585.259765625 450.930664062 606 380.010742188 606 c 0
 239.010742188 606 172.010742188 526 172.010742188 350 c 0
 172.010742188 176 238.010742188 93 377.010742188 93 c 0
 449.780273438 93 498.720703125 117.360351562 525.37109375 130.620117188 c 0
 535.340820312 135.58984375 542.190429688 139 546 139 c 0
=======
 475 707 579 675 579 641 c 0
 579 620 550 568 532 568 c 0
 520 568 476 606 380 606 c 0
 239 606 172 526 172 350 c 0
 172 176 238 93 377 93 c 0
 477 93 532 139 546 139 c 0
>>>>>>> FETCH_HEAD
 567 139 591 85 591 70 c 0
 591 29 478 -7 377 -7 c 0
 156 -7 52 106 52 351 c 0
 52 589 163 707 380 707 c 0
EndSplineSet
<<<<<<< HEAD
Substitution2: "'ss06' Style Set 6 lookup 12 subtable" three.ss01
=======
Substitution2: "'ss06' Style Set 6 lookup 13 subtable" three.ss01
>>>>>>> FETCH_HEAD
Substitution2: "'ss05' Style Set 5 lookup 11 subtable" C.ss05
Substitution2: "'ss04' Style Set 4 lookup 10 subtable" C.ss04
Substitution2: "'ss03' Style Set 3 lookup 9 subtable" C.ss03
Substitution2: "'ss02' Style Set 2 lookup 8 subtable" C.ss02
Substitution2: "'ss01' Style Set 1 lookup 7 subtable" C.ss01
Substitution2: "'salt' Stylistic Alternatives lookup 6 subtable" C.ss01
AlternateSubs2: "'aalt' Access All Alternates lookup 1 subtable" C.ss01 C.ss02 C.ss03 C.ss04 C.ss05
Position2: "'cpsp' Capital Spacing lookup 1 subtable" dx=5 dy=0 dh=10 dv=0
EndChar

StartChar: Ccedilla
Encoding: 199 199 12
Width: 619
Flags: MW
<<<<<<< HEAD
HStem: -211 60 -6.74001 99.74 606 101<309.511 415.471>
VStem: 52 120 381.01 85
LayerCount: 2
Back
Fore
SplineSet
591 70 m 0
 591 31.01953125 488.913085938 -3.4306640625 392.073242188 -6.740234375 c 1
 382.092773438 -43.1201171875 l 1
 412.462890625 -44.48046875 466.012695312 -58.4306640625 466.012695312 -117.000976562 c 0
 466.012695312 -191.000976562 412.012695312 -211.000976562 349.012695312 -211.000976562 c 0
 299.012695312 -211.000976562 227.012695312 -194.000976562 227.012695312 -165.000976562 c 0
 227.012695312 -143.000976562 240.012695312 -131.000976562 252.012695312 -131.000976562 c 0
 259.762695312 -131.000976562 268.842773438 -134.331054688 279.602539062 -138.271484375 c 0
 295.202148438 -143.991210938 314.33203125 -151.000976562 338.01171875 -151.000976562 c 0
 360.01171875 -151.000976562 381.01171875 -147.000976562 381.01171875 -124.000976562 c 0
 381.01171875 -104.37109375 362.861328125 -97.8212890625 346.361328125 -91.87109375 c 0
 332.611328125 -86.9111328125 320.000976562 -82.37109375 320.000976562 -71.0009765625 c 0
 320.000976562 -64.390625 321.791015625 -58.6708984375 338.840820312 -5.80078125 c 1
 144.010742188 6.8896484375 52.0107421875 120.559570312 52.0107421875 351 c 0
 52.0107421875 589 163.010742188 707 380.010742188 707 c 0
 475.010742188 707 579.010742188 675 579.010742188 641 c 0
 579.010742188 620 550.010742188 568 532.010742188 568 c 0
 528.87109375 568 523.55078125 570.58984375 515.701171875 574.419921875 c 0
 493.470703125 585.259765625 450.930664062 606 380.010742188 606 c 0
 239.010742188 606 172.010742188 526 172.010742188 350 c 0
 172.010742188 176 238.010742188 93 377.010742188 93 c 0
 449.780273438 93 498.720703125 117.360351562 525.37109375 130.620117188 c 0
 535.340820312 135.58984375 542.190429688 139 546 139 c 0
 567 139 591 85 591 70 c 0
=======
HStem: -211 60 -6.74001 99.74 -5.8 98.8 606 101<309.5 427.5 271.5 428>
VStem: 52 120<263 438 263 470> 380.99 85
LayerCount: 2
Back
Fore
SplineSet
591 70 m 0xd8
 591 31.01953125 488.899414062 -3.4306640625 392.049804688 -6.740234375 c 1
 382.080078125 -43.1201171875 l 1xdc
 412.450195312 -44.48046875 465.990234375 -58.4306640625 465.990234375 -117.000976562 c 0
 465.990234375 -191.000976562 411.990234375 -211.000976562 348.990234375 -211.000976562 c 0
 298.990234375 -211.000976562 226.990234375 -194.000976562 226.990234375 -165.000976562 c 0
 226.990234375 -143.000976562 239.990234375 -131.000976562 251.990234375 -131.000976562 c 0
 270.990234375 -131.000976562 297.990234375 -151.000976562 337.990234375 -151.000976562 c 0
 359.990234375 -151.000976562 380.990234375 -147.000976562 380.990234375 -124.000976562 c 0
 380.990234375 -88.0009765625 319.990234375 -96.0009765625 319.990234375 -71.0009765625 c 0
 319.990234375 -64.390625 321.780273438 -58.6708984375 338.830078125 -5.80078125 c 1xbc
 144 6.8896484375 52 120.559570312 52 351 c 0
 52 589 163 707 380 707 c 0
 475 707 579 675 579 641 c 0
 579 620 550 568 532 568 c 0
 520 568 476 606 380 606 c 0
 239 606 172 526 172 350 c 0
 172 176 238 93 377 93 c 0
 477 93 532 139 546 139 c 0
 567 139 591 85 591 70 c 0xd8
>>>>>>> FETCH_HEAD
EndSplineSet
Position2: "'cpsp' Capital Spacing lookup 1 subtable" dx=5 dy=0 dh=10 dv=0
EndChar

StartChar: D
Encoding: 68 68 13
Width: 695
Flags: MW
<<<<<<< HEAD
HStem: 0 100<107 327 202 327 327 331> 600 100<202 202 202 327>
=======
HStem: 0 100<107 327 202 327 327 331> 600 100<202 327 202 202>
>>>>>>> FETCH_HEAD
VStem: 85 117<100 600 100 666 100 678> 524 121<262.5 437>
LayerCount: 2
Back
Fore
SplineSet
331 700 m 2
 518 700 645 595 645 350 c 0
 645 105 518 0 331 0 c 2
 119 0 l 2
 95 0 85 10 85 34 c 2
 85 666 l 2
 85 690 95 700 119 700 c 2
 331 700 l 2
<<<<<<< HEAD
202 600 m 1
=======
327 600 m 2
 202 600 l 1
>>>>>>> FETCH_HEAD
 202 100 l 1
 327 100 l 2
 444 100 524 175 524 350 c 0
 524 524 444 600 327 600 c 2
<<<<<<< HEAD
 202 600 l 1
EndSplineSet
Substitution2: "'ss06' Style Set 6 lookup 12 subtable" four.ss01
=======
EndSplineSet
Substitution2: "'ss06' Style Set 6 lookup 13 subtable" four.ss01
>>>>>>> FETCH_HEAD
Substitution2: "'ss05' Style Set 5 lookup 11 subtable" D.ss05
Substitution2: "'ss04' Style Set 4 lookup 10 subtable" D.ss04
Substitution2: "'ss03' Style Set 3 lookup 9 subtable" D.ss03
Substitution2: "'ss02' Style Set 2 lookup 8 subtable" D.ss02
Substitution2: "'ss01' Style Set 1 lookup 7 subtable" D.ss01
Substitution2: "'salt' Stylistic Alternatives lookup 6 subtable" D.ss01
AlternateSubs2: "'aalt' Access All Alternates lookup 1 subtable" D.ss01 D.ss02 D.ss03 D.ss04 D.ss05
Position2: "'cpsp' Capital Spacing lookup 1 subtable" dx=5 dy=0 dh=10 dv=0
EndChar

StartChar: Eth
Encoding: 208 208 14
Width: 696
Flags: MW
<<<<<<< HEAD
HStem: 0 100<101 328 196 328 328 332> 307 100<20.5 79 29 79 196 284> 600 100<196 196 196 328>
=======
HStem: 0 100<101 328 196 328 328 332> 307 100<20.5 79 29 79 196 284> 600 100<196 328 196 196>
>>>>>>> FETCH_HEAD
VStem: 79 117<100 307 100 307 100 307 407 600> 527 120<262.5 437>
LayerCount: 2
Back
Fore
SplineSet
332 700 m 2
 519 700 647 595 647 350 c 0
 647 105 519 0 332 0 c 2
 113 0 l 2
 89 0 79 10 79 34 c 2
 79 307 l 1
 29 307 l 2
 12 307 5 319 5 346 c 2
 5 368 l 2
 5 395 12 407 29 407 c 2
 79 407 l 1
 79 666 l 2
 79 690 89 700 113 700 c 2
 332 700 l 2
<<<<<<< HEAD
196 600 m 1
=======
328 600 m 2
 196 600 l 1
>>>>>>> FETCH_HEAD
 196 407 l 1
 284 407 l 2
 301 407 308 395 308 368 c 2
 308 346 l 2
 308 319 301 307 284 307 c 2
 196 307 l 1
 196 100 l 1
 328 100 l 2
 445 100 527 175 527 350 c 0
 527 524 445 600 328 600 c 2
<<<<<<< HEAD
 196 600 l 1
=======
>>>>>>> FETCH_HEAD
EndSplineSet
Position2: "'cpsp' Capital Spacing lookup 1 subtable" dx=5 dy=0 dh=10 dv=0
EndChar

StartChar: E
Encoding: 69 69 15
Width: 546
Flags: MW
HStem: 0 100<107 477 202 477 202 477> 308 100<202 447 202 447> 600 100<202 476 202 202>
VStem: 85 117<100 308 408 600>
LayerCount: 2
Back
Fore
SplineSet
476 700 m 2
 493 700 500 688 500 661 c 2
 500 639 l 2
 500 612 493 600 476 600 c 2
 202 600 l 1
 202 408 l 1
 447 408 l 2
 464 408 471 397 471 369 c 2
 471 347 l 2
 471 320 464 308 447 308 c 2
 202 308 l 1
 202 100 l 1
 477 100 l 2
 494 100 501 88 501 61 c 2
 501 39 l 2
 501 12 494 0 477 0 c 2
 119 0 l 2
 95 0 85 10 85 34 c 2
 85 666 l 2
 85 690 95 700 119 700 c 2
 476 700 l 2
EndSplineSet
<<<<<<< HEAD
Substitution2: "'ss06' Style Set 6 lookup 12 subtable" five.ss01
=======
Substitution2: "'ss06' Style Set 6 lookup 13 subtable" five.ss01
>>>>>>> FETCH_HEAD
Substitution2: "'ss05' Style Set 5 lookup 11 subtable" E.ss05
Substitution2: "'ss04' Style Set 4 lookup 10 subtable" E.ss04
Substitution2: "'ss03' Style Set 3 lookup 9 subtable" E.ss03
Substitution2: "'ss02' Style Set 2 lookup 8 subtable" E.ss02
Substitution2: "'ss01' Style Set 1 lookup 7 subtable" E.ss01
Substitution2: "'salt' Stylistic Alternatives lookup 6 subtable" E.ss01
AlternateSubs2: "'aalt' Access All Alternates lookup 1 subtable" E.ss01 E.ss02 E.ss03 E.ss04 E.ss05
Position2: "'cpsp' Capital Spacing lookup 1 subtable" dx=5 dy=0 dh=10 dv=0
EndChar

StartChar: Eacute
Encoding: 201 201 16
Width: 546
Flags: MW
<<<<<<< HEAD
HStem: 0 100 308 100 600 100
VStem: 85.01 117
=======
HStem: 0 100<107 477 202 477 202 477> 308 100<202 447 202 447> 600 100<202 476 202 202>
VStem: 85 117<100 308 408 600>
>>>>>>> FETCH_HEAD
LayerCount: 2
Back
Fore
SplineSet
376 910 m 0
<<<<<<< HEAD
 412 910 429.009765625 906.998046875 429.009765625 895.998046875 c 0
 429.009765625 887.23828125 423.939453125 881.658203125 376.529296875 829.358398438 c 0
 364.359375 815.928710938 349.389648438 799.428710938 331 778.999023438 c 0
 320 766.999023438 302 757.999023438 269 757.999023438 c 0
 250 757.999023438 243 760.999023438 243 769.999023438 c 0
 243 777.7890625 252.120117188 793.489257812 277.940429688 837.939453125 c 0
 285.23046875 850.509765625 293.860351562 865.370117188 304 883 c 0
 315 903 341 910 376 910 c 0
476.009765625 699.998046875 m 2
 493.009765625 699.998046875 500.009765625 687.998046875 500.009765625 660.998046875 c 2
 500.009765625 638.998046875 l 2
 500.009765625 611.998046875 493.009765625 599.998046875 476.009765625 599.998046875 c 2
 202.009765625 599.998046875 l 1
 202.009765625 407.998046875 l 1
 447.009765625 407.998046875 l 2
 464.009765625 407.998046875 471.009765625 396.998046875 471.009765625 368.998046875 c 2
 471.009765625 346.998046875 l 2
 471.009765625 319.998046875 464.009765625 307.998046875 447.009765625 307.998046875 c 2
 202.009765625 307.998046875 l 1
 202.009765625 99.998046875 l 1
 477.009765625 99.998046875 l 2
 494.009765625 99.998046875 501.009765625 87.998046875 501.009765625 60.998046875 c 2
 501.009765625 38.998046875 l 2
 501.009765625 11.998046875 494.009765625 -0.001953125 477.009765625 -0.001953125 c 2
 119.009765625 -0.001953125 l 2
 95.009765625 -0.001953125 85.009765625 9.998046875 85.009765625 33.998046875 c 2
 85.009765625 665.998046875 l 2
 85.009765625 689.998046875 95.009765625 699.998046875 119.009765625 699.998046875 c 2
 476.009765625 699.998046875 l 2
=======
 412 910 429 907 429 896 c 0
 429 885 421 879 331 779 c 0
 320 767 302 758 269 758 c 0
 250 758 243 761 243 770 c 0
 243 780 258 803 304 883 c 0
 315 903 341 910 376 910 c 0
476 700 m 2
 493 700 500 688 500 661 c 2
 500 639 l 2
 500 612 493 600 476 600 c 2
 202 600 l 1
 202 408 l 1
 447 408 l 2
 464 408 471 397 471 369 c 2
 471 347 l 2
 471 320 464 308 447 308 c 2
 202 308 l 1
 202 100 l 1
 477 100 l 2
 494 100 501 88 501 61 c 2
 501 39 l 2
 501 12 494 0 477 0 c 2
 119 0 l 2
 95 0 85 10 85 34 c 2
 85 666 l 2
 85 690 95 700 119 700 c 2
 476 700 l 2
>>>>>>> FETCH_HEAD
EndSplineSet
Position2: "'cpsp' Capital Spacing lookup 1 subtable" dx=5 dy=0 dh=10 dv=0
EndChar

StartChar: Ecircumflex
Encoding: 202 202 17
Width: 546
Flags: MW
HStem: 0 100<107 477 202 477 202 477> 308 100<202 447 202 447> 600 100<202 476 202 202> 751 144<182.5 305 190 305 286 391 286 402>
VStem: 85 117<100 308 408 600>
LayerCount: 2
Back
Fore
SplineSet
305 895 m 2
 329 895 347 891 358 874 c 2
 418 780 l 2
 422 774 424 769 424 764 c 0
 424 756 417 751 402 751 c 2
 391 751 l 2
 371 751 354 756 343 769 c 2
 295 828 l 1
 249 769 l 2
 237 755 221 751 200 751 c 2
 190 751 l 2
 175 751 168 755 168 764 c 0
 168 768 170 774 174 780 c 2
 234 874 l 2
 244 891 263 895 286 895 c 2
 305 895 l 2
476 700 m 2
 493 700 500 688 500 661 c 2
 500 639 l 2
 500 612 493 600 476 600 c 2
 202 600 l 1
 202 408 l 1
 447 408 l 2
 464 408 471 397 471 369 c 2
 471 347 l 2
 471 320 464 308 447 308 c 2
 202 308 l 1
 202 100 l 1
 477 100 l 2
 494 100 501 88 501 61 c 2
 501 39 l 2
 501 12 494 0 477 0 c 2
 119 0 l 2
 95 0 85 10 85 34 c 2
 85 666 l 2
 85 690 95 700 119 700 c 2
 476 700 l 2
EndSplineSet
Position2: "'cpsp' Capital Spacing lookup 1 subtable" dx=5 dy=0 dh=10 dv=0
EndChar

StartChar: Edieresis
Encoding: 203 203 18
Width: 546
Flags: MW
HStem: 0 100<107 477 202 477 202 477> 308 100<202 447 202 447> 600 100<202 476 202 202> 771 108<199 233 359 393>
VStem: 85 117<100 308 408 600> 166 100<798 853 789.5 861> 326 100<798 853 789.5 861>
LayerCount: 2
Back
Fore
SplineSet
217 879 m 0xf6
 251 879 266 870 266 853 c 2
 266 798 l 2
 266 781 251 771 215 771 c 0
 181 771 166 781 166 798 c 2
 166 853 l 2
 166 869 181 879 217 879 c 0xf6
377 879 m 0
 411 879 426 870 426 853 c 2
 426 798 l 2
 426 781 411 771 375 771 c 0
 341 771 326 781 326 798 c 2
 326 853 l 2
 326 869 341 879 377 879 c 0
476 700 m 2
 493 700 500 688 500 661 c 2
 500 639 l 2
 500 612 493 600 476 600 c 2
 202 600 l 1
 202 408 l 1
 447 408 l 2
 464 408 471 397 471 369 c 2
 471 347 l 2
 471 320 464 308 447 308 c 2
 202 308 l 1
 202 100 l 1
 477 100 l 2
 494 100 501 88 501 61 c 2
 501 39 l 2
 501 12 494 0 477 0 c 2
 119 0 l 2
 95 0 85 10 85 34 c 2
 85 666 l 2
 85 690 95 700 119 700 c 2xea
 476 700 l 2
EndSplineSet
Position2: "'cpsp' Capital Spacing lookup 1 subtable" dx=5 dy=0 dh=10 dv=0
EndChar

StartChar: Egrave
Encoding: 200 200 19
Width: 546
Flags: MW
<<<<<<< HEAD
HStem: 0 100 307.99 100 599.99 100
VStem: 85 117
=======
HStem: 0 100<107 477 202 477 202 477> 308 100<202 447 202 447> 600 100<202 476 202 202>
VStem: 85 117<100 308 408 600>
>>>>>>> FETCH_HEAD
LayerCount: 2
Back
Fore
SplineSet
224 910 m 0
<<<<<<< HEAD
 260 910 285.000976562 902.990234375 296.000976562 882.990234375 c 0
 306.130859375 865.360351562 314.760742188 850.5 322.060546875 837.940429688 c 0
 347.870117188 793.490234375 356.990234375 777.790039062 356.990234375 769.990234375 c 0
 356.990234375 760.990234375 349.990234375 757.990234375 330.990234375 757.990234375 c 0
 297.990234375 757.990234375 279.990234375 766.990234375 268.990234375 778.990234375 c 0
 245.400390625 805.5 227.430664062 825.41015625 213.760742188 840.549804688 c 0
 175.860351562 882.530273438 171 887.91015625 171 896 c 0
 171 907 189 910 224 910 c 0
476.000976562 699.990234375 m 2
 493.000976562 699.990234375 500.000976562 687.990234375 500.000976562 660.990234375 c 2
 500.000976562 638.990234375 l 2
 500.000976562 611.990234375 493.000976562 599.990234375 476.000976562 599.990234375 c 2
 202.000976562 599.990234375 l 1
 202.000976562 407.990234375 l 1
 447.000976562 407.990234375 l 2
 464.000976562 407.990234375 471.000976562 396.990234375 471.000976562 368.990234375 c 2
 471.000976562 346.990234375 l 2
 471.000976562 319.990234375 464.000976562 307.990234375 447.000976562 307.990234375 c 2
 202.000976562 307.990234375 l 1
 202.000976562 99.990234375 l 1
 477.000976562 99.990234375 l 2
 494.000976562 99.990234375 501.000976562 87.990234375 501.000976562 60.990234375 c 2
 501.000976562 38.990234375 l 2
 501.000976562 11.990234375 494.000976562 -0.009765625 477.000976562 -0.009765625 c 2
 119.000976562 -0.009765625 l 2
 95.0009765625 -0.009765625 85.0009765625 9.990234375 85.0009765625 33.990234375 c 2
 85.0009765625 665.990234375 l 2
 85.0009765625 689.990234375 95.0009765625 699.990234375 119.000976562 699.990234375 c 2
 476.000976562 699.990234375 l 2
=======
 260 910 285 903 296 883 c 0
 342 803 357 780 357 770 c 0
 357 761 350 758 331 758 c 0
 298 758 280 767 269 779 c 0
 180 879 171 885 171 896 c 0
 171 907 189 910 224 910 c 0
476 700 m 2
 493 700 500 688 500 661 c 2
 500 639 l 2
 500 612 493 600 476 600 c 2
 202 600 l 1
 202 408 l 1
 447 408 l 2
 464 408 471 397 471 369 c 2
 471 347 l 2
 471 320 464 308 447 308 c 2
 202 308 l 1
 202 100 l 1
 477 100 l 2
 494 100 501 88 501 61 c 2
 501 39 l 2
 501 12 494 0 477 0 c 2
 119 0 l 2
 95 0 85 10 85 34 c 2
 85 666 l 2
 85 690 95 700 119 700 c 2
 476 700 l 2
>>>>>>> FETCH_HEAD
EndSplineSet
Position2: "'cpsp' Capital Spacing lookup 1 subtable" dx=5 dy=0 dh=10 dv=0
EndChar

StartChar: F
Encoding: 70 70 20
Width: 503
Flags: MW
<<<<<<< HEAD
HStem: 308 100<202 429 202 429> 600 100<202 443 202 202>
=======
HStem: -2 21G<117 134 134 153> 308 100<202 429 202 429> 600 100<202 443 202 202>
>>>>>>> FETCH_HEAD
VStem: 85 117<24 308 408 600>
LayerCount: 2
Back
Fore
SplineSet
443 700 m 2
 460 700 467 688 467 661 c 2
 467 639 l 2
 467 612 460 600 443 600 c 2
 202 600 l 1
 202 408 l 1
 429 408 l 2
 447 408 454 396 454 369 c 2
 454 347 l 2
 454 319 447 308 429 308 c 2
 202 308 l 1
 202 24 l 2
 202 7 187 -2 153 -2 c 2
 134 -2 l 2
 100 -2 85 7 85 24 c 2
 85 666 l 2
 85 690 95 700 119 700 c 2
 443 700 l 2
EndSplineSet
<<<<<<< HEAD
Substitution2: "'ss06' Style Set 6 lookup 12 subtable" six.ss01
=======
Substitution2: "'ss06' Style Set 6 lookup 13 subtable" six.ss01
>>>>>>> FETCH_HEAD
Substitution2: "'ss05' Style Set 5 lookup 11 subtable" F.ss05
Substitution2: "'ss04' Style Set 4 lookup 10 subtable" F.ss04
Substitution2: "'ss03' Style Set 3 lookup 9 subtable" F.ss03
Substitution2: "'ss02' Style Set 2 lookup 8 subtable" F.ss02
Substitution2: "'ss01' Style Set 1 lookup 7 subtable" F.ss01
Substitution2: "'salt' Stylistic Alternatives lookup 6 subtable" F.ss01
AlternateSubs2: "'aalt' Access All Alternates lookup 1 subtable" F.ss01 F.ss02 F.ss03 F.ss04 F.ss05
Position2: "'cpsp' Capital Spacing lookup 1 subtable" dx=5 dy=0 dh=10 dv=0
EndChar

StartChar: G
Encoding: 71 71 21
Width: 672
Flags: MW
<<<<<<< HEAD
HStem: -7 100<298 394 298 417.5> 273 100<367 563 376 480> 606 101<304.5 415.46>
=======
HStem: -7 100<298 394 298 417.5> 273 100<367 563 376 480> 606 101<304.5 427.5 273 428>
>>>>>>> FETCH_HEAD
VStem: 52 120<276 434 276 469.5> 480 117<104 273 273 273>
LayerCount: 2
Back
Fore
SplineSet
380 707 m 0
<<<<<<< HEAD
 475 707 580.999023438 675 580.999023438 641 c 0
 580.999023438 620 551.999023438 568 533.999023438 568 c 0
 530.869140625 568 525.409179688 570.58984375 517.349609375 574.419921875 c 0
 494.559570312 585.259765625 450.919921875 606 380 606 c 0
=======
 475 707 581 675 581 641 c 0
 581 620 552 568 534 568 c 0
 522 568 476 606 380 606 c 0
>>>>>>> FETCH_HEAD
 229 606 172 516 172 352 c 0
 172 200 223 93 373 93 c 0
 415 93 453 97 480 104 c 1
 480 273 l 1
 376 273 l 2
 358 273 351 284 351 312 c 2
 351 334 l 2
 351 362 358 373 376 373 c 2
 563 373 l 2
 587 373 597 363 597 339 c 2
 597 68 l 2
 597 7 465 -7 370 -7 c 0
 160 -7 52 106 52 347 c 0
 52 592 166 707 380 707 c 0
EndSplineSet
<<<<<<< HEAD
Substitution2: "'ss06' Style Set 6 lookup 12 subtable" seven.ss01
=======
Substitution2: "'ss06' Style Set 6 lookup 13 subtable" seven.ss01
>>>>>>> FETCH_HEAD
Substitution2: "'ss05' Style Set 5 lookup 11 subtable" G.ss05
Substitution2: "'ss04' Style Set 4 lookup 10 subtable" G.ss04
Substitution2: "'ss03' Style Set 3 lookup 9 subtable" G.ss03
Substitution2: "'ss02' Style Set 2 lookup 8 subtable" G.ss02
Substitution2: "'ss01' Style Set 1 lookup 7 subtable" G.ss01
Substitution2: "'salt' Stylistic Alternatives lookup 6 subtable" G.ss01
AlternateSubs2: "'aalt' Access All Alternates lookup 1 subtable" G.ss01 G.ss02 G.ss03 G.ss04 G.ss05
Position2: "'cpsp' Capital Spacing lookup 1 subtable" dx=5 dy=0 dh=10 dv=0
EndChar

StartChar: H
Encoding: 72 72 22
Width: 733
Flags: MW
<<<<<<< HEAD
HStem: 308 100<208 530 208 530>
=======
HStem: -2 21G<123 140 140 160 562 579 579 599> 308 100<208 530 208 530> 682 20G<140 160 160 177 579 599 599 616>
>>>>>>> FETCH_HEAD
VStem: 91 117<24 308 408 676> 530 117<24 308 308 308 408 676>
LayerCount: 2
Back
Fore
SplineSet
599 702 m 2
 633 702 647 693 647 676 c 2
 647 24 l 2
 647 7 633 -2 599 -2 c 2
 579 -2 l 2
 545 -2 530 7 530 24 c 2
 530 308 l 1
 208 308 l 1
 208 24 l 2
 208 7 194 -2 160 -2 c 2
 140 -2 l 2
 106 -2 91 7 91 24 c 2
 91 676 l 2
 91 693 106 702 140 702 c 2
 160 702 l 2
 194 702 208 693 208 676 c 2
 208 408 l 1
 530 408 l 1
 530 676 l 2
 530 693 545 702 579 702 c 2
 599 702 l 2
EndSplineSet
<<<<<<< HEAD
Substitution2: "'ss06' Style Set 6 lookup 12 subtable" eight.ss01
=======
Substitution2: "'ss06' Style Set 6 lookup 13 subtable" eight.ss01
>>>>>>> FETCH_HEAD
Substitution2: "'ss05' Style Set 5 lookup 11 subtable" H.ss05
Substitution2: "'ss04' Style Set 4 lookup 10 subtable" H.ss04
Substitution2: "'ss02' Style Set 2 lookup 8 subtable" H.ss02
Substitution2: "'ss01' Style Set 1 lookup 7 subtable" H.ss01
Substitution2: "'salt' Stylistic Alternatives lookup 6 subtable" H.ss01
AlternateSubs2: "'aalt' Access All Alternates lookup 1 subtable" H.ss01 H.ss02 H.ss04 H.ss05
Position2: "'cpsp' Capital Spacing lookup 1 subtable" dx=5 dy=0 dh=10 dv=0
EndChar

StartChar: I
Encoding: 73 73 23
Width: 282
Flags: MW
<<<<<<< HEAD
HStem: -2 704<114 151 131 151>
=======
HStem: -2 21G<114 131 131 151> 682 20G<131 151 151 168>
>>>>>>> FETCH_HEAD
VStem: 82 117<24 676>
LayerCount: 2
Back
Fore
SplineSet
151 702 m 2
 185 702 199 693 199 676 c 2
 199 24 l 2
 199 7 185 -2 151 -2 c 2
 131 -2 l 2
 97 -2 82 7 82 24 c 2
 82 676 l 2
 82 693 97 702 131 702 c 2
 151 702 l 2
EndSplineSet
<<<<<<< HEAD
Substitution2: "'ss06' Style Set 6 lookup 12 subtable" one.ss02
=======
Substitution2: "'ss06' Style Set 6 lookup 13 subtable" one.ss02
>>>>>>> FETCH_HEAD
Substitution2: "'ss05' Style Set 5 lookup 11 subtable" I.ss05
Substitution2: "'ss04' Style Set 4 lookup 10 subtable" I.ss04
Substitution2: "'ss02' Style Set 2 lookup 8 subtable" I.ss02
Substitution2: "'ss01' Style Set 1 lookup 7 subtable" I.ss01
Substitution2: "'salt' Stylistic Alternatives lookup 6 subtable" I.ss01
AlternateSubs2: "'aalt' Access All Alternates lookup 1 subtable" I.ss01 I.ss02 I.ss04 I.ss05
Position2: "'cpsp' Capital Spacing lookup 1 subtable" dx=5 dy=0 dh=10 dv=0
EndChar

StartChar: Iacute
Encoding: 205 205 24
Width: 282
Flags: MW
<<<<<<< HEAD
HStem: -2 912
VStem: 82.01 117
=======
HStem: -2 21G<114 131 131 151> 682 20G<131 151 151 168>
VStem: 82 117<24 676>
>>>>>>> FETCH_HEAD
LayerCount: 2
Back
Fore
SplineSet
221 910 m 0
<<<<<<< HEAD
 257 910 274.009765625 906.998046875 274.009765625 895.998046875 c 0
 274.009765625 887.23828125 268.939453125 881.658203125 221.529296875 829.358398438 c 0
 209.359375 815.928710938 194.389648438 799.428710938 176 778.999023438 c 0
 165 766.999023438 147 757.999023438 114 757.999023438 c 0
 95 757.999023438 88 760.999023438 88 769.999023438 c 0
 88 777.7890625 97.1201171875 793.489257812 122.940429688 837.939453125 c 0
 130.23046875 850.509765625 138.860351562 865.370117188 149 883 c 0
 160 903 186 910 221 910 c 0
151.009765625 701.998046875 m 2
 185.009765625 701.998046875 199.009765625 692.998046875 199.009765625 675.998046875 c 2
 199.009765625 23.998046875 l 2
 199.009765625 6.998046875 185.009765625 -2.001953125 151.009765625 -2.001953125 c 2
 131.009765625 -2.001953125 l 2
 97.009765625 -2.001953125 82.009765625 6.998046875 82.009765625 23.998046875 c 2
 82.009765625 675.998046875 l 2
 82.009765625 692.998046875 97.009765625 701.998046875 131.009765625 701.998046875 c 2
 151.009765625 701.998046875 l 2
=======
 257 910 274 907 274 896 c 0
 274 885 266 879 176 779 c 0
 165 767 147 758 114 758 c 0
 95 758 88 761 88 770 c 0
 88 780 103 803 149 883 c 0
 160 903 186 910 221 910 c 0
151 702 m 2
 185 702 199 693 199 676 c 2
 199 24 l 2
 199 7 185 -2 151 -2 c 2
 131 -2 l 2
 97 -2 82 7 82 24 c 2
 82 676 l 2
 82 693 97 702 131 702 c 2
 151 702 l 2
>>>>>>> FETCH_HEAD
EndSplineSet
Position2: "'cpsp' Capital Spacing lookup 1 subtable" dx=5 dy=0 dh=10 dv=0
EndChar

StartChar: Icircumflex
Encoding: 206 206 25
Width: 282
Flags: MW
<<<<<<< HEAD
HStem: 751 144<27.5 150 35 150 131 236 131 247>
=======
HStem: -2 21G<114 131 131 151> 682 20G<131 151 151 168> 751 144<27.5 150 35 150 131 236 131 247>
>>>>>>> FETCH_HEAD
VStem: 82 117<24 676>
LayerCount: 2
Back
Fore
SplineSet
150 895 m 2
 174 895 192 891 203 874 c 2
 263 780 l 2
 267 774 269 769 269 764 c 0
 269 756 262 751 247 751 c 2
 236 751 l 2
 216 751 199 756 188 769 c 2
 140 828 l 1
 94 769 l 2
 82 755 66 751 45 751 c 2
 35 751 l 2
 20 751 13 755 13 764 c 0
 13 768 15 774 19 780 c 2
 79 874 l 2
 89 891 108 895 131 895 c 2
 150 895 l 2
151 702 m 2
 185 702 199 693 199 676 c 2
 199 24 l 2
 199 7 185 -2 151 -2 c 2
 131 -2 l 2
 97 -2 82 7 82 24 c 2
 82 676 l 2
 82 693 97 702 131 702 c 2
 151 702 l 2
EndSplineSet
Position2: "'cpsp' Capital Spacing lookup 1 subtable" dx=5 dy=0 dh=10 dv=0
EndChar

StartChar: Idieresis
Encoding: 207 207 26
Width: 282
Flags: MW
<<<<<<< HEAD
HStem: 771 108<44 78 204 238>
=======
HStem: -2 21G<114 131 131 151> 682 20G<131 151 151 168> 771 108<44 78 204 238>
>>>>>>> FETCH_HEAD
VStem: 11 100<798 853 789.5 861> 82 117<24 676> 171 100<798 853 789.5 861>
LayerCount: 2
Back
Fore
SplineSet
<<<<<<< HEAD
62 879 m 0xd0
=======
62 879 m 0xf4
>>>>>>> FETCH_HEAD
 96 879 111 870 111 853 c 2
 111 798 l 2
 111 781 96 771 60 771 c 0
 26 771 11 781 11 798 c 2
 11 853 l 2
<<<<<<< HEAD
 11 869 26 879 62 879 c 0xd0
=======
 11 869 26 879 62 879 c 0xf4
>>>>>>> FETCH_HEAD
222 879 m 0
 256 879 271 870 271 853 c 2
 271 798 l 2
 271 781 256 771 220 771 c 0
 186 771 171 781 171 798 c 2
 171 853 l 2
 171 869 186 879 222 879 c 0
<<<<<<< HEAD
151 702 m 2xa0
=======
151 702 m 2xe8
>>>>>>> FETCH_HEAD
 185 702 199 693 199 676 c 2
 199 24 l 2
 199 7 185 -2 151 -2 c 2
 131 -2 l 2
 97 -2 82 7 82 24 c 2
 82 676 l 2
 82 693 97 702 131 702 c 2
<<<<<<< HEAD
 151 702 l 2xa0
=======
 151 702 l 2xe8
>>>>>>> FETCH_HEAD
EndSplineSet
Position2: "'cpsp' Capital Spacing lookup 1 subtable" dx=5 dy=0 dh=10 dv=0
EndChar

StartChar: Igrave
Encoding: 204 204 27
Width: 282
Flags: MW
<<<<<<< HEAD
HStem: -2 912.01
VStem: 82 117
=======
HStem: -2 21G<114 131 131 151> 682 20G<131 151 151 168>
VStem: 82 117<24 676>
>>>>>>> FETCH_HEAD
LayerCount: 2
Back
Fore
SplineSet
69 910 m 0
<<<<<<< HEAD
 105 910 130.000976562 902.990234375 141.000976562 882.990234375 c 0
 151.130859375 865.360351562 159.760742188 850.5 167.060546875 837.940429688 c 0
 192.870117188 793.490234375 201.990234375 777.790039062 201.990234375 769.990234375 c 0
 201.990234375 760.990234375 194.990234375 757.990234375 175.990234375 757.990234375 c 0
 142.990234375 757.990234375 124.990234375 766.990234375 113.990234375 778.990234375 c 0
 90.400390625 805.5 72.4306640625 825.41015625 58.7607421875 840.549804688 c 0
 20.8603515625 882.530273438 16 887.91015625 16 896 c 0
 16 907 34 910 69 910 c 0
151.000976562 701.990234375 m 2
 185.000976562 701.990234375 199.000976562 692.990234375 199.000976562 675.990234375 c 2
 199.000976562 23.990234375 l 2
 199.000976562 6.990234375 185.000976562 -2.009765625 151.000976562 -2.009765625 c 2
 131.000976562 -2.009765625 l 2
 97.0009765625 -2.009765625 82.0009765625 6.990234375 82.0009765625 23.990234375 c 2
 82.0009765625 675.990234375 l 2
 82.0009765625 692.990234375 97.0009765625 701.990234375 131.000976562 701.990234375 c 2
 151.000976562 701.990234375 l 2
=======
 105 910 130 903 141 883 c 0
 187 803 202 780 202 770 c 0
 202 761 195 758 176 758 c 0
 143 758 125 767 114 779 c 0
 25 879 16 885 16 896 c 0
 16 907 34 910 69 910 c 0
151 702 m 2
 185 702 199 693 199 676 c 2
 199 24 l 2
 199 7 185 -2 151 -2 c 2
 131 -2 l 2
 97 -2 82 7 82 24 c 2
 82 676 l 2
 82 693 97 702 131 702 c 2
 151 702 l 2
>>>>>>> FETCH_HEAD
EndSplineSet
Position2: "'cpsp' Capital Spacing lookup 1 subtable" dx=5 dy=0 dh=10 dv=0
EndChar

StartChar: J
Encoding: 74 74 28
Width: 402
Flags: MW
<<<<<<< HEAD
HStem: -7 101<97.999 134 82.5449 189.999>
VStem: 209 117
=======
HStem: -7 101<98 134 77 190> 682 20G<258 277 277 294>
VStem: 209 117<209 676>
>>>>>>> FETCH_HEAD
LayerCount: 2
Back
Fore
SplineSet
277 702 m 2
<<<<<<< HEAD
 311 702 325.999023438 693 325.999023438 676 c 2
 325.999023438 204 l 2
 325.999023438 77 265.999023438 -7 113.999023438 -7 c 0
 81.9990234375 -7 2.9990234375 -3 2.9990234375 31 c 0
 2.9990234375 41 10.9990234375 102 32.9990234375 103 c 0
 36.119140625 103 40.439453125 101.919921875 46.0791015625 100.509765625 c 0
 56.7294921875 97.83984375 72.08984375 94 93 94 c 0
=======
 311 702 326 693 326 676 c 2
 326 204 l 2
 326 77 266 -7 114 -7 c 0
 82 -7 3 -3 3 31 c 0
 3 41 11 102 33 103 c 0
 42 103 61 94 93 94 c 0
>>>>>>> FETCH_HEAD
 175 94 209 129 209 209 c 2
 209 676 l 2
 209 693 223 702 258 702 c 2
 277 702 l 2
EndSplineSet
<<<<<<< HEAD
Substitution2: "'ss06' Style Set 6 lookup 12 subtable" two.ss02
=======
Substitution2: "'ss06' Style Set 6 lookup 13 subtable" two.ss02
>>>>>>> FETCH_HEAD
Substitution2: "'ss05' Style Set 5 lookup 11 subtable" J.ss05
Substitution2: "'ss04' Style Set 4 lookup 10 subtable" J.ss04
Substitution2: "'ss02' Style Set 2 lookup 8 subtable" J.ss02
Substitution2: "'ss01' Style Set 1 lookup 7 subtable" J.ss01
Substitution2: "'salt' Stylistic Alternatives lookup 6 subtable" J.ss01
AlternateSubs2: "'aalt' Access All Alternates lookup 1 subtable" J.ss01 J.ss02 J.ss04 J.ss05
Position2: "'cpsp' Capital Spacing lookup 1 subtable" dx=5 dy=0 dh=10 dv=0
EndChar

StartChar: K
Encoding: 75 75 29
Width: 576
Flags: MW
<<<<<<< HEAD
HStem: -2 704<117 154 134 154 494.5 504 504 507 507 519 134 539>
=======
HStem: -2 21G<117 134 134 154 494.5 507 507 539> 682 20G<134 154 154 171 477 504 504 519>
>>>>>>> FETCH_HEAD
VStem: 85 117<24 327 386 676>
LayerCount: 2
Back
Fore
SplineSet
504 702 m 2
 534 702 548 696 548 688 c 0
 548 683 545 676 539 668 c 2
 313 363 l 1
 580 31 l 2
 586 22 588 17 588 12 c 0
 588 2 574 -2 539 -2 c 2
 507 -2 l 2
 482 -2 460 0 449 14 c 2
 206 328 l 1
 202 327 l 1
 202 24 l 2
 202 7 188 -2 154 -2 c 2
 134 -2 l 2
 100 -2 85 7 85 24 c 2
 85 676 l 2
 85 693 100 702 134 702 c 2
 154 702 l 2
 188 702 202 693 202 676 c 2
 202 386 l 1
 206 386 l 1
 421 686 l 2
 430 699 452 702 477 702 c 2
 504 702 l 2
EndSplineSet
<<<<<<< HEAD
Substitution2: "'ss06' Style Set 6 lookup 12 subtable" three.ss02
=======
Substitution2: "'ss06' Style Set 6 lookup 13 subtable" three.ss02
>>>>>>> FETCH_HEAD
Substitution2: "'ss04' Style Set 4 lookup 10 subtable" K.ss04
Substitution2: "'ss02' Style Set 2 lookup 8 subtable" K.ss02
Substitution2: "'ss01' Style Set 1 lookup 7 subtable" K.ss01
Substitution2: "'salt' Stylistic Alternatives lookup 6 subtable" K.ss01
AlternateSubs2: "'aalt' Access All Alternates lookup 1 subtable" K.ss01 K.ss02 K.ss04
Position2: "'cpsp' Capital Spacing lookup 1 subtable" dx=5 dy=0 dh=10 dv=0
EndChar

StartChar: L
Encoding: 76 76 30
Width: 484
Flags: MW
<<<<<<< HEAD
HStem: 0 100<107 454 202 454 202 454>
=======
HStem: 0 100<107 454 202 454 202 454> 682 20G<134 153 153 170>
>>>>>>> FETCH_HEAD
VStem: 85 117<100 676 100 676 100 684.5>
LayerCount: 2
Back
Fore
SplineSet
153 702 m 2
 187 702 202 693 202 676 c 2
 202 100 l 1
 454 100 l 2
 471 100 478 88 478 61 c 2
 478 39 l 2
 478 12 471 0 454 0 c 2
 119 0 l 2
 95 0 85 10 85 34 c 2
 85 676 l 2
 85 693 100 702 134 702 c 2
 153 702 l 2
EndSplineSet
<<<<<<< HEAD
Substitution2: "'ss06' Style Set 6 lookup 12 subtable" four.ss02
=======
Substitution2: "'ss06' Style Set 6 lookup 13 subtable" four.ss02
>>>>>>> FETCH_HEAD
Substitution2: "'ss04' Style Set 4 lookup 10 subtable" L.ss04
Substitution2: "'ss01' Style Set 1 lookup 7 subtable" L.ss01
Substitution2: "'salt' Stylistic Alternatives lookup 6 subtable" L.ss01
AlternateSubs2: "'aalt' Access All Alternates lookup 1 subtable" L.ss01 L.ss04
Position2: "'cpsp' Capital Spacing lookup 1 subtable" dx=5 dy=0 dh=10 dv=0
EndChar

StartChar: Lslash
Encoding: 321 321 31
Width: 486
Flags: MW
<<<<<<< HEAD
HStem: 0 100<101 457 195 457 195 457>
=======
HStem: 0 100<101 457 195 457 195 457> 503 20G<304.5 309> 682 20G<127 147 147 164>
>>>>>>> FETCH_HEAD
VStem: 79 116<100 327 327 327 388 398 459 676>
LayerCount: 2
Back
Fore
SplineSet
147 702 m 2
 181 702 195 693 195 676 c 2
 195 459 l 1
 294 518 l 2
 299 521 303 523 306 523 c 0
 312 523 316 517 316 507 c 2
 316 495 l 2
 316 478 309 466 294 458 c 2
 195 398 l 1
 195 100 l 1
 457 100 l 2
 474 100 481 88 481 61 c 2
 481 39 l 2
 481 12 474 0 457 0 c 2
 113 0 l 2
 89 0 79 10 79 34 c 2
 79 327 l 1
 32 300 l 2
 27 296 23 295 20 295 c 0
 14 295 10 301 10 312 c 2
 10 324 l 2
 10 341 17 352 32 361 c 2
 79 388 l 1
 79 676 l 2
 79 693 93 702 127 702 c 2
 147 702 l 2
EndSplineSet
Position2: "'cpsp' Capital Spacing lookup 1 subtable" dx=5 dy=0 dh=10 dv=0
EndChar

StartChar: M
Encoding: 77 77 32
Width: 843
Flags: MW
<<<<<<< HEAD
HStem: -2 704<113 173 130 146 680 697 697 714>
=======
HStem: -2 21G<113 130 130 146 680 697 697 714> 682 20G<130 173 173 186 672 714 714 731>
>>>>>>> FETCH_HEAD
VStem: 81 114<24 512> 648 114<24 508 508 508>
LayerCount: 2
Back
Fore
SplineSet
714 702 m 2
 748 702 762 693 762 676 c 2
 762 24 l 2
 762 7 748 -2 714 -2 c 2
 697 -2 l 2
 663 -2 648 7 648 24 c 2
 648 508 l 1
 645 506 l 1
 470 198 l 2
 463 188 455 183 440 183 c 2
 405 183 l 2
 391 183 382 188 375 198 c 2
 198 510 l 1
 195 512 l 1
 195 24 l 2
 195 7 180 -2 146 -2 c 2
 130 -2 l 2
 96 -2 81 7 81 24 c 2
 81 676 l 2
 81 693 96 702 130 702 c 2
 173 702 l 2
 199 702 216 695 224 680 c 2
 404 365 l 1
 422 323 l 1
 441 363 l 1
 621 680 l 2
 629 695 646 702 672 702 c 2
 714 702 l 2
EndSplineSet
<<<<<<< HEAD
Substitution2: "'ss06' Style Set 6 lookup 12 subtable" five.ss02
=======
Substitution2: "'ss06' Style Set 6 lookup 13 subtable" five.ss02
>>>>>>> FETCH_HEAD
Substitution2: "'ss04' Style Set 4 lookup 10 subtable" M.ss04
Substitution2: "'ss01' Style Set 1 lookup 7 subtable" M.ss01
Substitution2: "'salt' Stylistic Alternatives lookup 6 subtable" M.ss01
AlternateSubs2: "'aalt' Access All Alternates lookup 1 subtable" M.ss01 M.ss04
Position2: "'cpsp' Capital Spacing lookup 1 subtable" dx=5 dy=0 dh=10 dv=0
EndChar

StartChar: N
Encoding: 78 78 33
Width: 719
Flags: MW
<<<<<<< HEAD
HStem: -2 704<113 160 130 146 130 562 573 590 130 590>
=======
HStem: -2 21G<113 130 130 146 550 562 562 590> 682 20G<130 160 160 172.5 573 590 590 607>
>>>>>>> FETCH_HEAD
VStem: 81 114<24 506> 524 114<200 676>
LayerCount: 2
Back
Fore
SplineSet
590 702 m 2
 624 702 638 693 638 676 c 2
 638 24 l 2
 638 7 624 -2 590 -2 c 2
 562 -2 l 2
 538 -2 523 3 513 18 c 2
 219 463 l 1
 195 506 l 1
 195 24 l 2
 195 7 180 -2 146 -2 c 2
 130 -2 l 2
 96 -2 81 7 81 24 c 2
 81 676 l 2
 81 693 96 702 130 702 c 2
 160 702 l 2
 185 702 201 697 213 680 c 2
 496 249 l 1
 524 200 l 1
 524 676 l 2
 524 693 539 702 573 702 c 2
 590 702 l 2
EndSplineSet
<<<<<<< HEAD
Substitution2: "'ss06' Style Set 6 lookup 12 subtable" six.ss02
Substitution2: "'ss01' Style Set 1 lookup 7 subtable" N.ss01
Substitution2: "'salt' Stylistic Alternatives lookup 6 subtable" N.ss01
Substitution2: "'aalt' Access All Alternates lookup 0 subtable" N.ss01
=======
Substitution2: "'ss06' Style Set 6 lookup 13 subtable" six.ss02
Substitution2: "'ss04' Style Set 4 lookup 10 subtable" N.ss04
Substitution2: "'ss01' Style Set 1 lookup 7 subtable" N.ss01
Substitution2: "'salt' Stylistic Alternatives lookup 6 subtable" N.ss01
AlternateSubs2: "'aalt' Access All Alternates lookup 1 subtable" N.ss01 N.ss04
>>>>>>> FETCH_HEAD
Position2: "'cpsp' Capital Spacing lookup 1 subtable" dx=5 dy=0 dh=10 dv=0
EndChar

StartChar: Ntilde
Encoding: 209 209 34
Width: 719
Flags: MW
<<<<<<< HEAD
HStem: 763 63<422.255 438 422.255 451.001> 808 63<279.99 291.82>
VStem: 81.01 114 524.01 114
=======
HStem: -2 21G<113 130 130 146 550 562 562 590> 682 20G<130 160 160 172.5 573 590 590 607> 763 63<417.5 438 417.5 451> 808 63<280 300>
VStem: 81 114<24 506> 524 114<200 676>
>>>>>>> FETCH_HEAD
LayerCount: 2
Back
Fore
SplineSet
<<<<<<< HEAD
431 826 m 0xb0
 445 826 453.008789062 837 466.008789062 858 c 0
 472.668945312 868.66015625 476.668945312 872.66015625 482.149414062 872.66015625 c 0
 484.889648438 872.66015625 488 871.66015625 492 870 c 2
 514 861 l 2
 520.5703125 858.009765625 523.220703125 854.309570312 523.220703125 849.049804688 c 0
 523.220703125 845.5 522.010742188 841.240234375 520.000976562 836 c 0
 501.000976562 783 469.000976562 763 433.000976562 763 c 0xb0
 400.901367188 763 365.731445312 778.330078125 336.451171875 791.08984375 c 0
 315.55078125 800.200195312 297.650390625 808 285.990234375 808 c 0
 273.990234375 808 263.990234375 798 250.990234375 776 c 0
 244.73046875 765.41015625 240.5703125 761.379882812 234.900390625 761.379882812 c 0
 232.110351562 761.379882812 228.950195312 762.349609375 224.990234375 764 c 2
 202.990234375 773 l 2
 196.419921875 775.990234375 193.780273438 779.690429688 193.780273438 784.950195312 c 0
 193.780273438 788.5 194.98046875 792.759765625 197 798 c 0
 218 856 253 871 284 871 c 0x70
 302.6796875 871 323.099609375 865.41015625 342.889648438 858.169921875 c 0
 379.259765625 844.870117188 413.509765625 826 431 826 c 0xb0
590.008789062 702 m 2
 624.008789062 702 638.008789062 693 638.008789062 676 c 2
 638.008789062 24 l 2
 638.008789062 7 624.008789062 -2 590.008789062 -2 c 2
 562.008789062 -2 l 2
 538.008789062 -2 523.008789062 3 513.008789062 18 c 2
 219.008789062 463 l 1
 195.008789062 506 l 1
 195.008789062 24 l 2
 195.008789062 7 180.008789062 -2 146.008789062 -2 c 2
 130.008789062 -2 l 2
 96.0087890625 -2 81.0087890625 7 81.0087890625 24 c 2
 81.0087890625 676 l 2
 81.0087890625 693 96.0087890625 702 130.008789062 702 c 2
 160.008789062 702 l 2
 185.008789062 702 201.008789062 697 213.008789062 680 c 2
 496.008789062 249 l 1
 524.008789062 200 l 1
 524.008789062 676 l 2
 524.008789062 693 539.008789062 702 573.008789062 702 c 2
 590.008789062 702 l 2
=======
431 826 m 0xec
 445 826 453 837 466 858 c 0
 476 874 480 875 492 870 c 2
 514 861 l 2
 525 856 525 849 520 836 c 0
 501 783 469 763 433 763 c 0xec
 378 763 314 808 286 808 c 0
 274 808 264 798 251 776 c 0
 241.66015625 760.190429688 237 759 225 764 c 2
 203 773 l 2
 192 778 192 785 197 798 c 0
 218 856 253 871 284 871 c 0xdc
 337 871 404 826 431 826 c 0xec
590 702 m 2
 624 702 638 693 638 676 c 2
 638 24 l 2
 638 7 624 -2 590 -2 c 2
 562 -2 l 2
 538 -2 523 3 513 18 c 2
 219 463 l 1
 195 506 l 1
 195 24 l 2
 195 7 180 -2 146 -2 c 2
 130 -2 l 2
 96 -2 81 7 81 24 c 2
 81 676 l 2
 81 693 96 702 130 702 c 2
 160 702 l 2
 185 702 201 697 213 680 c 2
 496 249 l 1
 524 200 l 1
 524 676 l 2
 524 693 539 702 573 702 c 2
 590 702 l 2
>>>>>>> FETCH_HEAD
EndSplineSet
Position2: "'cpsp' Capital Spacing lookup 1 subtable" dx=5 dy=0 dh=10 dv=0
EndChar

StartChar: O
Encoding: 79 79 35
Width: 731
Flags: MW
HStem: -7 100<302 428.5 302 467.5> 606 101<302 428.5>
VStem: 52 120<267 435 267 467.5> 559 120<267 435>
LayerCount: 2
Back
Fore
SplineSet
366 707 m 0
 569 707 679 584 679 351 c 0
 679 118 569 -7 366 -7 c 0
 163 -7 52 118 52 351 c 0
 52 584 163 707 366 707 c 0
365 606 m 0
 239 606 172 519 172 351 c 0
 172 183 239 93 365 93 c 0
 492 93 559 183 559 351 c 0
 559 519 492 606 365 606 c 0
EndSplineSet
<<<<<<< HEAD
Substitution2: "Single Substitution lookup 13 subtable" ordmasculine
Substitution2: "'ss06' Style Set 6 lookup 12 subtable" seven.ss02
Substitution2: "'ss05' Style Set 5 lookup 11 subtable" O.ss05
Substitution2: "'ss04' Style Set 4 lookup 10 subtable" O.ss04
Substitution2: "'ss01' Style Set 1 lookup 7 subtable" O.ss01
Substitution2: "'salt' Stylistic Alternatives lookup 6 subtable" O.ss01
AlternateSubs2: "'aalt' Access All Alternates lookup 1 subtable" ordmasculine O.ss01 O.ss04 O.ss05
=======
Substitution2: "Single Substitution lookup 14 subtable" ordmasculine
Substitution2: "'ss06' Style Set 6 lookup 13 subtable" seven.ss02
Substitution2: "'ss04' Style Set 4 lookup 10 subtable" O.ss04
Substitution2: "'ss01' Style Set 1 lookup 7 subtable" O.ss01
Substitution2: "'salt' Stylistic Alternatives lookup 6 subtable" O.ss01
AlternateSubs2: "'aalt' Access All Alternates lookup 1 subtable" ordmasculine O.ss01 O.ss04
>>>>>>> FETCH_HEAD
Position2: "'cpsp' Capital Spacing lookup 1 subtable" dx=5 dy=0 dh=10 dv=0
EndChar

StartChar: Oacute
Encoding: 211 211 36
Width: 731
Flags: MW
<<<<<<< HEAD
HStem: -7 100 606 101
VStem: 52 120 559.01 120
=======
HStem: -7 100<302 428.5 302 467.5> 606 101<302 428.5>
VStem: 52 120<267 435 267 467.5> 559 120<267 435>
>>>>>>> FETCH_HEAD
LayerCount: 2
Back
Fore
SplineSet
446 910 m 0
<<<<<<< HEAD
 482 910 499.009765625 906.998046875 499.009765625 895.998046875 c 0
 499.009765625 887.23828125 493.939453125 881.658203125 446.529296875 829.358398438 c 0
 434.359375 815.928710938 419.389648438 799.428710938 401 778.999023438 c 0
 390 766.999023438 372 757.999023438 339 757.999023438 c 0
 320 757.999023438 313 760.999023438 313 769.999023438 c 0
 313 777.7890625 322.120117188 793.489257812 347.940429688 837.939453125 c 0
 355.23046875 850.509765625 363.860351562 865.370117188 374 883 c 0
 385 903 411 910 446 910 c 0
366.009765625 706.998046875 m 0
 569.009765625 706.998046875 679.009765625 583.998046875 679.009765625 350.998046875 c 0
 679.009765625 117.998046875 569.009765625 -7.001953125 366.009765625 -7.001953125 c 0
 163.009765625 -7.001953125 52.009765625 117.998046875 52.009765625 350.998046875 c 0
 52.009765625 583.998046875 163.009765625 706.998046875 366.009765625 706.998046875 c 0
365.009765625 605.998046875 m 0
 239.009765625 605.998046875 172.009765625 518.998046875 172.009765625 350.998046875 c 0
 172.009765625 182.998046875 239.009765625 92.998046875 365.009765625 92.998046875 c 0
 492.009765625 92.998046875 559.009765625 182.998046875 559.009765625 350.998046875 c 0
 559.009765625 518.998046875 492.009765625 605.998046875 365.009765625 605.998046875 c 0
=======
 482 910 499 907 499 896 c 0
 499 885 491 879 401 779 c 0
 390 767 372 758 339 758 c 0
 320 758 313 761 313 770 c 0
 313 780 328 803 374 883 c 0
 385 903 411 910 446 910 c 0
366 707 m 0
 569 707 679 584 679 351 c 0
 679 118 569 -7 366 -7 c 0
 163 -7 52 118 52 351 c 0
 52 584 163 707 366 707 c 0
365 606 m 0
 239 606 172 519 172 351 c 0
 172 183 239 93 365 93 c 0
 492 93 559 183 559 351 c 0
 559 519 492 606 365 606 c 0
>>>>>>> FETCH_HEAD
EndSplineSet
Position2: "'cpsp' Capital Spacing lookup 1 subtable" dx=5 dy=0 dh=10 dv=0
EndChar

StartChar: Ocircumflex
Encoding: 212 212 37
Width: 731
Flags: MW
HStem: -7 100<302 428.5 302 467.5> 606 101<302 428.5> 751 144<252.5 375 260 375 356 461 356 472>
VStem: 52 120<267 435 267 467.5> 559 120<267 435>
LayerCount: 2
Back
Fore
SplineSet
375 895 m 2
 399 895 417 891 428 874 c 2
 488 780 l 2
 492 774 494 769 494 764 c 0
 494 756 487 751 472 751 c 2
 461 751 l 2
 441 751 424 756 413 769 c 2
 365 828 l 1
 319 769 l 2
 307 755 291 751 270 751 c 2
 260 751 l 2
 245 751 238 755 238 764 c 0
 238 768 240 774 244 780 c 2
 304 874 l 2
 314 891 333 895 356 895 c 2
 375 895 l 2
366 707 m 0
 569 707 679 584 679 351 c 0
 679 118 569 -7 366 -7 c 0
 163 -7 52 118 52 351 c 0
 52 584 163 707 366 707 c 0
365 606 m 0
 239 606 172 519 172 351 c 0
 172 183 239 93 365 93 c 0
 492 93 559 183 559 351 c 0
 559 519 492 606 365 606 c 0
EndSplineSet
Position2: "'cpsp' Capital Spacing lookup 1 subtable" dx=5 dy=0 dh=10 dv=0
EndChar

StartChar: Odieresis
Encoding: 214 214 38
Width: 731
Flags: MW
HStem: -7 100<302 428.5 302 467.5> 606 101<302 428.5> 771 108<269 303 429 463>
VStem: 52 120<267 435 267 467.5> 236 100<798 853 789.5 861> 396 100<798 853 789.5 861> 559 120<267 435>
LayerCount: 2
Back
Fore
SplineSet
287 879 m 0
 321 879 336 870 336 853 c 2
 336 798 l 2
 336 781 321 771 285 771 c 0
 251 771 236 781 236 798 c 2
 236 853 l 2
 236 869 251 879 287 879 c 0
447 879 m 0
 481 879 496 870 496 853 c 2
 496 798 l 2
 496 781 481 771 445 771 c 0
 411 771 396 781 396 798 c 2
 396 853 l 2
 396 869 411 879 447 879 c 0
366 707 m 0
 569 707 679 584 679 351 c 0
 679 118 569 -7 366 -7 c 0
 163 -7 52 118 52 351 c 0
 52 584 163 707 366 707 c 0
365 606 m 0
 239 606 172 519 172 351 c 0
 172 183 239 93 365 93 c 0
 492 93 559 183 559 351 c 0
 559 519 492 606 365 606 c 0
EndSplineSet
Position2: "'cpsp' Capital Spacing lookup 1 subtable" dx=5 dy=0 dh=10 dv=0
EndChar

StartChar: Ograve
Encoding: 210 210 39
Width: 731
Flags: MW
<<<<<<< HEAD
HStem: -7.00999 100 605.99 101
VStem: 52 120 559 120
=======
HStem: -7 100<302 428.5 302 467.5> 606 101<302 428.5>
VStem: 52 120<267 435 267 467.5> 559 120<267 435>
>>>>>>> FETCH_HEAD
LayerCount: 2
Back
Fore
SplineSet
294 910 m 0
<<<<<<< HEAD
 330 910 355.000976562 902.990234375 366.000976562 882.990234375 c 0
 376.130859375 865.360351562 384.760742188 850.5 392.060546875 837.940429688 c 0
 417.870117188 793.490234375 426.990234375 777.790039062 426.990234375 769.990234375 c 0
 426.990234375 760.990234375 419.990234375 757.990234375 400.990234375 757.990234375 c 0
 367.990234375 757.990234375 349.990234375 766.990234375 338.990234375 778.990234375 c 0
 315.400390625 805.5 297.430664062 825.41015625 283.760742188 840.549804688 c 0
 245.860351562 882.530273438 241 887.91015625 241 896 c 0
 241 907 259 910 294 910 c 0
366.000976562 706.990234375 m 0
 569.000976562 706.990234375 679.000976562 583.990234375 679.000976562 350.990234375 c 0
 679.000976562 117.990234375 569.000976562 -7.009765625 366.000976562 -7.009765625 c 0
 163.000976562 -7.009765625 52.0009765625 117.990234375 52.0009765625 350.990234375 c 0
 52.0009765625 583.990234375 163.000976562 706.990234375 366.000976562 706.990234375 c 0
365.000976562 605.990234375 m 0
 239.000976562 605.990234375 172.000976562 518.990234375 172.000976562 350.990234375 c 0
 172.000976562 182.990234375 239.000976562 92.990234375 365.000976562 92.990234375 c 0
 492.000976562 92.990234375 559.000976562 182.990234375 559.000976562 350.990234375 c 0
 559.000976562 518.990234375 492.000976562 605.990234375 365.000976562 605.990234375 c 0
=======
 330 910 355 903 366 883 c 0
 412 803 427 780 427 770 c 0
 427 761 420 758 401 758 c 0
 368 758 350 767 339 779 c 0
 250 879 241 885 241 896 c 0
 241 907 259 910 294 910 c 0
366 707 m 0
 569 707 679 584 679 351 c 0
 679 118 569 -7 366 -7 c 0
 163 -7 52 118 52 351 c 0
 52 584 163 707 366 707 c 0
365 606 m 0
 239 606 172 519 172 351 c 0
 172 183 239 93 365 93 c 0
 492 93 559 183 559 351 c 0
 559 519 492 606 365 606 c 0
>>>>>>> FETCH_HEAD
EndSplineSet
Position2: "'cpsp' Capital Spacing lookup 1 subtable" dx=5 dy=0 dh=10 dv=0
EndChar

StartChar: Oslash
Encoding: 216 216 40
Width: 731
Flags: MW
HStem: -7 100<333.5 429 333.5 466.5> 606 101<302 392.5>
VStem: 51 121<325 435 325 467.5> 559 120<267 383.5>
LayerCount: 2
Back
Fore
SplineSet
365 707 m 0
 450 707 519 684 570 642 c 1
 623 702 l 2
 629 709 635 712 641 712 c 0
 653 712 674 693 674 680 c 0
 674 675 672 670 666 664 c 2
 610 601 l 1
 655 542 679 458 679 351 c 0
 679 118 568 -7 365 -7 c 0
 268 -7 193 21 141 76 c 1
 78 6 l 2
 72 -1 66 -5 60 -5 c 0
 48 -5 27 14 27 27 c 0
 27 32 29 38 35 44 c 2
 105 122 l 1
 69 180 51 256 51 351 c 0
 51 584 162 707 365 707 c 0
365 606 m 0
 239 606 172 519 172 351 c 0
 172 299 179 255 192 219 c 1
 495 558 l 1
 463 590 420 606 365 606 c 0
<<<<<<< HEAD
219 163 m 1
 251 117 301 93 366 93 c 0
 492 93 559 183 559 351 c 0
 559 416 548 469 528 509 c 1
 219 163 l 1
=======
528 509 m 1
 219 163 l 1
 251 117 301 93 366 93 c 0
 492 93 559 183 559 351 c 0
 559 416 548 469 528 509 c 1
>>>>>>> FETCH_HEAD
EndSplineSet
Position2: "'cpsp' Capital Spacing lookup 1 subtable" dx=5 dy=0 dh=10 dv=0
EndChar

StartChar: Otilde
Encoding: 213 213 41
Width: 731
Flags: MW
<<<<<<< HEAD
HStem: -7 100<302.009 428.509 302.009 467.509> 606 101<302.009 428.509> 763 63<428.255 444 428.255 457.001> 808 63<285.99 297.82>
VStem: 52 120 559.01 120
=======
HStem: -7 100<302 428.5 302 467.5> 606 101<302 428.5> 763 63<423.5 444 423.5 457> 808 63<286 306>
VStem: 52 120<267 435 267 467.5> 559 120<267 435>
>>>>>>> FETCH_HEAD
LayerCount: 2
Back
Fore
SplineSet
437 826 m 0xec
<<<<<<< HEAD
 451 826 459.008789062 837 472.008789062 858 c 0
 478.668945312 868.66015625 482.668945312 872.66015625 488.149414062 872.66015625 c 0
 490.889648438 872.66015625 494 871.66015625 498 870 c 2
 520 861 l 2
 526.5703125 858.009765625 529.220703125 854.309570312 529.220703125 849.049804688 c 0
 529.220703125 845.5 528.010742188 841.240234375 526.000976562 836 c 0
 507.000976562 783 475.000976562 763 439.000976562 763 c 0xec
 406.901367188 763 371.731445312 778.330078125 342.451171875 791.08984375 c 0
 321.55078125 800.200195312 303.650390625 808 291.990234375 808 c 0
 279.990234375 808 269.990234375 798 256.990234375 776 c 0
 250.73046875 765.41015625 246.5703125 761.379882812 240.900390625 761.379882812 c 0
 238.110351562 761.379882812 234.950195312 762.349609375 230.990234375 764 c 2
 208.990234375 773 l 2
 202.419921875 775.990234375 199.780273438 779.690429688 199.780273438 784.950195312 c 0
 199.780273438 788.5 200.98046875 792.759765625 203 798 c 0
 224 856 259 871 290 871 c 0xdc
 308.6796875 871 329.099609375 865.41015625 348.889648438 858.169921875 c 0
 385.259765625 844.870117188 419.509765625 826 437 826 c 0xec
366.008789062 707 m 0
 569.008789062 707 679.008789062 584 679.008789062 351 c 0
 679.008789062 118 569.008789062 -7 366.008789062 -7 c 0
 163.008789062 -7 52.0087890625 118 52.0087890625 351 c 0
 52.0087890625 584 163.008789062 707 366.008789062 707 c 0
365.008789062 606 m 0
 239.008789062 606 172.008789062 519 172.008789062 351 c 0
 172.008789062 183 239.008789062 93 365.008789062 93 c 0
 492.008789062 93 559.008789062 183 559.008789062 351 c 0
 559.008789062 519 492.008789062 606 365.008789062 606 c 0
EndSplineSet
Position2: "'cpsp' Capital Spacing lookup 1 subtable" dx=5 dy=0 dh=10 dv=0
EndChar

StartChar: OE
Encoding: 338 338 42
Width: 1021
Flags: MW
=======
 451 826 459 837 472 858 c 0
 482 874 486 875 498 870 c 2
 520 861 l 2
 531 856 531 849 526 836 c 0
 507 783 475 763 439 763 c 0xec
 384 763 320 808 292 808 c 0
 280 808 270 798 257 776 c 0
 247.66015625 760.190429688 243 759 231 764 c 2
 209 773 l 2
 198 778 198 785 203 798 c 0
 224 856 259 871 290 871 c 0xdc
 343 871 410 826 437 826 c 0xec
366 707 m 0
 569 707 679 584 679 351 c 0
 679 118 569 -7 366 -7 c 0
 163 -7 52 118 52 351 c 0
 52 584 163 707 366 707 c 0
365 606 m 0
 239 606 172 519 172 351 c 0
 172 183 239 93 365 93 c 0
 492 93 559 183 559 351 c 0
 559 519 492 606 365 606 c 0
EndSplineSet
Position2: "'cpsp' Capital Spacing lookup 1 subtable" dx=5 dy=0 dh=10 dv=0
EndChar

StartChar: OE
Encoding: 338 338 42
Width: 1021
Flags: MW
>>>>>>> FETCH_HEAD
HStem: -7 100 0 100 308 100<678 925 678 925> 600 100<678 954 678 678> 606 101
VStem: 52 120 559 119
LayerCount: 2
Back
Fore
SplineSet
955 100 m 2x76
 972 100 978.999023438 88.0009765625 978.999023438 61.0009765625 c 2
 978.999023438 39.0009765625 l 2
 978.999023438 12.0009765625 971.999023438 0.0009765625 954.999023438 0.0009765625 c 2
 595.999023438 0.0009765625 l 2
 571.999023438 0.0009765625 560.999023438 10.0009765625 560.999023438 35.0009765625 c 2x76
 560.999023438 57.6005859375 l 1
 510.189453125 14.3203125 443.319335938 -7 360.999023438 -7 c 0
 160.999023438 -7 51.9990234375 118 51.9990234375 351 c 0
 51.9990234375 584 160.999023438 707 360.999023438 707 c 0
 444.319335938 707 509.9296875 685.599609375 561 642.809570312 c 1xae
 561 667 l 2
 561 690 572 700 596 700 c 2
 954 700 l 2
 971 700 978 688 978 661 c 2
 978 639 l 2
 978 612 971 600 954 600 c 2
 678 600 l 1
 678 408 l 1
 925 408 l 2
 942 408 949 397 949 369 c 2
 949 347 l 2
 949 320 942 308 925 308 c 2
 678 308 l 1
 678 100 l 1
 955 100 l 2x76
364.999023438 93.0009765625 m 0xae
 491.999023438 93.0009765625 558.999023438 183.000976562 558.999023438 351.000976562 c 0
 558.999023438 519.000976562 491.999023438 606.000976562 364.999023438 606.000976562 c 0
 238.999023438 606.000976562 171.999023438 519.000976562 171.999023438 351.000976562 c 0
 171.999023438 183.000976562 238.999023438 93.0009765625 364.999023438 93.0009765625 c 0xae
EndSplineSet
Position2: "'cpsp' Capital Spacing lookup 1 subtable" dx=5 dy=0 dh=10 dv=0
EndChar

StartChar: P
Encoding: 80 80 43
Width: 570
Flags: MW
<<<<<<< HEAD
HStem: 282 101<195 322 322 328 195 322> 600 100<195 195 195 314>
=======
HStem: -2 21G<110 127 127 146> 282 101<195 322 322 328 195 322> 600 100<195 314 195 195>
>>>>>>> FETCH_HEAD
VStem: 78 117<24 282 383 600> 428 120<447.5 537.5>
LayerCount: 2
Back
Fore
SplineSet
318 700 m 2
 406 700 548 673 548 494 c 0
 548 307 381 282 328 282 c 2
 195 282 l 1
 195 24 l 2
 195 7 180 -2 146 -2 c 2
 127 -2 l 2
 93 -2 78 7 78 24 c 2
 78 666 l 2
 78 690 88 700 112 700 c 2
 318 700 l 2
<<<<<<< HEAD
195 600 m 1
=======
314 600 m 2
 195 600 l 1
>>>>>>> FETCH_HEAD
 195 383 l 1
 322 383 l 2
 361 383 428 401 428 494 c 0
 428 581 364 600 314 600 c 2
<<<<<<< HEAD
 195 600 l 1
EndSplineSet
Substitution2: "'ss06' Style Set 6 lookup 12 subtable" eight.ss02
Substitution2: "'ss04' Style Set 4 lookup 10 subtable" P.ss04
Substitution2: "'ss01' Style Set 1 lookup 7 subtable" P.ss01
Substitution2: "'salt' Stylistic Alternatives lookup 6 subtable" P.ss01
AlternateSubs2: "'aalt' Access All Alternates lookup 1 subtable" P.ss01 P.ss04
=======
EndSplineSet
Substitution2: "'ss06' Style Set 6 lookup 13 subtable" eight.ss02
Substitution2: "'ss01' Style Set 1 lookup 7 subtable" P.ss01
Substitution2: "'salt' Stylistic Alternatives lookup 6 subtable" P.ss01
Substitution2: "'aalt' Access All Alternates lookup 0 subtable" P.ss01
>>>>>>> FETCH_HEAD
Position2: "'cpsp' Capital Spacing lookup 1 subtable" dx=5 dy=0 dh=10 dv=0
EndChar

StartChar: Thorn
Encoding: 222 222 44
Width: 567
Flags: MW
<<<<<<< HEAD
HStem: 167 100<195 324 324 331 195 195> 485 100<194 321 195 316>
=======
HStem: -2 21G<110 127 127 146> 167 100<195 324 324 331 195 195> 485 100<195 316 194 321> 682 20G<127 146 146 163>
>>>>>>> FETCH_HEAD
VStem: 78 117<24 167 585 676> 430 121<332.5 422.5>
LayerCount: 2
Back
Fore
SplineSet
146 702 m 2
 180 702 195 693 195 676 c 2
 195 585 l 1
 321 585 l 2
 409 585 551 558 551 379 c 0
 551 191 384 167 331 167 c 2
 195 167 l 1
 195 24 l 2
 195 7 180 -2 146 -2 c 2
 127 -2 l 2
 93 -2 78 7 78 24 c 2
 78 676 l 2
 78 693 93 702 127 702 c 2
 146 702 l 2
<<<<<<< HEAD
194 485 m 1
=======
316 485 m 2
 194 485 l 1
>>>>>>> FETCH_HEAD
 194 267 l 1
 324 267 l 2
 363 267 430 286 430 379 c 0
 430 466 366 485 316 485 c 2
<<<<<<< HEAD
 194 485 l 1
=======
>>>>>>> FETCH_HEAD
EndSplineSet
Position2: "'cpsp' Capital Spacing lookup 1 subtable" dx=5 dy=0 dh=10 dv=0
EndChar

StartChar: Q
Encoding: 81 81 45
Width: 731
Flags: MW
<<<<<<< HEAD
HStem: 606 101
VStem: 52 120 559 120
=======
HStem: 606 101<303 427.5>
VStem: 52 120<264 432 264 465> 559 120<264.5 431.5>
>>>>>>> FETCH_HEAD
LayerCount: 2
Back
Fore
SplineSet
366 707 m 0
<<<<<<< HEAD
 569 707 678.999023438 580.999023438 678.999023438 347.999023438 c 0
 678.999023438 171.999023438 614.999023438 58.9990234375 497.999023438 15.9990234375 c 1
 497.999023438 11.9990234375 l 1
 674.999023438 -47.0009765625 l 2
 683.999023438 -50.0009765625 688.999023438 -55.0009765625 688.999023438 -62.0009765625 c 0
 688.999023438 -76.0009765625 668.999023438 -147.000976562 641.999023438 -147.000976562 c 0
 632.779296875 -147.000976562 491.609375 -90.8505859375 331.979492188 -27.3603515625 c 0
 301.069335938 -15.060546875 269.469726562 -2.490234375 238 10 c 0
 115 59 52 172 52 348 c 0
 52 582 163 707 366 707 c 0
364.999023438 605.999023438 m 0
 240.999023438 605.999023438 171.999023438 515.999023438 171.999023438 347.999023438 c 0
 171.999023438 179.999023438 240.999023438 89.9990234375 364.999023438 89.9990234375 c 0
 489.999023438 89.9990234375 558.999023438 180.999023438 558.999023438 347.999023438 c 0
 558.999023438 514.999023438 489.999023438 605.999023438 364.999023438 605.999023438 c 0
EndSplineSet
Substitution2: "'ss06' Style Set 6 lookup 12 subtable" one.ss03
=======
 569 707 679 581 679 348 c 0
 679 172 615 59 498 16 c 1
 498 12 l 1
 675 -47 l 2
 684 -50 689 -55 689 -62 c 0
 689 -76 669 -147 642 -147 c 0
 631 -147 432 -67 238 10 c 0
 115 59 52 172 52 348 c 0
 52 582 163 707 366 707 c 0
365 606 m 0
 241 606 172 516 172 348 c 0
 172 180 241 90 365 90 c 0
 490 90 559 181 559 348 c 0
 559 515 490 606 365 606 c 0
EndSplineSet
Substitution2: "'ss06' Style Set 6 lookup 13 subtable" one.ss03
>>>>>>> FETCH_HEAD
Substitution2: "'ss01' Style Set 1 lookup 7 subtable" Q.ss01
Substitution2: "'salt' Stylistic Alternatives lookup 6 subtable" Q.ss01
Substitution2: "'aalt' Access All Alternates lookup 0 subtable" Q.ss01
Position2: "'cpsp' Capital Spacing lookup 1 subtable" dx=5 dy=0 dh=10 dv=0
EndChar

StartChar: R
Encoding: 82 82 46
Width: 610
Flags: MW
<<<<<<< HEAD
HStem: 293 101<202 270 202 318> 600 100<202 202 202 299 299 311>
=======
HStem: -2 21G<117 134 134 153 511 523 523 546> 293 101<202 270 202 318> 600 100<202 299 299 311 202 202>
>>>>>>> FETCH_HEAD
VStem: 85 117<24 293 394 600> 424 120<477 534>
LayerCount: 2
Back
Fore
SplineSet
299 700 m 2
 463 700 544 642 544 518 c 0
 544 436 497 381 428 354 c 1
 428 350 l 1
 462 337 488 295 510 239 c 2
 592 32 l 2
 595 25 596 20 596 16 c 0
 596 5 581 -2 546 -2 c 2
 523 -2 l 2
 499 -2 480 4 475 16 c 2
 398 212 l 2
 372 273 342 293 270 293 c 2
 202 293 l 1
 202 24 l 2
 202 7 187 -2 153 -2 c 2
 134 -2 l 2
 100 -2 85 7 85 24 c 2
 85 666 l 2
 85 690 95 700 119 700 c 2
 299 700 l 2
<<<<<<< HEAD
202 600 m 1
=======
311 600 m 2
 202 600 l 1
>>>>>>> FETCH_HEAD
 202 394 l 1
 318 394 l 2
 376 394 424 443 424 501 c 0
 424 567 379 600 311 600 c 2
<<<<<<< HEAD
 202 600 l 1
EndSplineSet
Substitution2: "'ss06' Style Set 6 lookup 12 subtable" two.ss03
=======
EndSplineSet
Substitution2: "'ss06' Style Set 6 lookup 13 subtable" two.ss03
>>>>>>> FETCH_HEAD
Substitution2: "'ss01' Style Set 1 lookup 7 subtable" R.ss01
Substitution2: "'salt' Stylistic Alternatives lookup 6 subtable" R.ss01
Substitution2: "'aalt' Access All Alternates lookup 0 subtable" R.ss01
Position2: "'cpsp' Capital Spacing lookup 1 subtable" dx=5 dy=0 dh=10 dv=0
EndChar

StartChar: S
Encoding: 83 83 47
Width: 500
Flags: MW
<<<<<<< HEAD
HStem: -7 100<204.826 268.501 204.826 311.001> 606.01 100.99
VStem: 43 121<487.085 543.51 487.085 576> 353 120
=======
HStem: -7 100<191.5 268.5 191.5 311> 606 101<239 311 208.5 314>
VStem: 43 121<485.5 543.5 485.5 576> 353 120<157.5 225.5>
>>>>>>> FETCH_HEAD
LayerCount: 2
Back
Fore
SplineSet
272 707 m 0
<<<<<<< HEAD
 350 707 441.001953125 677.009765625 441.001953125 642.009765625 c 0
 441.001953125 622.009765625 415.001953125 574.009765625 399.001953125 574.009765625 c 0
 394.76171875 574.009765625 388.681640625 576.950195312 380.201171875 581.049804688 c 0
 360.720703125 590.469726562 328.5703125 606.009765625 277 606.009765625 c 0
 201 606.009765625 164 569.009765625 164 518.009765625 c 0
 164 456.16015625 215.610351562 435.959960938 277.48046875 411.740234375 c 0
 280.630859375 410.509765625 283.80078125 409.259765625 287.000976562 408 c 0
 373.000976562 374 473.000976562 334 473.000976562 198 c 0
 473.000976562 59 373.000976562 -7 249.000976562 -7 c 0
 117.000976562 -7 30.0009765625 43 30.0009765625 73 c 0
 30.0009765625 95 61.0009765625 142 77.0009765625 142 c 0
 81.30078125 142 88.720703125 137.98046875 99.30078125 132.240234375 c 0
 125.661132812 117.940429688 171.651367188 93 238.000976562 93 c 0
 299.000976562 93 353.000976562 125 353.000976562 190 c 0
 353.000976562 254.009765625 291.220703125 279.009765625 222.630859375 306.759765625 c 0
 215.140625 309.790039062 207.5703125 312.849609375 200 316 c 0
 122 349 43 388 43 514 c 0
 43 638 145 707 272 707 c 0
EndSplineSet
Substitution2: "'ss06' Style Set 6 lookup 12 subtable" three.ss03
=======
 350 707 441 677 441 642 c 0
 441 622 415 574 399 574 c 0
 385 574 351 606 277 606 c 0
 201 606 164 569 164 518 c 0
 164 453 221 434 287 408 c 0
 373 374 473 334 473 198 c 0
 473 59 373 -7 249 -7 c 0
 117 -7 30 43 30 73 c 0
 30 95 61 142 77 142 c 0
 92 142 145 93 238 93 c 0
 299 93 353 125 353 190 c 0
 353 261 277 284 200 316 c 0
 122 349 43 388 43 514 c 0
 43 638 145 707 272 707 c 0
EndSplineSet
Substitution2: "'ss06' Style Set 6 lookup 13 subtable" three.ss03
>>>>>>> FETCH_HEAD
Substitution2: "'ss01' Style Set 1 lookup 7 subtable" S.ss01
Substitution2: "'salt' Stylistic Alternatives lookup 6 subtable" S.ss01
Substitution2: "'aalt' Access All Alternates lookup 0 subtable" S.ss01
Position2: "'cpsp' Capital Spacing lookup 1 subtable" dx=5 dy=0 dh=10 dv=0
EndChar

StartChar: Scaron
Encoding: 352 352 48
Width: 500
Flags: MW
<<<<<<< HEAD
HStem: -7 100<204.826 268.501 204.826 311.001> 606.01 100.99 755 143<144 240 144 259>
VStem: 43 121<487.085 543.51 487.085 576> 353 120
=======
HStem: -7 100<191.5 268.5 191.5 311> 606 101<239 311 208.5 314> 755 143<144 240 144 259>
VStem: 43 121<485.5 543.5 485.5 576> 353 120<157.5 225.5>
>>>>>>> FETCH_HEAD
LayerCount: 2
Back
Fore
SplineSet
356 898 m 2
 371 898 378 894 378 886 c 0
 378 881 376 875 372 869 c 2
 312 775 l 2
 301 759 283 755 259 755 c 2
 240 755 l 2
 217 755 198 759 188 775 c 2
 128 869 l 2
 124 876 122 882 122 886 c 0
 122 894 129 898 144 898 c 2
 154 898 l 2
 175 898 191 894 203 880 c 2
 249 821 l 1
 297 881 l 2
 308 894 325 898 345 898 c 2
 356 898 l 2
272 707 m 0
<<<<<<< HEAD
 350 707 441.001953125 677.009765625 441.001953125 642.009765625 c 0
 441.001953125 622.009765625 415.001953125 574.009765625 399.001953125 574.009765625 c 0
 394.76171875 574.009765625 388.681640625 576.950195312 380.201171875 581.049804688 c 0
 360.720703125 590.469726562 328.5703125 606.009765625 277 606.009765625 c 0
 201 606.009765625 164 569.009765625 164 518.009765625 c 0
 164 456.16015625 215.610351562 435.959960938 277.48046875 411.740234375 c 0
 280.630859375 410.509765625 283.80078125 409.259765625 287.000976562 408 c 0
 373.000976562 374 473.000976562 334 473.000976562 198 c 0
 473.000976562 59 373.000976562 -7 249.000976562 -7 c 0
 117.000976562 -7 30.0009765625 43 30.0009765625 73 c 0
 30.0009765625 95 61.0009765625 142 77.0009765625 142 c 0
 81.30078125 142 88.720703125 137.98046875 99.30078125 132.240234375 c 0
 125.661132812 117.940429688 171.651367188 93 238.000976562 93 c 0
 299.000976562 93 353.000976562 125 353.000976562 190 c 0
 353.000976562 254.009765625 291.220703125 279.009765625 222.630859375 306.759765625 c 0
 215.140625 309.790039062 207.5703125 312.849609375 200 316 c 0
=======
 350 707 441 677 441 642 c 0
 441 622 415 574 399 574 c 0
 385 574 351 606 277 606 c 0
 201 606 164 569 164 518 c 0
 164 453 221 434 287 408 c 0
 373 374 473 334 473 198 c 0
 473 59 373 -7 249 -7 c 0
 117 -7 30 43 30 73 c 0
 30 95 61 142 77 142 c 0
 92 142 145 93 238 93 c 0
 299 93 353 125 353 190 c 0
 353 261 277 284 200 316 c 0
>>>>>>> FETCH_HEAD
 122 349 43 388 43 514 c 0
 43 638 145 707 272 707 c 0
EndSplineSet
Position2: "'cpsp' Capital Spacing lookup 1 subtable" dx=5 dy=0 dh=10 dv=0
EndChar

StartChar: T
Encoding: 84 84 49
Width: 549
Flags: MW
<<<<<<< HEAD
HStem: 600 100<30.5 510 39 217 334 510 334 334>
=======
HStem: -2 21G<249 266 266 285> 600 100<30.5 510 39 217 334 510 334 334>
>>>>>>> FETCH_HEAD
VStem: 217 117<24 600>
LayerCount: 2
Back
Fore
SplineSet
510 700 m 2
 527 700 534 688 534 661 c 2
 534 639 l 2
 534 612 527 600 510 600 c 2
 334 600 l 1
 334 24 l 2
 334 7 320 -2 285 -2 c 2
 266 -2 l 2
 232 -2 217 7 217 24 c 2
 217 600 l 1
 39 600 l 2
 22 600 15 612 15 639 c 2
 15 661 l 2
 15 688 22 700 39 700 c 2
 510 700 l 2
EndSplineSet
<<<<<<< HEAD
Substitution2: "'ss06' Style Set 6 lookup 12 subtable" four.ss03
=======
Substitution2: "'ss06' Style Set 6 lookup 13 subtable" four.ss03
>>>>>>> FETCH_HEAD
Substitution2: "'ss01' Style Set 1 lookup 7 subtable" T.ss01
Substitution2: "'salt' Stylistic Alternatives lookup 6 subtable" T.ss01
Substitution2: "'aalt' Access All Alternates lookup 0 subtable" T.ss01
Position2: "'cpsp' Capital Spacing lookup 1 subtable" dx=5 dy=0 dh=10 dv=0
EndChar

StartChar: U
Encoding: 85 85 50
Width: 712
Flags: MW
<<<<<<< HEAD
HStem: -7 100<308.5 404 308.5 445.5>
=======
HStem: -7 100<308.5 404 308.5 445.5> 682 20G<125 144 144 161 569 588 588 605>
>>>>>>> FETCH_HEAD
VStem: 76 117<228 231 231 676> 520 117<231 676>
LayerCount: 2
Back
Fore
SplineSet
588 702 m 2
 622 702 637 693 637 676 c 2
 637 228 l 2
 637 80 535 -7 356 -7 c 0
 177 -7 76 80 76 228 c 2
 76 676 l 2
 76 693 91 702 125 702 c 2
 144 702 l 2
 178 702 193 693 193 676 c 2
 193 231 l 2
 193 150 261 93 356 93 c 0
 452 93 520 151 520 231 c 2
 520 676 l 2
 520 693 535 702 569 702 c 2
 588 702 l 2
EndSplineSet
<<<<<<< HEAD
Substitution2: "'ss06' Style Set 6 lookup 12 subtable" five.ss03
=======
Substitution2: "'ss06' Style Set 6 lookup 13 subtable" five.ss03
>>>>>>> FETCH_HEAD
Substitution2: "'ss01' Style Set 1 lookup 7 subtable" U.ss01
Substitution2: "'salt' Stylistic Alternatives lookup 6 subtable" U.ss01
Substitution2: "'aalt' Access All Alternates lookup 0 subtable" U.ss01
Position2: "'cpsp' Capital Spacing lookup 1 subtable" dx=5 dy=0 dh=10 dv=0
EndChar

StartChar: Uacute
Encoding: 218 218 51
Width: 712
Flags: MW
<<<<<<< HEAD
HStem: -7 100
VStem: 76.01 117 520.01 117
=======
HStem: -7 100<308.5 404 308.5 445.5> 682 20G<125 144 144 161 569 588 588 605>
VStem: 76 117<228 231 231 676> 520 117<231 676>
>>>>>>> FETCH_HEAD
LayerCount: 2
Back
Fore
SplineSet
436 910 m 0
<<<<<<< HEAD
 472 910 489.009765625 906.998046875 489.009765625 895.998046875 c 0
 489.009765625 887.23828125 483.939453125 881.658203125 436.529296875 829.358398438 c 0
 424.359375 815.928710938 409.389648438 799.428710938 391 778.999023438 c 0
 380 766.999023438 362 757.999023438 329 757.999023438 c 0
 310 757.999023438 303 760.999023438 303 769.999023438 c 0
 303 777.7890625 312.120117188 793.489257812 337.940429688 837.939453125 c 0
 345.23046875 850.509765625 353.860351562 865.370117188 364 883 c 0
 375 903 401 910 436 910 c 0
588.009765625 701.998046875 m 2
 622.009765625 701.998046875 637.009765625 692.998046875 637.009765625 675.998046875 c 2
 637.009765625 227.998046875 l 2
 637.009765625 79.998046875 535.009765625 -7.001953125 356.009765625 -7.001953125 c 0
 177.009765625 -7.001953125 76.009765625 79.998046875 76.009765625 227.998046875 c 2
 76.009765625 675.998046875 l 2
 76.009765625 692.998046875 91.009765625 701.998046875 125.009765625 701.998046875 c 2
 144.009765625 701.998046875 l 2
 178.009765625 701.998046875 193.009765625 692.998046875 193.009765625 675.998046875 c 2
 193.009765625 230.998046875 l 2
 193.009765625 149.998046875 261.009765625 92.998046875 356.009765625 92.998046875 c 0
 452.009765625 92.998046875 520.009765625 150.998046875 520.009765625 230.998046875 c 2
 520.009765625 675.998046875 l 2
 520.009765625 692.998046875 535.009765625 701.998046875 569.009765625 701.998046875 c 2
 588.009765625 701.998046875 l 2
=======
 472 910 489 907 489 896 c 0
 489 885 481 879 391 779 c 0
 380 767 362 758 329 758 c 0
 310 758 303 761 303 770 c 0
 303 780 318 803 364 883 c 0
 375 903 401 910 436 910 c 0
588 702 m 2
 622 702 637 693 637 676 c 2
 637 228 l 2
 637 80 535 -7 356 -7 c 0
 177 -7 76 80 76 228 c 2
 76 676 l 2
 76 693 91 702 125 702 c 2
 144 702 l 2
 178 702 193 693 193 676 c 2
 193 231 l 2
 193 150 261 93 356 93 c 0
 452 93 520 151 520 231 c 2
 520 676 l 2
 520 693 535 702 569 702 c 2
 588 702 l 2
>>>>>>> FETCH_HEAD
EndSplineSet
Position2: "'cpsp' Capital Spacing lookup 1 subtable" dx=5 dy=0 dh=10 dv=0
EndChar

StartChar: Ucircumflex
Encoding: 219 219 52
Width: 712
Flags: MW
<<<<<<< HEAD
HStem: -7 100<308.5 404 308.5 445.5> 751 144<242.5 365 250 365 346 451 346 462>
=======
HStem: -7 100<308.5 404 308.5 445.5> 682 20G<125 144 144 161 569 588 588 605> 751 144<242.5 365 250 365 346 451 346 462>
>>>>>>> FETCH_HEAD
VStem: 76 117<228 231 231 676> 520 117<231 676>
LayerCount: 2
Back
Fore
SplineSet
365 895 m 2
 389 895 407 891 418 874 c 2
 478 780 l 2
 482 774 484 769 484 764 c 0
 484 756 477 751 462 751 c 2
 451 751 l 2
 431 751 414 756 403 769 c 2
 355 828 l 1
 309 769 l 2
 297 755 281 751 260 751 c 2
 250 751 l 2
 235 751 228 755 228 764 c 0
 228 768 230 774 234 780 c 2
 294 874 l 2
 304 891 323 895 346 895 c 2
 365 895 l 2
588 702 m 2
 622 702 637 693 637 676 c 2
 637 228 l 2
 637 80 535 -7 356 -7 c 0
 177 -7 76 80 76 228 c 2
 76 676 l 2
 76 693 91 702 125 702 c 2
 144 702 l 2
 178 702 193 693 193 676 c 2
 193 231 l 2
 193 150 261 93 356 93 c 0
 452 93 520 151 520 231 c 2
 520 676 l 2
 520 693 535 702 569 702 c 2
 588 702 l 2
EndSplineSet
Position2: "'cpsp' Capital Spacing lookup 1 subtable" dx=5 dy=0 dh=10 dv=0
EndChar

StartChar: Udieresis
Encoding: 220 220 53
Width: 712
Flags: MW
<<<<<<< HEAD
HStem: -7 100<308.5 404 308.5 445.5> 771 108<259 293 419 453>
=======
HStem: -7 100<308.5 404 308.5 445.5> 682 20G<125 144 144 161 569 588 588 605> 771 108<259 293 419 453>
>>>>>>> FETCH_HEAD
VStem: 76 117<228 231 231 676> 226 100<798 853 789.5 861> 386 100<798 853 789.5 861> 520 117<231 676>
LayerCount: 2
Back
Fore
SplineSet
277 879 m 0
 311 879 326 870 326 853 c 2
 326 798 l 2
 326 781 311 771 275 771 c 0
 241 771 226 781 226 798 c 2
 226 853 l 2
 226 869 241 879 277 879 c 0
437 879 m 0
 471 879 486 870 486 853 c 2
 486 798 l 2
 486 781 471 771 435 771 c 0
 401 771 386 781 386 798 c 2
 386 853 l 2
 386 869 401 879 437 879 c 0
588 702 m 2
 622 702 637 693 637 676 c 2
 637 228 l 2
 637 80 535 -7 356 -7 c 0
 177 -7 76 80 76 228 c 2
 76 676 l 2
 76 693 91 702 125 702 c 2
 144 702 l 2
 178 702 193 693 193 676 c 2
 193 231 l 2
 193 150 261 93 356 93 c 0
 452 93 520 151 520 231 c 2
 520 676 l 2
 520 693 535 702 569 702 c 2
 588 702 l 2
EndSplineSet
Position2: "'cpsp' Capital Spacing lookup 1 subtable" dx=5 dy=0 dh=10 dv=0
EndChar

StartChar: Ugrave
Encoding: 217 217 54
Width: 712
Flags: MW
<<<<<<< HEAD
HStem: -7.00999 100
VStem: 76 117 520 117
=======
HStem: -7 100<308.5 404 308.5 445.5> 682 20G<125 144 144 161 569 588 588 605>
VStem: 76 117<228 231 231 676> 520 117<231 676>
>>>>>>> FETCH_HEAD
LayerCount: 2
Back
Fore
SplineSet
284 910 m 0
<<<<<<< HEAD
 320 910 345.000976562 902.990234375 356.000976562 882.990234375 c 0
 366.130859375 865.360351562 374.760742188 850.5 382.060546875 837.940429688 c 0
 407.870117188 793.490234375 416.990234375 777.790039062 416.990234375 769.990234375 c 0
 416.990234375 760.990234375 409.990234375 757.990234375 390.990234375 757.990234375 c 0
 357.990234375 757.990234375 339.990234375 766.990234375 328.990234375 778.990234375 c 0
 305.400390625 805.5 287.430664062 825.41015625 273.760742188 840.549804688 c 0
 235.860351562 882.530273438 231 887.91015625 231 896 c 0
 231 907 249 910 284 910 c 0
588.000976562 701.990234375 m 2
 622.000976562 701.990234375 637.000976562 692.990234375 637.000976562 675.990234375 c 2
 637.000976562 227.990234375 l 2
 637.000976562 79.990234375 535.000976562 -7.009765625 356.000976562 -7.009765625 c 0
 177.000976562 -7.009765625 76.0009765625 79.990234375 76.0009765625 227.990234375 c 2
 76.0009765625 675.990234375 l 2
 76.0009765625 692.990234375 91.0009765625 701.990234375 125.000976562 701.990234375 c 2
 144.000976562 701.990234375 l 2
 178.000976562 701.990234375 193.000976562 692.990234375 193.000976562 675.990234375 c 2
 193.000976562 230.990234375 l 2
 193.000976562 149.990234375 261.000976562 92.990234375 356.000976562 92.990234375 c 0
 452.000976562 92.990234375 520.000976562 150.990234375 520.000976562 230.990234375 c 2
 520.000976562 675.990234375 l 2
 520.000976562 692.990234375 535.000976562 701.990234375 569.000976562 701.990234375 c 2
 588.000976562 701.990234375 l 2
=======
 320 910 345 903 356 883 c 0
 402 803 417 780 417 770 c 0
 417 761 410 758 391 758 c 0
 358 758 340 767 329 779 c 0
 240 879 231 885 231 896 c 0
 231 907 249 910 284 910 c 0
588 702 m 2
 622 702 637 693 637 676 c 2
 637 228 l 2
 637 80 535 -7 356 -7 c 0
 177 -7 76 80 76 228 c 2
 76 676 l 2
 76 693 91 702 125 702 c 2
 144 702 l 2
 178 702 193 693 193 676 c 2
 193 231 l 2
 193 150 261 93 356 93 c 0
 452 93 520 151 520 231 c 2
 520 676 l 2
 520 693 535 702 569 702 c 2
 588 702 l 2
>>>>>>> FETCH_HEAD
EndSplineSet
Position2: "'cpsp' Capital Spacing lookup 1 subtable" dx=5 dy=0 dh=10 dv=0
EndChar

StartChar: V
Encoding: 86 86 55
Width: 617
Flags: MW
<<<<<<< HEAD
HStem: -2 148<276 310 306 310 306 328> -2 704<65 288 65 328>
=======
HStem: -2 21G<276 288 288 328> 682 20G<65 84 84 96 534 551 551 568.5>
>>>>>>> FETCH_HEAD
VStem: 14 587<680.5 689>
LayerCount: 2
Back
Fore
SplineSet
<<<<<<< HEAD
551 702 m 2x60
=======
551 702 m 2
>>>>>>> FETCH_HEAD
 586 702 601 695 601 683 c 0
 601 678 600 674 598 667 c 2
 375 16 l 2
 370 2 352 -2 328 -2 c 2
 288 -2 l 2
 264 -2 245 2 241 16 c 2
 17 668 l 2
 15 674 14 678 14 683 c 0
 14 695 30 702 65 702 c 2
 84 702 l 2
 108 702 127 697 133 680 c 2
 296 190 l 1
 306 146 l 1
 310 146 l 1
<<<<<<< HEAD
 321 191 l 1xa0
 486 680 l 2
 491 696 510 702 534 702 c 2
 551 702 l 2x60
EndSplineSet
Substitution2: "'ss06' Style Set 6 lookup 12 subtable" six.ss03
=======
 321 191 l 1
 486 680 l 2
 491 696 510 702 534 702 c 2
 551 702 l 2
EndSplineSet
Substitution2: "'ss06' Style Set 6 lookup 13 subtable" six.ss03
>>>>>>> FETCH_HEAD
Position2: "'cpsp' Capital Spacing lookup 1 subtable" dx=5 dy=0 dh=10 dv=0
EndChar

StartChar: W
Encoding: 87 87 56
Width: 882
Flags: MW
<<<<<<< HEAD
HStem: -2 704.01
VStem: 6.99001 869
=======
HStem: -2 21G<208.5 221 221 276 591 603 603 658> 682 20G<58 75 75 89.5 433 459 459 471.5 816 824 824 842>
VStem: 7 869<679.5 687.5 679.5 687.5>
>>>>>>> FETCH_HEAD
LayerCount: 2
Back
Fore
SplineSet
824 702 m 2
<<<<<<< HEAD
 860 702 875.98828125 694.000976562 875.98828125 681.000976562 c 0
 875.98828125 679.130859375 875.208007812 676.090820312 874.377929688 672.860351562 c 0
 873.877929688 670.900390625 873.358398438 668.880859375 872.98828125 666.991210938 c 2
 703.98828125 15.9912109375 l 2
 700.98828125 2.9912109375 680.98828125 -2.0087890625 657.98828125 -2.0087890625 c 2
 602.98828125 -2.0087890625 l 2
 578.98828125 -2.0087890625 558.98828125 2.9912109375 555.98828125 15.9912109375 c 2
 458.98828125 396.991210938 l 1
 439.98828125 499.991210938 l 1
 420.98828125 396.991210938 l 1
 322.98828125 15.9912109375 l 2
 318.98828125 2.9912109375 298.98828125 -2.0087890625 275.98828125 -2.0087890625 c 2
 220.98828125 -2.0087890625 l 2
 195.98828125 -2.0087890625 177.98828125 2.9912109375 174.98828125 15.9912109375 c 2
 9.98828125 666.991210938 l 2
 7.98828125 671.991210938 6.98828125 676.991210938 6.98828125 680.991210938 c 0
 6.98828125 693.991210938 22.98828125 701.991210938 57.98828125 701.991210938 c 2
 74.98828125 701.991210938 l 2
 103.98828125 701.991210938 122.98828125 694.991210938 126.98828125 678.991210938 c 2
 230.98828125 261.991210938 l 2
 235.978515625 243.271484375 241.758789062 213.241210938 246.848632812 186.750976562 c 0
 249.918945312 170.810546875 252.739257812 156.140625 254.989257812 146.000976562 c 1
 260.609375 176.170898438 268.189453125 205.350585938 274.979492188 231.48046875 c 0
 277.869140625 242.590820312 280.609375 253.150390625 282.999023438 262.990234375 c 2
 386.999023438 682.990234375 l 2
 390.999023438 697.990234375 407.999023438 701.990234375 432.999023438 701.990234375 c 2
 458.999023438 701.990234375 l 2
 483.999023438 701.990234375 501.999023438 697.990234375 504.999023438 682.990234375 c 2
 608.999023438 260.990234375 l 2
 614.149414062 240.379882812 619.629882812 212.889648438 624.5 188.459960938 c 0
 628.139648438 170.219726562 631.4296875 153.6796875 634 143 c 1
=======
 860 702 876 694 876 681 c 0
 876 678 874 672 873 667 c 2
 704 16 l 2
 701 3 681 -2 658 -2 c 2
 603 -2 l 2
 579 -2 559 3 556 16 c 2
 459 397 l 1
 440 500 l 1
 421 397 l 1
 323 16 l 2
 319 3 299 -2 276 -2 c 2
 221 -2 l 2
 196 -2 178 3 175 16 c 2
 10 667 l 2
 8 672 7 677 7 681 c 0
 7 694 23 702 58 702 c 2
 75 702 l 2
 104 702 123 695 127 679 c 2
 231 262 l 2
 239 232 249 173 255 146 c 1
 263 189 275 230 283 263 c 2
 387 683 l 2
 391 698 408 702 433 702 c 2
 459 702 l 2
 484 702 502 698 505 683 c 2
 609 261 l 2
 618 225 628 168 634 143 c 1
>>>>>>> FETCH_HEAD
 644 185 654 228 662 263 c 2
 764 679 l 2
 768 695 788 702 816 702 c 2
 824 702 l 2
EndSplineSet
<<<<<<< HEAD
Substitution2: "'ss06' Style Set 6 lookup 12 subtable" seven.ss03
=======
Substitution2: "'ss06' Style Set 6 lookup 13 subtable" seven.ss03
>>>>>>> FETCH_HEAD
Position2: "'cpsp' Capital Spacing lookup 1 subtable" dx=5 dy=0 dh=10 dv=0
EndChar

StartChar: X
Encoding: 88 88 57
Width: 611
Flags: MW
<<<<<<< HEAD
HStem: -2 704<49.5 118 68 118 505.5 518 518 525 525 544>
=======
HStem: -2 21G<49.5 68 68 90 505.5 518 518 544> 682 20G<92 118 118 130.5 505 525 525 544>
>>>>>>> FETCH_HEAD
VStem: 15 582<10 18.5>
LayerCount: 2
Back
Fore
SplineSet
525 702 m 2
 563 702 579 696 579 684 c 0
 579 679 575 671 570 663 c 2
 375 367 l 1
 589 37 l 2
 594 29 597 22 597 16 c 0
 597 4 582 -2 544 -2 c 2
 518 -2 l 2
 493 -2 476 1 467 15 c 2
 305 264 l 1
 140 14 l 2
 131 0 112 -2 90 -2 c 2
 68 -2 l 2
 31 -2 15 4 15 16 c 0
 15 21 18 28 24 37 c 2
 240 365 l 1
 47 663 l 2
 42 671 39 678 39 684 c 0
 39 695 54 702 92 702 c 2
 118 702 l 2
 143 702 160 699 169 685 c 2
 309 468 l 1
 454 686 l 2
 463 699 482 702 505 702 c 2
 525 702 l 2
EndSplineSet
<<<<<<< HEAD
Substitution2: "'ss06' Style Set 6 lookup 12 subtable" eight.ss03
=======
Substitution2: "'ss06' Style Set 6 lookup 13 subtable" eight.ss03
>>>>>>> FETCH_HEAD
Substitution2: "'ss05' Style Set 5 lookup 11 subtable" X.ss05
Substitution2: "'aalt' Access All Alternates lookup 0 subtable" X.ss05
Position2: "'cpsp' Capital Spacing lookup 1 subtable" dx=5 dy=0 dh=10 dv=0
EndChar

StartChar: Y
Encoding: 89 89 58
Width: 559
Flags: MW
<<<<<<< HEAD
HStem: -2 704<62 270 62 290>
=======
HStem: -2 21G<253 270 270 290> 682 20G<62 87 87 99 483 502 502 502>
>>>>>>> FETCH_HEAD
VStem: 222 116<24 346>
LayerCount: 2
Back
Fore
SplineSet
<<<<<<< HEAD
502 702 m 2
 537 701 551.999023438 695 551.999023438 684 c 0
 551.999023438 678.759765625 548.94921875 672.759765625 545.51953125 666 c 0
 545.01953125 665.009765625 544.509765625 664.009765625 544 663 c 2
=======
483 702 m 2
 502 702 l 2
 537 701 552 695 552 684 c 0
 552 678 548 671 544 663 c 2
>>>>>>> FETCH_HEAD
 338 346 l 1
 338 24 l 2
 338 7 324 -2 290 -2 c 2
 270 -2 l 2
 236 -2 222 7 222 24 c 2
 222 349 l 1
 17 663 l 2
 11 671 8 678 8 684 c 0
 8 695 23 702 62 702 c 2
 87 702 l 2
 111 702 129 699 137 685 c 2
 283 453 l 1
 431 686 l 2
 439 699 459 702 483 702 c 2
<<<<<<< HEAD
 502 702 l 2
=======
>>>>>>> FETCH_HEAD
EndSplineSet
Position2: "'cpsp' Capital Spacing lookup 1 subtable" dx=5 dy=0 dh=10 dv=0
EndChar

StartChar: Yacute
Encoding: 221 221 59
Width: 559
Flags: MW
<<<<<<< HEAD
HStem: -2 912
VStem: 222 116
=======
HStem: -2 21G<253 270 270 290> 682 20G<62 87 87 99 483 502 502 502>
VStem: 222 116<24 346>
>>>>>>> FETCH_HEAD
LayerCount: 2
Back
Fore
SplineSet
360 910 m 0
<<<<<<< HEAD
 396 910 413.009765625 906.998046875 413.009765625 895.998046875 c 0
 413.009765625 887.23828125 407.939453125 881.658203125 360.529296875 829.358398438 c 0
 348.359375 815.928710938 333.389648438 799.428710938 315 778.999023438 c 0
 304 766.999023438 286 757.999023438 253 757.999023438 c 0
 234 757.999023438 227 760.999023438 227 769.999023438 c 0
 227 777.7890625 236.120117188 793.489257812 261.940429688 837.939453125 c 0
 269.23046875 850.509765625 277.860351562 865.370117188 288 883 c 0
 299 903 325 910 360 910 c 0
502.009765625 701.998046875 m 2
 537.009765625 700.998046875 552.008789062 694.998046875 552.008789062 683.998046875 c 0
 552.008789062 678.7578125 548.958984375 672.7578125 545.529296875 665.998046875 c 0
 545.029296875 665.0078125 544.51953125 664.0078125 544.009765625 662.998046875 c 2
 338.009765625 345.998046875 l 1
 338.009765625 23.998046875 l 2
 338.009765625 6.998046875 324.009765625 -2.001953125 290.009765625 -2.001953125 c 2
 270.009765625 -2.001953125 l 2
 236.009765625 -2.001953125 222.009765625 6.998046875 222.009765625 23.998046875 c 2
 222.009765625 348.998046875 l 1
 17.009765625 662.998046875 l 2
 11.009765625 670.998046875 8.009765625 677.998046875 8.009765625 683.998046875 c 0
 8.009765625 694.998046875 23.009765625 701.998046875 62.009765625 701.998046875 c 2
 87.009765625 701.998046875 l 2
 111.009765625 701.998046875 129.009765625 698.998046875 137.009765625 684.998046875 c 2
 283.009765625 452.998046875 l 1
 431.009765625 685.998046875 l 2
 439.009765625 698.998046875 459.009765625 701.998046875 483.009765625 701.998046875 c 2
 502.009765625 701.998046875 l 2
=======
 396 910 413 907 413 896 c 0
 413 885 405 879 315 779 c 0
 304 767 286 758 253 758 c 0
 234 758 227 761 227 770 c 0
 227 780 242 803 288 883 c 0
 299 903 325 910 360 910 c 0
483 702 m 2
 502 702 l 2
 537 701 552 695 552 684 c 0
 552 678 548 671 544 663 c 2
 338 346 l 1
 338 24 l 2
 338 7 324 -2 290 -2 c 2
 270 -2 l 2
 236 -2 222 7 222 24 c 2
 222 349 l 1
 17 663 l 2
 11 671 8 678 8 684 c 0
 8 695 23 702 62 702 c 2
 87 702 l 2
 111 702 129 699 137 685 c 2
 283 453 l 1
 431 686 l 2
 439 699 459 702 483 702 c 2
>>>>>>> FETCH_HEAD
EndSplineSet
Position2: "'cpsp' Capital Spacing lookup 1 subtable" dx=5 dy=0 dh=10 dv=0
EndChar

StartChar: Ydieresis
Encoding: 376 376 60
Width: 559
Flags: MW
<<<<<<< HEAD
HStem: 771 108<183 217 343 377>
=======
HStem: -2 21G<253 270 270 290> 682 20G<62 87 87 99 483 502 502 502> 771 108<183 217 343 377>
>>>>>>> FETCH_HEAD
VStem: 150 100<798 853 789.5 861> 222 116<24 346> 310 100<798 853 789.5 861>
LayerCount: 2
Back
Fore
SplineSet
<<<<<<< HEAD
201 879 m 0xd0
=======
201 879 m 0xf4
>>>>>>> FETCH_HEAD
 235 879 250 870 250 853 c 2
 250 798 l 2
 250 781 235 771 199 771 c 0
 165 771 150 781 150 798 c 2
 150 853 l 2
<<<<<<< HEAD
 150 869 165 879 201 879 c 0xd0
=======
 150 869 165 879 201 879 c 0xf4
>>>>>>> FETCH_HEAD
361 879 m 0
 395 879 410 870 410 853 c 2
 410 798 l 2
 410 781 395 771 359 771 c 0
 325 771 310 781 310 798 c 2
 310 853 l 2
 310 869 325 879 361 879 c 0
<<<<<<< HEAD
502 702 m 2
 537 701 551.999023438 695 551.999023438 684 c 0
 551.999023438 678.759765625 548.94921875 672.759765625 545.51953125 666 c 0
 545.01953125 665.009765625 544.509765625 664.009765625 544 663 c 2
=======
483 702 m 2
 502 702 l 2
 537 701 552 695 552 684 c 0
 552 678 548 671 544 663 c 2
>>>>>>> FETCH_HEAD
 338 346 l 1
 338 24 l 2
 338 7 324 -2 290 -2 c 2
 270 -2 l 2
 236 -2 222 7 222 24 c 2
<<<<<<< HEAD
 222 349 l 1xa0
=======
 222 349 l 1xe8
>>>>>>> FETCH_HEAD
 17 663 l 2
 11 671 8 678 8 684 c 0
 8 695 23 702 62 702 c 2
 87 702 l 2
 111 702 129 699 137 685 c 2
 283 453 l 1
 431 686 l 2
 439 699 459 702 483 702 c 2
<<<<<<< HEAD
 502 702 l 2
=======
>>>>>>> FETCH_HEAD
EndSplineSet
Position2: "'cpsp' Capital Spacing lookup 1 subtable" dx=5 dy=0 dh=10 dv=0
EndChar

StartChar: Z
Encoding: 90 90 61
Width: 616
Flags: MW
HStem: 0 100<196 549 196 549> 600 100<80.5 546 89 413>
VStem: 33 542
LayerCount: 2
Back
Fore
SplineSet
546 700 m 2
 557 700 575 653 575 630 c 0
 575 625 574 622 573 620 c 2
 196 100 l 1
 549 100 l 2
 566 100 574 88 574 59 c 2
 574 41 l 2
 574 12 566 0 549 0 c 2
 64 0 l 2
 50 0 33 46 33 69 c 0
 33 73 34 77 36 80 c 2
 413 600 l 1
 89 600 l 2
 72 600 64 612 64 641 c 2
 64 659 l 2
 64 688 72 700 89 700 c 2
 546 700 l 2
EndSplineSet
Position2: "'cpsp' Capital Spacing lookup 1 subtable" dx=5 dy=0 dh=10 dv=0
EndChar

StartChar: Zcaron
Encoding: 381 381 62
Width: 616
Flags: MW
HStem: 0 100<196 549 196 549> 600 100<80.5 546 89 413> 755 143<202 298 202 317>
VStem: 33 542
LayerCount: 2
Back
Fore
SplineSet
414 898 m 2
 429 898 436 894 436 886 c 0
 436 881 434 875 430 869 c 2
 370 775 l 2
 359 759 341 755 317 755 c 2
 298 755 l 2
 275 755 256 759 246 775 c 2
 186 869 l 2
 182 876 180 882 180 886 c 0
 180 894 187 898 202 898 c 2
 212 898 l 2
 233 898 249 894 261 880 c 2
 307 821 l 1
 355 881 l 2
 366 894 383 898 403 898 c 2
 414 898 l 2
546 700 m 2
 557 700 575 653 575 630 c 0
 575 625 574 622 573 620 c 2
 196 100 l 1
 549 100 l 2
 566 100 574 88 574 59 c 2
 574 41 l 2
 574 12 566 0 549 0 c 2
 64 0 l 2
 50 0 33 46 33 69 c 0
 33 73 34 77 36 80 c 2
 413 600 l 1
 89 600 l 2
 72 600 64 612 64 641 c 2
 64 659 l 2
 64 688 72 700 89 700 c 2
 546 700 l 2
EndSplineSet
Position2: "'cpsp' Capital Spacing lookup 1 subtable" dx=5 dy=0 dh=10 dv=0
EndChar

StartChar: E.ss04.alt
Encoding: 65537 -1 63
Width: 700
Flags: MW
<<<<<<< HEAD
HStem: -6.03 23 -0.0299988 159 23.97 40 70.97 23 101.97 40 140.97 37 158.97 34 176.97 39 192.97 34 225.97 39 226.97 28 323.98 38.99 329.97 26 520.98 26
VStem: 13 68<329.969 329.969 329.969 355.969> 96 49<16.9688 237.969 237.969 242.469> 182 52<155.969 161.469 189.469 195.469 223.969 229.469> 255 18<155.969 161.469 189.469 195.469 223.969 229.469> 312 38 421 14<135.969 135.969> 438 77<18.9688 27.9688 24.4688 68.4688> 539 20 660 40<285.479 302.479>
LayerCount: 2
Back
Fore
SplineSet
275 559 m 0x242d76
 275 551 280 546.979492188 293 546.979492188 c 2
 312 546.979492188 l 2
 318 546.979492188 326 549.979492188 326 557.979492188 c 0
 326.110351562 559.33984375 326.16015625 560.719726562 326.209960938 562.149414062 c 0
 326.209960938 562.159179688 326.209960938 562.168945312 326.209960938 562.178710938 c 0
 326.610351562 573.369140625 327.100585938 587.2890625 359.000976562 612.989257812 c 0
 365.060546875 616.779296875 369.970703125 621.139648438 375.041015625 625.639648438 c 0
 376.661132812 627.080078125 378.30078125 628.540039062 380.000976562 629.990234375 c 0
 396.000976562 644.990234375 403.000976562 662.990234375 403.000976562 684.990234375 c 0
 403.000976562 705.990234375 396.000976562 721.990234375 381.000976562 734.990234375 c 0
 365.000976562 747.990234375 345.000976562 753.990234375 319.000976562 753.990234375 c 0
 301.000976562 753.990234375 283.000976562 751.990234375 268.000976562 744.990234375 c 0
 253.000976562 739.990234375 231.000976562 726.990234375 231.000976562 715.990234375 c 0
 231.000976562 711.990234375 233.000976562 704.990234375 239.000976562 696.990234375 c 0
 245.000976562 688.990234375 250.000976562 684.990234375 255.000976562 684.990234375 c 0
 260.560546875 687.080078125 268.530273438 690.610351562 275.23046875 693.580078125 c 0
 275.25 693.58984375 275.26953125 693.599609375 275.2890625 693.609375 c 0
=======
HStem: -6.00999 23 0 64 0 255 23.99 40 70.99 23 101.99 40 140.99 37 158.99 34 176.99 39 192.99 34 225.99 39 226.99 28 324 38.99 329.99 26 521 26 683 20G<309.499 323.499>
VStem: 12.99 68 95.99 49 181.99 52 254.99 18 311.99 38 420.99 14 437.99 77 538.99 20 659.99 40
LayerCount: 2
Back
Fore
SplineSet
275 559 m 0x8a175d80
 275 551 279.989257812 546.999023438 292.989257812 546.999023438 c 2
 311.989257812 546.999023438 l 2
 317.989257812 546.999023438 325.989257812 549.999023438 325.989257812 557.999023438 c 0
 326.109375 559.359375 326.159179688 560.749023438 326.208984375 562.189453125 c 0
 326.598632812 573.369140625 327.088867188 587.2890625 358.989257812 612.989257812 c 0
 365.048828125 616.779296875 369.96875 621.149414062 375.0390625 625.649414062 c 0
 376.659179688 627.08984375 378.298828125 628.540039062 379.989257812 630 c 0
 395.989257812 645 402.989257812 663 402.989257812 685 c 0
 402.989257812 706 395.989257812 722 380.989257812 735 c 0
 364.989257812 748 344.989257812 754 318.989257812 754 c 0
 300.989257812 754 282.989257812 752 267.989257812 745 c 0
 252.989257812 740 230.989257812 727 230.989257812 716 c 0
 230.989257812 712 232.989257812 705 238.989257812 697 c 0
 244.989257812 689 249.989257812 685 254.989257812 685 c 0
 260.569335938 687.08984375 268.579101562 690.639648438 275.2890625 693.609375 c 0
>>>>>>> FETCH_HEAD
 278.208984375 694.899414062 280.87890625 696.08984375 282.999023438 697 c 0
 293.999023438 701 304.999023438 703 313.999023438 703 c 0
 332.999023438 703 341.999023438 695 341.999023438 681 c 0
 341.999023438 665.440429688 321.21875 644.530273438 308.19921875 631.419921875 c 0
 305.319335938 628.509765625 302.809570312 625.990234375 301 624 c 0
<<<<<<< HEAD
 279 600 275 576 275 559 c 0x242d76
269 472.979492188 m 2
 269 463.979492188 277 459.979492188 294 459.979492188 c 2
 306 459.979492188 l 2
 321 459.979492188 329 463.979492188 329 472.979492188 c 2
 329 507.979492188 l 2
 329 516.979492188 321 520.979492188 306 520.979492188 c 2
 294 520.979492188 l 2
 277 520.979492188 269 516.979492188 269 507.979492188 c 2
 269 472.979492188 l 2
537 449.979492188 m 2
 543 450.979492188 544 450.96875 546 450.96875 c 0
 552 450.96875 556 445.96875 556 439.96875 c 2
 556 362.96875 l 1
 627 362.96875 l 2
 668 362.96875 700 332.96875 700 293.96875 c 0
 700 256.96875 668 225.96875 627 225.96875 c 0
 620 225.96875 617 227.96875 616 229.96875 c 0
 614 233.96875 613 238.96875 613 246.96875 c 0
 612.8203125 248.388671875 612.740234375 249.708984375 612.740234375 250.94921875 c 0
 612.740234375 256.6796875 614.530273438 260.509765625 617 262.979492188 c 0
 619 264.979492188 620 264.979492188 627 264.979492188 c 0
 644 264.979492188 660 276.979492188 660 293.979492188 c 0
 660 310.979492188 644 323.979492188 627 323.979492188 c 2
 556 323.979492188 l 1
 556 246.979492188 l 2
 556 240.979492188 552 235.979492188 546 235.979492188 c 0
 544 235.979492188 543 235.979492188 537 236.979492188 c 2
 114 321.979492188 l 2
 101 324.979492188 96 328.979492188 96 335.979492188 c 2
 96 350.979492188 l 2
 96 356.979492188 101 360.979492188 114 363.979492188 c 2x005102
 537 449.979492188 l 2
81 329.96875 m 1x000a
 13 329.96875 l 2
 6 329.96875 0 334.96875 0 342.96875 c 0
 0 349.96875 5 355.96875 13 355.96875 c 2
 81 355.96875 l 1
 81 329.96875 l 1x000a
145 254.96875 m 1x402140
 145 -0.03125 l 1
 113 -0.03125 l 2
 103 -0.03125 96 7.96875 96 16.96875 c 2
 96 237.96875 l 2
 96 246.96875 103 254.96875 113 254.96875 c 2
 145 254.96875 l 1x402140
273 16.96875 m 2
 273 7.96875 266 -0.03125 256 -0.03125 c 2
 182 -0.03125 l 1
 182 254.96875 l 1
 256 254.96875 l 2
 266 254.96875 273 246.96875 273 237.96875 c 2
 273 16.96875 l 2
234 226.96875 m 0x042090
 234 220.96875 238 215.96875 245 215.96875 c 0
 251 215.96875 255 220.96875 255 226.96875 c 0
 255 231.96875 251 236.96875 245 236.96875 c 0
 238 236.96875 234 231.96875 234 226.96875 c 0x042090
557 160.96875 m 2
 558 159.96875 557 156.96875 556 155.96875 c 2
 540 141.96875 l 2
 539 139.96875 537 140.96875 536 141.96875 c 2
 527 154.96875 l 2
 526 155.96875 524 155.96875 523 154.96875 c 2
 514 141.96875 l 2
 512 139.96875 510 140.96875 509 141.96875 c 2
 500 154.96875 l 2
 499 155.96875 497 155.96875 496 154.96875 c 2
 488 142.96875 l 2
 487 141.96875 486 140.96875 485 140.96875 c 0
 483 139.96875 481 140.96875 481 141.96875 c 2
 472 154.96875 l 2
 471 156.96875 469 155.96875 468 154.96875 c 2
 459 142.96875 l 2
 458 141.96875 455 140.96875 454 140.96875 c 2
 435 140.96875 l 1x040010
 435 125.96875 l 2
 434 124.96875 433 124.96875 432 125.96875 c 2
 421 135.96875 l 1
 413 115.96875 393 101.96875 370 101.96875 c 0
 337 101.96875 312 127.96875 312 159.96875 c 0
 313 190.96875 338 215.96875 370 215.96875 c 0
 393 215.96875 413 201.96875 422 181.96875 c 1
 432 191.96875 l 2
 433 192.96875 434 192.96875 435 191.96875 c 2x090030
 435 177.96875 l 1
 541 177.96875 l 2
 543 177.96875 545 176.96875 546 175.96875 c 2
 557 160.96875 l 2
234 192.96875 m 0x0880b0
 234 185.96875 238 181.96875 245 181.96875 c 0
 251 181.96875 255 185.96875 255 192.96875 c 0
 255 197.96875 251 202.96875 245 202.96875 c 0
 238 202.96875 234 197.96875 234 192.96875 c 0x0880b0
350 141.96875 m 0
 360 141.96875 368 149.96875 368 159.96875 c 0x0880b0
 368 168.96875 360 176.96875 350 176.96875 c 0
 341 176.96875 333 168.96875 333 159.96875 c 0x010030
 333 150.96875 341 141.96875 350 141.96875 c 0
234 158.96875 m 0x220088
 234 152.96875 238 147.96875 245 147.96875 c 0
 251 147.96875 255 152.96875 255 158.96875 c 0
 255 163.96875 251 168.96875 245 168.96875 c 0
 238 168.96875 234 163.96875 234 158.96875 c 0x220088
323 59.96875 m 2
 324 61.96875 326 63.96875 328 63.96875 c 2
 438 63.96875 l 1x200008
 438 72.96875 445 87.96875 462 88.96875 c 2
 532 93.96875 l 2x100008
 545 93.96875 554 89.96875 559 78.96875 c 0
 561 74.96875 565 57.96875 565 42.96875 c 0
 565 27.96875 561 12.96875 559 8.96875 c 0
 554 -3.03125 545 -6.03125 532 -6.03125 c 2x900004
 462 -1.03125 l 2x800008
 445 -0.03125 438 13.96875 438 23.96875 c 1
 391 23.96875 l 2
 390 23.96875 387 24.96875 385 25.96875 c 2
 376 37.96875 l 2
 375 38.96875 373 39.96875 372 37.96875 c 2
 362 24.96875 l 2
 361 23.96875 359 22.96875 357 24.96875 c 2
 348 37.96875 l 2
 347 38.96875 345 39.96875 343 37.96875 c 2
 334 24.96875 l 2
 333 23.96875 331 23.96875 329 24.96875 c 2
 313 39.96875 l 2
 312 40.96875 311 42.96875 312 44.96875 c 2
 323 59.96875 l 2
515 27.96875 m 2x100008
 515 20.96875 518 16.96875 522 16.96875 c 2
 533 16.96875 l 2
 537 16.96875 539 20.96875 539 27.96875 c 2
 539 57.96875 l 2x900004
 539 66.96875 537 70.96875 533 70.96875 c 2
 522 70.96875 l 2
 518 70.96875 515 66.96875 515 57.96875 c 2
 515 27.96875 l 2x100008
=======
 279 600 275 576 275 559 c 0x8a175d80
268.989257812 472.999023438 m 2
 268.989257812 463.999023438 276.989257812 459.999023438 293.989257812 459.999023438 c 2
 305.989257812 459.999023438 l 2
 320.989257812 459.999023438 328.989257812 463.999023438 328.989257812 472.999023438 c 2
 328.989257812 507.999023438 l 2
 328.989257812 516.999023438 320.989257812 520.999023438 305.989257812 520.999023438 c 2
 293.989257812 520.999023438 l 2
 276.989257812 520.999023438 268.989257812 516.999023438 268.989257812 507.999023438 c 2
 268.989257812 472.999023438 l 2
536.989257812 449.999023438 m 2
 542.989257812 450.999023438 543.989257812 450.98828125 545.989257812 450.98828125 c 0
 551.989257812 450.98828125 555.989257812 445.98828125 555.989257812 439.98828125 c 2
 555.989257812 362.98828125 l 1
 626.989257812 362.98828125 l 2
 667.989257812 362.98828125 699.989257812 332.98828125 699.989257812 293.98828125 c 0
 699.989257812 256.98828125 667.989257812 225.98828125 626.989257812 225.98828125 c 0
 619.989257812 225.98828125 616.989257812 227.98828125 615.989257812 229.98828125 c 0
 613.989257812 233.98828125 612.989257812 238.98828125 612.989257812 246.98828125 c 0
 612.819335938 248.408203125 612.729492188 249.728515625 612.729492188 250.96875 c 0
 612.729492188 256.69921875 614.51953125 260.529296875 616.989257812 262.999023438 c 0
 618.989257812 264.999023438 619.989257812 264.999023438 626.989257812 264.999023438 c 0
 643.989257812 264.999023438 659.989257812 276.999023438 659.989257812 293.999023438 c 0
 659.989257812 310.999023438 643.989257812 323.999023438 626.989257812 323.999023438 c 2
 555.989257812 323.999023438 l 1
 555.989257812 246.999023438 l 2
 555.989257812 240.999023438 551.989257812 235.999023438 545.989257812 235.999023438 c 0
 543.989257812 235.999023438 542.989257812 235.999023438 536.989257812 236.999023438 c 2
 113.989257812 321.999023438 l 2
 100.989257812 324.999023438 95.9892578125 328.999023438 95.9892578125 335.999023438 c 2
 95.9892578125 350.999023438 l 2
 95.9892578125 356.999023438 100.989257812 360.999023438 113.989257812 363.999023438 c 2x00284080
 536.989257812 449.999023438 l 2
80.9892578125 355.98828125 m 1x000480
 80.9892578125 329.98828125 l 1
 12.9892578125 329.98828125 l 2
 5.9892578125 329.98828125 -0.0107421875 334.98828125 -0.0107421875 342.98828125 c 0
 -0.0107421875 349.98828125 4.9892578125 355.98828125 12.9892578125 355.98828125 c 2
 80.9892578125 355.98828125 l 1x000480
112.989257812 254.98828125 m 2x200040
 144.989257812 254.98828125 l 1x200040
 144.989257812 -0.01171875 l 1
 112.989257812 -0.01171875 l 2
 102.989257812 -0.01171875 95.9892578125 7.98828125 95.9892578125 16.98828125 c 2x400040
 95.9892578125 237.98828125 l 2
 95.9892578125 246.98828125 102.989257812 254.98828125 112.989257812 254.98828125 c 2x200040
272.989257812 16.98828125 m 2x401010
 272.989257812 7.98828125 265.989257812 -0.01171875 255.989257812 -0.01171875 c 2
 181.989257812 -0.01171875 l 1
 181.989257812 254.98828125 l 1
 255.989257812 254.98828125 l 2
 265.989257812 254.98828125 272.989257812 246.98828125 272.989257812 237.98828125 c 2
 272.989257812 16.98828125 l 2x401010
233.989257812 226.98828125 m 0x021024
 233.989257812 220.98828125 237.989257812 215.98828125 244.989257812 215.98828125 c 0
 250.989257812 215.98828125 254.989257812 220.98828125 254.989257812 226.98828125 c 0
 254.989257812 231.98828125 250.989257812 236.98828125 244.989257812 236.98828125 c 0
 237.989257812 236.98828125 233.989257812 231.98828125 233.989257812 226.98828125 c 0x021024
556.989257812 160.98828125 m 2
 557.989257812 159.98828125 556.989257812 156.98828125 555.989257812 155.98828125 c 2
 539.989257812 141.98828125 l 2
 538.989257812 139.98828125 536.989257812 140.98828125 535.989257812 141.98828125 c 2
 526.989257812 154.98828125 l 2
 525.989257812 155.98828125 523.989257812 155.98828125 522.989257812 154.98828125 c 2
 513.989257812 141.98828125 l 2
 511.989257812 139.98828125 509.989257812 140.98828125 508.989257812 141.98828125 c 2
 499.989257812 154.98828125 l 2
 498.989257812 155.98828125 496.989257812 155.98828125 495.989257812 154.98828125 c 2
 487.989257812 142.98828125 l 2
 486.989257812 141.98828125 485.989257812 140.98828125 484.989257812 140.98828125 c 0
 482.989257812 139.98828125 480.989257812 140.98828125 480.989257812 141.98828125 c 2
 471.989257812 154.98828125 l 2
 470.989257812 156.98828125 468.989257812 155.98828125 467.989257812 154.98828125 c 2
 458.989257812 142.98828125 l 2
 457.989257812 141.98828125 454.989257812 140.98828125 453.989257812 140.98828125 c 2
 434.989257812 140.98828125 l 1x020004
 434.989257812 125.98828125 l 2
 433.989257812 124.98828125 432.989257812 124.98828125 431.989257812 125.98828125 c 2
 420.989257812 135.98828125 l 1
 412.989257812 115.98828125 392.989257812 101.98828125 369.989257812 101.98828125 c 0
 336.989257812 101.98828125 311.989257812 127.98828125 311.989257812 159.98828125 c 0
 312.989257812 190.98828125 337.989257812 215.98828125 369.989257812 215.98828125 c 0
 392.989257812 215.98828125 412.989257812 201.98828125 421.989257812 181.98828125 c 1
 431.989257812 191.98828125 l 2
 432.989257812 192.98828125 433.989257812 192.98828125 434.989257812 191.98828125 c 2x04800c
 434.989257812 177.98828125 l 1
 540.989257812 177.98828125 l 2
 542.989257812 177.98828125 544.989257812 176.98828125 545.989257812 175.98828125 c 2
 556.989257812 160.98828125 l 2
233.989257812 192.98828125 m 0x04402c
 233.989257812 185.98828125 237.989257812 181.98828125 244.989257812 181.98828125 c 0
 250.989257812 181.98828125 254.989257812 185.98828125 254.989257812 192.98828125 c 0
 254.989257812 197.98828125 250.989257812 202.98828125 244.989257812 202.98828125 c 0
 237.989257812 202.98828125 233.989257812 197.98828125 233.989257812 192.98828125 c 0x04402c
349.989257812 141.98828125 m 0
 359.989257812 141.98828125 367.989257812 149.98828125 367.989257812 159.98828125 c 0x04402c
 367.989257812 168.98828125 359.989257812 176.98828125 349.989257812 176.98828125 c 0
 340.989257812 176.98828125 332.989257812 168.98828125 332.989257812 159.98828125 c 0x00800c
 332.989257812 150.98828125 340.989257812 141.98828125 349.989257812 141.98828125 c 0
233.989257812 158.98828125 m 0x110022
 233.989257812 152.98828125 237.989257812 147.98828125 244.989257812 147.98828125 c 0
 250.989257812 147.98828125 254.989257812 152.98828125 254.989257812 158.98828125 c 0
 254.989257812 163.98828125 250.989257812 168.98828125 244.989257812 168.98828125 c 0
 237.989257812 168.98828125 233.989257812 163.98828125 233.989257812 158.98828125 c 0x110022
311.989257812 44.98828125 m 2
 322.989257812 59.98828125 l 2
 323.989257812 61.98828125 325.989257812 63.98828125 327.989257812 63.98828125 c 2
 437.989257812 63.98828125 l 1x400002
 437.989257812 72.98828125 444.989257812 87.98828125 461.989257812 88.98828125 c 2
 531.989257812 93.98828125 l 2x080002
 544.989257812 93.98828125 553.989257812 89.98828125 558.989257812 78.98828125 c 0
 560.989257812 74.98828125 564.989257812 57.98828125 564.989257812 42.98828125 c 0
 564.989257812 27.98828125 560.989257812 12.98828125 558.989257812 8.98828125 c 0
 553.989257812 -3.01171875 544.989257812 -6.01171875 531.989257812 -6.01171875 c 2x880001
 461.989257812 -1.01171875 l 2x800002
 444.989257812 -0.01171875 437.989257812 13.98828125 437.989257812 23.98828125 c 1
 390.989257812 23.98828125 l 2
 389.989257812 23.98828125 386.989257812 24.98828125 384.989257812 25.98828125 c 2
 375.989257812 37.98828125 l 2
 374.989257812 38.98828125 372.989257812 39.98828125 371.989257812 37.98828125 c 2
 361.989257812 24.98828125 l 2
 360.989257812 23.98828125 358.989257812 22.98828125 356.989257812 24.98828125 c 2
 347.989257812 37.98828125 l 2
 346.989257812 38.98828125 344.989257812 39.98828125 342.989257812 37.98828125 c 2
 333.989257812 24.98828125 l 2
 332.989257812 23.98828125 330.989257812 23.98828125 328.989257812 24.98828125 c 2
 312.989257812 39.98828125 l 2
 311.989257812 40.98828125 310.989257812 42.98828125 311.989257812 44.98828125 c 2
514.989257812 57.98828125 m 2x080002
 514.989257812 27.98828125 l 2
 514.989257812 20.98828125 517.989257812 16.98828125 521.989257812 16.98828125 c 2
 532.989257812 16.98828125 l 2
 536.989257812 16.98828125 538.989257812 20.98828125 538.989257812 27.98828125 c 2
 538.989257812 57.98828125 l 2x880001
 538.989257812 66.98828125 536.989257812 70.98828125 532.989257812 70.98828125 c 2
 521.989257812 70.98828125 l 2
 517.989257812 70.98828125 514.989257812 66.98828125 514.989257812 57.98828125 c 2x080002
>>>>>>> FETCH_HEAD
EndSplineSet
EndChar

StartChar: A.ss01
Encoding: 65538 -1 64
Width: 730
Flags: MW
<<<<<<< HEAD
HStem: 141.98 133
VStem: 167 19<22 393> 315.99 56 564.99 55
=======
HStem: -0.00999451 21G 141.99 133
VStem: 167 19<22 393> 268 62 565 55
>>>>>>> FETCH_HEAD
LayerCount: 2
Back
Fore
SplineSet
435 14 m 2
<<<<<<< HEAD
 439 4 443.9921875 -0.017578125 452.9921875 -0.017578125 c 0
 459.9921875 -0.017578125 468.9921875 5.982421875 468.9921875 13.982421875 c 0
 468.9921875 17.0126953125 467.041992188 22.8427734375 466.091796875 25.6923828125 c 0
 466.051757812 25.7919921875 466.021484375 25.8916015625 465.991210938 25.9912109375 c 2
 335.991210938 413.991210938 l 2
 332.991210938 422.991210938 325.991210938 428.991210938 313.991210938 428.991210938 c 2
 310.991210938 428.991210938 l 1
 311.651367188 455.651367188 312.541015625 486.991210938 313.430664062 518.321289062 c 0
 315.2109375 580.991210938 316.991210938 643.651367188 316.991210938 668.991210938 c 0
 316.991210938 694.981445312 306.991210938 715.991210938 275.991210938 726.991210938 c 0
 248.991210938 736.991210938 207.991210938 759.991210938 207.991210938 777.991210938 c 2
 207.991210938 795.991210938 l 1
 212.991210938 798.991210938 220.991210938 804.991210938 220.991210938 825.991210938 c 0
 221.510742188 836.880859375 221.951171875 846.020507812 222.311523438 853.670898438 c 0
 223.631835938 881.361328125 224.021484375 889.581054688 224.021484375 890.720703125 c 0
 224.021484375 914.720703125 200.411132812 929.990234375 176.000976562 929.990234375 c 0
 150.541015625 929.990234375 126.970703125 914.740234375 126.970703125 890.540039062 c 0
 126.970703125 888.849609375 127.23046875 883.459960938 128.010742188 867.33984375 c 0
 128.470703125 857.799804688 129.110351562 844.5 129.990234375 826 c 0
 130.990234375 805 138.990234375 799 142.990234375 796 c 1
 142.990234375 778 l 2
 142.990234375 760 102.990234375 737 74.990234375 727 c 0
 43.990234375 716 34.990234375 695 34.990234375 669 c 0
 34.990234375 644.330078125 36.7705078125 582.330078125 38.55078125 520.330078125 c 0
 39.4404296875 489.330078125 40.330078125 458.330078125 41 432 c 0
=======
 439 4 444.000976562 -0.0087890625 453.000976562 -0.0087890625 c 0
 460.000976562 -0.0087890625 469.000976562 5.9912109375 469.000976562 13.9912109375 c 0
 469.000976562 17.130859375 466.911132812 23.2705078125 466.000976562 25.990234375 c 2
 336.000976562 413.990234375 l 2
 333.000976562 422.990234375 326.000976562 428.990234375 314.000976562 428.990234375 c 2
 311.000976562 428.990234375 l 1
 313.000976562 508.990234375 317.000976562 630.990234375 317.000976562 668.990234375 c 0
 317.000976562 694.98046875 307.000976562 715.990234375 276.000976562 726.990234375 c 0
 249.000976562 736.990234375 208.000976562 759.990234375 208.000976562 777.990234375 c 2
 208.000976562 795.990234375 l 1
 213.000976562 798.990234375 221.000976562 804.990234375 221.000976562 825.990234375 c 0
 223.390625 876.290039062 224.020507812 889.270507812 224.020507812 890.73046875 c 0
 224.020507812 914.73046875 200.41015625 930 176 930 c 0
 150.540039062 930 126.969726562 914.75 126.969726562 890.549804688 c 0
 126.969726562 887.859375 127.629882812 875.76953125 130 826 c 0
 131 805 139 799 143 796 c 1
 143 778 l 2
 143 760 103 737 75 727 c 0
 44 716 35 695 35 669 c 0
 35 632 39 511 41 432 c 0
>>>>>>> FETCH_HEAD
 42 406 56 393 76 393 c 1
 91 22 l 2
 91 8 103 0 127 0 c 0
 151 0 167 8 167 22 c 2
 167 393 l 1
 186 393 l 1
 186 22 l 2
 186 8 200 0 224 0 c 0
 248 -0 260.490234375 8.6396484375 261 22 c 2
 275 393 l 1
 303 393 l 1
 435 14 l 2
<<<<<<< HEAD
636.9921875 397.982421875 m 0
 638.9921875 397.982421875 639.9921875 396.982421875 639.9921875 392.982421875 c 2
 639.9921875 364.982421875 l 1
 708.9921875 328.982421875 l 2
 714.9921875 325.982421875 717.9921875 323.982421875 717.9921875 319.982421875 c 0
 717.9921875 313.982421875 714.9921875 304.982421875 710.9921875 297.982421875 c 0
 702.9921875 283.982421875 695.9921875 280.982421875 685.9921875 280.982421875 c 2
 642.9921875 280.982421875 l 1
 618.9921875 165.982421875 l 1
 619.9921875 14.982421875 l 2
 619.9921875 4.982421875 612.9921875 -0.017578125 595.9921875 -0.017578125 c 0
 579.9921875 -0.017578125 564.9921875 4.982421875 564.9921875 14.982421875 c 2
 553.9921875 141.982421875 l 1
 496.9921875 141.982421875 l 2
 480.9921875 141.982421875 459.9921875 143.982421875 443.9921875 147.982421875 c 1
 399.9921875 278.982421875 l 1
 540.9921875 270.982421875 l 1
 631.9921875 394.982421875 l 2
 633.591796875 397.3828125 634.591796875 397.982421875 636.9921875 397.982421875 c 0
385.9921875 101.982421875 m 1
 371.9921875 14.9814453125 l 2
 369.9921875 0.9814453125 363.9921875 -0.0185546875 340.9921875 -0.0185546875 c 0
 324.202148438 -0.0185546875 315.9921875 5.1318359375 315.9921875 14.6123046875 c 0
 315.9921875 15.322265625 317.232421875 37.3125 320.7421875 99.642578125 c 0
 322.892578125 137.822265625 325.90234375 191.142578125 329.9921875 263.982421875 c 1
 385.9921875 101.982421875 l 1
=======
637.000976562 397.991210938 m 0
 639.000976562 397.991210938 640.000976562 396.991210938 640.000976562 392.991210938 c 2
 640.000976562 364.991210938 l 1
 709.000976562 328.991210938 l 2
 715.000976562 325.991210938 718.000976562 323.991210938 718.000976562 319.991210938 c 0
 718.000976562 313.991210938 715.000976562 304.991210938 711.000976562 297.991210938 c 0
 703.000976562 283.991210938 696.000976562 280.991210938 686.000976562 280.991210938 c 2
 643.000976562 280.991210938 l 1
 619.000976562 165.991210938 l 1
 620.000976562 14.9912109375 l 2
 620.000976562 4.9912109375 613.000976562 -0.0087890625 596.000976562 -0.0087890625 c 0
 580.000976562 -0.0087890625 565.000976562 4.9912109375 565.000976562 14.9912109375 c 2
 554.000976562 141.991210938 l 1
 497.000976562 141.991210938 l 2
 481.000976562 141.991210938 460.000976562 143.991210938 444.000976562 147.991210938 c 1
 400.000976562 278.991210938 l 1
 541.000976562 270.991210938 l 1
 632.000976562 394.991210938 l 2
 633.600585938 397.391601562 634.600585938 397.991210938 637.000976562 397.991210938 c 0
330.000976562 263.991210938 m 1
 386.000976562 101.990234375 l 1
 372.000976562 14.990234375 l 2
 370.000976562 0.990234375 364.000976562 -0.009765625 341.000976562 -0.009765625 c 0
 324.2109375 -0.009765625 316.000976562 5.140625 316.000976562 14.62109375 c 0
 316.000976562 15.771484375 319.220703125 72.2412109375 330.000976562 263.991210938 c 1
>>>>>>> FETCH_HEAD
EndSplineSet
EndChar

StartChar: B.ss01
Encoding: 65539 -1 65
Width: 730
<<<<<<< HEAD
Flags: HMW
HStem: 0 930
VStem: 82.97 83 126.95 97.07 141.97 67.02 184.97 83.5 394 48.99 601.49 56.5
LayerCount: 2
Back
Fore
SplineSet
291 396 m 0x8e
 287 394 281.97265625 393.008789062 275.97265625 393.008789062 c 1
 260.97265625 22.0087890625 l 2
 259.97265625 7.0087890625 248.97265625 0.0087890625 224.97265625 0.0087890625 c 0
 200.97265625 0.0087890625 184.97265625 8.0087890625 184.97265625 22.0087890625 c 2
 184.97265625 389.008789062 l 1x8e
 165.97265625 389.008789062 l 1
 165.97265625 22.0087890625 l 2
 165.97265625 8.0087890625 149.97265625 0.0087890625 126.97265625 0.0087890625 c 0
 102.97265625 0.0087890625 91.97265625 7.0087890625 90.97265625 22.0087890625 c 2
 74.97265625 393.008789062 l 1
 49.97265625 393.008789062 41.453125 411.989257812 40.97265625 431.008789062 c 0
 38.8828125 513.659179688 37.5029296875 566.26953125 36.5927734375 600.729492188 c 0
 35.29296875 650.079101562 34.97265625 662.19921875 34.97265625 672.008789062 c 0xce
 34.97265625 697.008789062 43.97265625 719.008789062 73.97265625 730.008789062 c 0
 101.97265625 740.008789062 141.97265625 762.008789062 141.97265625 782.008789062 c 2
 141.97265625 797.008789062 l 1
 137.97265625 799.008789062 130.97265625 806.008789062 129.97265625 827.008789062 c 0x96
 129.772460938 831.348632812 129.482421875 837.2890625 129.172851562 843.829101562 c 0
 128.192382812 864.029296875 126.952148438 889.869140625 126.952148438 891.508789062 c 0
 126.952148438 914.668945312 149.551757812 929.999023438 175.981445312 929.999023438 c 0
 201.44140625 929.999023438 224.021484375 914.668945312 224.021484375 891.499023438 c 0
 224.021484375 873.548828125 222.821289062 844.44921875 221.991210938 826.999023438 c 0xa6
 220.991210938 805.999023438 212.991210938 798.999023438 208.991210938 796.999023438 c 1
 208.991210938 781.999023438 l 2
 208.991210938 761.999023438 248.991210938 739.999023438 276.991210938 729.999023438 c 0x96
 305.791015625 719.439453125 317.05078125 698.739257812 317.05078125 674.979492188 c 4
 317.05078125 672.969726562 316.680664062 660.4296875 314.80078125 595.879882812 c 0
 313.741210938 559.700195312 312.201171875 507.169921875 309.991210938 431 c 0
 309.991210938 427 308.991210938 423 307.991210938 419 c 0
 414.250976562 339.879882812 521.100585938 285.290039062 613.990234375 263 c 1
 665.990234375 329 l 2
 667.520507812 330.940429688 669.810546875 332 671.990234375 332 c 0
 674.48046875 332 675.990234375 330.48046875 675.990234375 328 c 2
 675.990234375 301 l 1
 733.990234375 268 l 2
 738.990234375 265 742.990234375 260 742.990234375 256 c 0
 742.990234375 251 740.990234375 245 736.990234375 237 c 0
 731.990234375 227 724.990234375 222 712.990234375 222 c 2
 673.990234375 222 l 1
 657.990234375 146 l 1
 657.990234375 13 l 2
 657.990234375 4 648.990234375 0 632.990234375 0 c 0
 618.990234375 0 606.830078125 3.9404296875 605.990234375 13 c 2
 596.990234375 110 l 1
 549.990234375 110 l 2
 524.990234375 110 491.990234375 116 461.990234375 129 c 1
 442.990234375 13 l 2
 440.990234375 4 431.990234375 0 415.990234375 0 c 0
 402.08984375 0 394 3.9404296875 394 12.810546875 c 0
 393.999927854 12.8181641588 l 0
 393.999927854 13.4065911825 394.983893331 29.2024753593 397.650390625 71.9111328125 c 0
 399.520507812 101.94140625 402.220703125 145.28125 405.990234375 205.991210938 c 1
 391.990234375 211.991210938 379.990234375 230.991210938 379.990234375 244.991210938 c 1
 583.990234375 223.991210938 l 1
 594.990234375 237.991210938 l 1
 548.83984375 249.53125 504.129882812 267.420898438 459.66015625 290.180664062 c 0
 403.860351562 318.740234375 348.440429688 354.98046875 291 396 c 0x8e
=======
Flags: MW
HStem: 0 21G<409.05 424 626 641>
VStem: 82.99 83 126.96 97.07 141.99 67.01 184.99 83.5 601.5 56.5
LayerCount: 2
Back
Fore
SplineSet
291 396 m 0x8c
 287 394 281.991210938 392.999023438 275.991210938 392.999023438 c 1
 260.991210938 21.9990234375 l 2
 259.991210938 6.9990234375 248.991210938 -0.0009765625 224.991210938 -0.0009765625 c 0
 200.991210938 -0.0009765625 184.991210938 7.9990234375 184.991210938 21.9990234375 c 2
 184.991210938 388.999023438 l 1x8c
 165.991210938 388.999023438 l 1
 165.991210938 21.9990234375 l 2
 165.991210938 7.9990234375 149.991210938 -0.0009765625 126.991210938 -0.0009765625 c 0
 102.991210938 -0.0009765625 91.9912109375 6.9990234375 90.9912109375 21.9990234375 c 2
 74.9912109375 392.999023438 l 1
 49.9912109375 392.999023438 41.4716796875 411.979492188 40.9912109375 430.999023438 c 0
 35.9111328125 632.0390625 34.9912109375 655.348632812 34.9912109375 671.999023438 c 0xcc
 34.9912109375 696.999023438 43.9912109375 718.999023438 73.9912109375 729.999023438 c 0
 101.991210938 739.999023438 141.991210938 761.999023438 141.991210938 781.999023438 c 2
 141.991210938 796.999023438 l 1x94
 137.991210938 798.999023438 130.991210938 805.999023438 129.991210938 826.999023438 c 0
 129.141601562 844.739257812 126.961914062 889.338867188 126.961914062 891.508789062 c 0
 126.961914062 914.668945312 149.561523438 929.999023438 175.991210938 929.999023438 c 0
 201.451171875 929.999023438 224.03125 914.668945312 224.03125 891.499023438 c 0
 224.03125 873.548828125 222.831054688 844.44921875 222.000976562 826.999023438 c 0xa4
 221.000976562 805.999023438 213.000976562 798.999023438 209.000976562 796.999023438 c 1
 209.000976562 781.999023438 l 2x94
 209.000976562 761.999023438 249.000976562 739.999023438 277.000976562 729.999023438 c 0
 305.80078125 719.439453125 317.060546875 698.739257812 317.060546875 674.979492188 c 0
 317.060546875 671.849609375 316.16015625 643.049804688 309.990234375 431 c 0
 309.990234375 427 308.990234375 423 307.990234375 419 c 0
 414.259765625 339.879882812 521.109375 285.290039062 613.999023438 263 c 1
 665.999023438 329 l 2
 667.529296875 330.940429688 669.809570312 332 672 332 c 0
 674.48046875 332 676 330.48046875 676 328 c 2
 676 301 l 1
 734 268 l 2
 739 265 743 260 743 256 c 0
 743 251 741 245 737 237 c 0
 732 227 725 222 713 222 c 2
 674 222 l 1
 658 146 l 1
 658 13 l 2
 658 4 649 0 633 0 c 0
 619 0 606.83984375 3.9404296875 606 13 c 2
 597 110 l 1
 550 110 l 2
 525 110 492 116 462 129 c 1
 443 13 l 2
 441 4 432 0 416 0 c 0
 402.099609375 0 394 3.9404296875 394 12.810546875 c 0
 393.990234375 13.560546875 396.830078125 58.5009765625 406 206.000976562 c 1
 392 212.000976562 380 231.000976562 380 245.000976562 c 1
 584 224.000976562 l 1
 595 238.000976562 l 1
 490.919921875 264.020507812 394.209960938 322.290039062 291 396 c 0x8c
>>>>>>> FETCH_HEAD
EndSplineSet
EndChar

StartChar: C.ss01
Encoding: 65540 -1 66
Width: 540
Flags: MW
HStem: 0 929.99
<<<<<<< HEAD
VStem: 30 497
=======
VStem: 30 497<46.5 548.99>
>>>>>>> FETCH_HEAD
LayerCount: 2
Back
Fore
SplineSet
427 236 m 2
<<<<<<< HEAD
 424 259 423.000976562 264.000976562 417.000976562 278.000976562 c 2
 326.000976562 457.000976562 l 1
 335.000976562 606.000976562 l 1
 372.000976562 550.000976562 l 2
 382.000976562 537.000976562 390.000976562 533.000976562 408.000976562 528.000976562 c 2
 482.000976562 509.000976562 l 2
 486.000976562 508.000976562 491.000976562 507.000976562 496.000976562 507.000976562 c 0
 512.491210938 507.000976562 527.000976562 523.161132812 527.000976562 542.000976562 c 0
 527.000976562 556.000976562 521.000976562 563.000976562 506.000976562 568.000976562 c 2
 422.000976562 593.000976562 l 1
 351.000976562 716.000976562 l 2
 338.000976562 738.000976562 323.000976562 752.000976562 306.000976562 759.000976562 c 1
 308.000976562 790.000976562 l 1
 320.000976562 794.000976562 327.000976562 804.000976562 329.000976562 818.000976562 c 0
 330.560546875 831.420898438 331.91015625 842.661132812 333.049804688 852.05078125 c 0
 335.580078125 873.060546875 337 884.810546875 337 890.990234375 c 0
=======
 424 259 423 263.990234375 417 277.990234375 c 2
 326 456.990234375 l 1
 335 605.990234375 l 1
 372 549.990234375 l 2
 382 536.990234375 390 532.990234375 408 527.990234375 c 2
 482 508.990234375 l 2
 486 507.990234375 491 506.990234375 496 506.990234375 c 0
 512.490234375 506.990234375 527 523.150390625 527 541.990234375 c 0
 527 555.990234375 521 562.990234375 506 567.990234375 c 2
 422 592.990234375 l 1
 351 715.990234375 l 2
 338 737.990234375 323 751.990234375 306 758.990234375 c 1
 308 789.990234375 l 1
 320 793.990234375 327 803.990234375 329 817.990234375 c 0
 334.030273438 861.440429688 337 882.040039062 337 890.990234375 c 0
>>>>>>> FETCH_HEAD
 337 911.990234375 314 929.990234375 287 929.990234375 c 0
 260 929.990234375 244 914.990234375 242 890.990234375 c 0
 239.23046875 846.959960938 238 826.690429688 238 825 c 0
 238 810 243 801 252 793 c 1
 252 778 240 769 228 764 c 0
<<<<<<< HEAD
 212 758 192.5 743.650390625 175 721 c 2
 97 620 l 2
 88 608 81 590 79 572 c 0
 75.3603515625 541.440429688 72.5400390625 518.709960938 70.4697265625 502.040039062 c 0
 67.419921875 477.4296875 66 466 66 462 c 0
=======
 212 758 192.490234375 743.650390625 175 721 c 2
 97 620 l 2
 88 608 81 590 79 572 c 0
 69.990234375 496.33984375 66 468.719726562 66 462 c 0
>>>>>>> FETCH_HEAD
 66 446 80 430 98 430 c 0
 115 430 126 438 129 462 c 2
 142 572 l 1
 197 624 l 1
 179 451 l 1
 131 225 l 1
 59 106 l 2
 34 65 30 57 30 51 c 0
 30 42 36 34 48 25 c 0
 62 15 70 12 78 12 c 0
 85 12 92 15 96 21 c 2
 178 148 l 2
 195 176 206 195 215 218 c 2
 265 357 l 1
 343 231 l 1
 375 22 l 2
 380 4 394 0 419 0 c 0
 440 0 452 6 452 17 c 0
 452 19 452 20 451 31 c 2
 427 236 l 2
EndSplineSet
EndChar

StartChar: D.ss01
Encoding: 65541 -1 67
Width: 800
Flags: MW
HStem: 0 51 523 68<455.736 585.001 479.001 537.001>
<<<<<<< HEAD
VStem: 158.99 88 207.96 97.07 222.99 67.01 265.99 86.01 503.99 52 537 31.99 620.99 32 634.99 52
=======
VStem: 158.99 88 207.96 97.07 222.99 67.01 265.99 86 503.99 52 537 31.99 620.99 32 634.99 52
>>>>>>> FETCH_HEAD
LayerCount: 2
Back
Fore
SplineSet
<<<<<<< HEAD
342 22 m 2x4580
 341 7 329.9921875 -0.0009765625 305.9921875 -0.0009765625 c 0
 281.9921875 -0.0009765625 265.9921875 7.9990234375 265.9921875 21.9990234375 c 2
 265.9921875 388.999023438 l 1x4580
=======
362 623 m 1xc580
 341.9921875 21.9990234375 l 2
 340.9921875 6.9990234375 329.9921875 -0.0009765625 305.9921875 -0.0009765625 c 0
 281.9921875 -0.0009765625 265.9921875 7.9990234375 265.9921875 21.9990234375 c 2
 265.9921875 388.999023438 l 1xc580
>>>>>>> FETCH_HEAD
 246.9921875 388.999023438 l 1
 246.9921875 21.9990234375 l 2
 246.9921875 7.9990234375 231.9921875 -0.0009765625 207.9921875 -0.0009765625 c 0
 183.9921875 -0.0009765625 169.9921875 6.9990234375 168.9921875 21.9990234375 c 2
 148.9921875 642.999023438 l 1
<<<<<<< HEAD
 99.9921875 606.999023438 l 2x6580
=======
 99.9921875 606.999023438 l 2xe580
>>>>>>> FETCH_HEAD
 83.9921875 594.999023438 71.9921875 592.999023438 57.9921875 592.999023438 c 0
 39.47265625 592.999023438 26.4423828125 599.168945312 19.9921875 610.999023438 c 2
 -56.0078125 759.999023438 l 2
 -61.0078125 769.999023438 -64.0078125 775.999023438 -64.0078125 782.999023438 c 0
 -64.0078125 797.999023438 -51.0078125 810.999023438 -36.0078125 810.999023438 c 0
 -24.0078125 810.999023438 -15.0078125 803.999023438 -9.0078125 791.999023438 c 2
 57.9921875 662.999023438 l 1
 87.9921875 691.999023438 134.9921875 724.999023438 169.9921875 734.999023438 c 0
 193.9921875 741.999023438 222.9921875 761.999023438 222.9921875 781.999023438 c 2
<<<<<<< HEAD
 222.9921875 796.999023438 l 1x4980
=======
 222.9921875 796.999023438 l 1xc980
>>>>>>> FETCH_HEAD
 218.9921875 798.999023438 212.162109375 806.0390625 210.9921875 826.999023438 c 0
 209.952148438 845.729492188 207.961914062 889.33984375 207.961914062 891.5 c 0
 207.961914062 914.66015625 230.561523438 930 256.991210938 930 c 0
 282.451171875 930 305.03125 914.66015625 305.03125 891.5 c 0
<<<<<<< HEAD
 305.03125 883.540039062 304.000976562 843.459960938 303.000976562 827 c 0x5180
=======
 305.03125 883.540039062 304.000976562 843.459960938 303.000976562 827 c 0xd180
>>>>>>> FETCH_HEAD
 301.720703125 806.009765625 294.000976562 799 290.000976562 797 c 1
 290.000976562 782 l 2
 290.000976562 762 329.000976562 741 358.000976562 730 c 0
 379.000976562 722 398.000976562 707 411.000976562 691 c 2
 479.000976562 591 l 1
 585.000976562 591 l 2
 612.000976562 591 624.000976562 577 624.000976562 554 c 1
 640.000976562 554 l 2
 649.000976562 554 653.000976562 548 653.000976562 534 c 2
 653.000976562 448 l 1
<<<<<<< HEAD
 663.000976562 448 l 2
 699.000976562 448 730.000976562 419 731.000976562 381 c 0
 732.000976562 349.549804688 733.331054688 309.200195312 734.670898438 268.850585938 c 0
 737.331054688 188.150390625 740.000976562 107.440429688 740.000976562 97.990234375 c 0
 740.000976562 87.990234375 731.000976562 68.990234375 711.000976562 68.990234375 c 2
 479.000976562 68.990234375 l 2
 459.000976562 68.990234375 450.000976562 87.990234375 450.000976562 97.990234375 c 0
 450.000976562 107.440429688 452.661132812 188.150390625 455.331054688 268.850585938 c 0
 456.661132812 309.200195312 458.000976562 349.549804688 459.000976562 381 c 0x4a80
=======
 663.000976562 448 l 2xc980
 699.000976562 448 730.000976562 419 731.000976562 381 c 0
 734.000976562 286.66015625 740.000976562 112.169921875 740.000976562 98 c 0
 740.000976562 88 731.000976562 69 711.000976562 69 c 2xc540
 479.000976562 69 l 2
 459.000976562 69 450.000976562 88 450.000976562 98 c 0
 450.000976562 112.169921875 456.000976562 286.66015625 459.000976562 381 c 0
>>>>>>> FETCH_HEAD
 460.000976562 424 494.000976562 448 537.000976562 448 c 1
 537.000976562 523 l 1
 461.791015625 523 l 2
 449.680664062 523 442.190429688 527.48046875 430 542 c 2
<<<<<<< HEAD
 362 623 l 1
 342 22 l 2x4580
620.9921875 522.999023438 m 1
 568.9921875 522.999023438 l 1
 568.9921875 447.999023438 l 1
 620.9921875 447.999023438 l 1
 620.9921875 522.999023438 l 1
=======
 362 623 l 1xc580
620.9921875 447.999023438 m 1
 620.9921875 522.999023438 l 1
 568.9921875 522.999023438 l 1
 568.9921875 447.999023438 l 1
 620.9921875 447.999023438 l 1
>>>>>>> FETCH_HEAD
529.9921875 50.9990234375 m 0xc640
 543.9921875 50.9990234375 555.9921875 39.9990234375 555.9921875 24.9990234375 c 0
 555.9921875 10.9990234375 543.9921875 -0.0009765625 529.9921875 -0.0009765625 c 0
 515.9921875 -0.0009765625 503.9921875 10.9990234375 503.9921875 24.9990234375 c 0
 503.9921875 39.9990234375 515.9921875 50.9990234375 529.9921875 50.9990234375 c 0xc640
660.9921875 50.9990234375 m 0
 675.9921875 50.9990234375 686.9921875 39.9990234375 686.9921875 24.9990234375 c 0
 686.9921875 10.9990234375 675.9921875 -0.0009765625 660.9921875 -0.0009765625 c 0
 646.9921875 -0.0009765625 634.9921875 10.9990234375 634.9921875 24.9990234375 c 0
 634.9921875 39.9990234375 646.9921875 50.9990234375 660.9921875 50.9990234375 c 0
EndSplineSet
EndChar

StartChar: E.ss01
Encoding: 65542 -1 68
Width: 700
Flags: MW
<<<<<<< HEAD
HStem: 0 51 523 68
VStem: 95.99 52 129.99 32 213.99 32 226.99 52 431.5 85.5 477.96 97.07 492.99 65.01 536 83.5
LayerCount: 2
Back
Fore
SplineSet
353 542 m 2x5a
 345.940429688 532.169921875 337.990234375 522.999023438 323.990234375 522.999023438 c 2
 245.990234375 522.999023438 l 1
 245.990234375 447.999023438 l 1
 288.990234375 447.999023438 322.990234375 423.999023438 323.990234375 380.999023438 c 0
 324.990234375 349.548828125 326.330078125 309.21875 327.66015625 268.87890625 c 0
 330.330078125 188.21875 332.990234375 107.548828125 332.990234375 97.9990234375 c 0
 332.990234375 87.9990234375 323.990234375 68.9990234375 303.990234375 68.9990234375 c 2
 71.990234375 68.9990234375 l 2
 51.990234375 68.9990234375 42.990234375 87.9990234375 42.990234375 97.9990234375 c 0
 42.990234375 107.548828125 45.66015625 188.21875 48.3203125 268.87890625 c 0
 49.66015625 309.21875 50.990234375 349.548828125 51.990234375 380.999023438 c 0x6a
 52.990234375 418.999023438 83.990234375 447.999023438 119.990234375 447.999023438 c 2
 129.990234375 447.999023438 l 1
 129.990234375 533.999023438 l 2
 129.990234375 547.999023438 133.990234375 553.999023438 142.990234375 553.999023438 c 2
 158.990234375 553.999023438 l 1
 158.990234375 576.999023438 170.990234375 590.999023438 197.990234375 590.999023438 c 2
 303.990234375 590.999023438 l 1
 370.990234375 687.999023438 l 2
 381.080078125 702.598632812 394.040039062 712.258789062 425.990234375 728.999023438 c 0
 466.290039062 749.888671875 492.990234375 765.369140625 492.990234375 781.999023438 c 2
 492.990234375 796.999023438 l 1x5880
 488.990234375 798.999023438 480.990234375 805.999023438 479.990234375 826.999023438 c 0
 479.740234375 832.399414062 477.959960938 873.549804688 477.959960938 891.5 c 0
 477.959960938 914.669921875 500.540039062 930 526 930 c 0
 552.4296875 930 575.029296875 914.669921875 575.029296875 891.509765625 c 0
 575.029296875 873.549804688 573.259765625 832.41015625 573 827 c 0x59
 572 806 562 799 558 797 c 1
 558 782 l 2
 558 762 600 740 628 730 c 0x5880
 658 719 667 697 667 672 c 0
 667 646.450195312 665.219726562 583.560546875 663.439453125 520.670898438 c 0
 662.549804688 489.220703125 661.66015625 457.780273438 661 431 c 0
 660.51953125 411.98046875 652 393 627 393 c 1
 612 22 l 2
 611 7 599 0 575 0 c 0
 552 0 536 8 536 22 c 2
 536 393 l 1x5a40
 517 393 l 1
 517 22 l 2
 517 8 501 0 477 0 c 0
 453 0 442 7 441 22 c 2
 422 638 l 1
 353 542 l 2x5a
213.990234375 447.999023438 m 1
 213.990234375 522.999023438 l 1
 161.990234375 522.999023438 l 1
 161.990234375 447.999023438 l 1
 213.990234375 447.999023438 l 1
121.990234375 50.9990234375 m 0xe6
 135.990234375 50.9990234375 147.990234375 39.9990234375 147.990234375 24.9990234375 c 0
 147.990234375 10.9990234375 135.990234375 -0.0009765625 121.990234375 -0.0009765625 c 0
 106.990234375 -0.0009765625 95.990234375 10.9990234375 95.990234375 24.9990234375 c 0
 95.990234375 39.9990234375 106.990234375 50.9990234375 121.990234375 50.9990234375 c 0xe6
252.990234375 50.9990234375 m 0
 266.990234375 50.9990234375 278.990234375 39.9990234375 278.990234375 24.9990234375 c 0
 278.990234375 10.9990234375 266.990234375 -0.0009765625 252.990234375 -0.0009765625 c 0
 238.990234375 -0.0009765625 226.990234375 10.9990234375 226.990234375 24.9990234375 c 0
 226.990234375 39.9990234375 238.990234375 50.9990234375 252.990234375 50.9990234375 c 0
=======
HStem: -0.0200043 51 522.98 31.01 522.99 65.37
VStem: 96 52 130 31.99 214 32 227 52 428.5 86.73 477.49 94.94 493.12 66.31 534.7 82.94
LayerCount: 2
Back
Fore
SplineSet
625 737.549804688 m 0xac40
 651.26953125 728.530273438 657.150390625 707.598632812 657.150390625 668.758789062 c 2
 657.150390625 431.69921875 l 2xac40
 657.150390625 412.2890625 650.440429688 393.279296875 625.430664062 393.26953125 c 1
 609.850585938 21.94921875 l 2
 609.310546875 7.4794921875 597.780273438 0.1796875 573.870117188 0.1796875 c 0
 550.1796875 0.1796875 534.69921875 8.0595703125 534.69921875 21.9599609375 c 2
 534.758789062 389.299804688 l 1xad20
 515.168945312 389.299804688 l 1
 515.228515625 21.9599609375 l 2
 515.228515625 8.0595703125 499.80859375 0.1796875 475.938476562 0.1796875 c 0
 452.028320312 0.1796875 440.568359375 7.4892578125 439.978515625 21.958984375 c 2
 417.018554688 620.7890625 l 1
 357.838867188 541.838867188 l 2
 345.87890625 527.098632812 336.909179688 522.98828125 318.599609375 522.98828125 c 2
 246.009765625 522.98828125 l 1
 246.009765625 447.98828125 l 1xad
 289.009765625 447.98828125 323.009765625 423.98828125 324.009765625 380.98828125 c 0
 327.009765625 286.658203125 333.009765625 112.318359375 333.009765625 97.98828125 c 0
 333.009765625 87.98828125 324.009765625 68.98828125 304.009765625 68.98828125 c 2
 72.009765625 68.98828125 l 2
 52.009765625 68.98828125 43.009765625 87.98828125 43.009765625 97.98828125 c 0
 43.009765625 112.318359375 49.009765625 286.658203125 52.009765625 380.98828125 c 0
 53.009765625 418.98828125 84.009765625 447.98828125 120.009765625 447.98828125 c 2
 130.009765625 447.98828125 l 1
 130.009765625 533.98828125 l 2
 130.009765625 547.98828125 134.009765625 553.98828125 143.009765625 553.98828125 c 2xcd
 159.849609375 553.98828125 l 1
 159.859375 556.388671875 l 2
 159.849609375 574.858398438 174.01953125 588.358398438 192.469726562 588.358398438 c 2
 296.9296875 588.358398438 l 1
 367.91015625 695.978515625 l 2
 383.73046875 719.96875 399.3203125 730.678710938 424.83984375 737.548828125 c 0
 460.379882812 747.208984375 493.120117188 758.7890625 493.120117188 778.2890625 c 2
 493.1796875 796.619140625 l 1xac40
 488.849609375 798.859375 481.059570312 802.569335938 480.189453125 823.239257812 c 0
 479.469726562 841.599609375 478.239257812 872.409179688 477.489257812 889.889648438 c 0
 476.508789062 913.859375 499.829101562 929.979492188 526.338867188 929.979492188 c 0
 552.798828125 929.979492188 576.279296875 913.76953125 575.139648438 889.889648438 c 0
 574.309570312 872.469726562 573.109375 841.639648438 572.4296875 823.239257812 c 0xac80
 571.620117188 802.569335938 563.8203125 798.859375 559.5 796.58984375 c 1
 559.4296875 778.290039062 l 2
 559.4296875 758.790039062 598.219726562 746.799804688 625 737.549804688 c 0xac40
214.000976562 447.978515625 m 1xcd
 214.000976562 522.978515625 l 1
 162.000976562 522.978515625 l 1
 162.000976562 447.978515625 l 1
 214.000976562 447.978515625 l 1xcd
122.000976562 50.978515625 m 0xb3
 136.000976562 50.978515625 148.000976562 39.978515625 148.000976562 24.978515625 c 0
 148.000976562 10.978515625 136.000976562 -0.021484375 122.000976562 -0.021484375 c 0
 107.000976562 -0.021484375 96.0009765625 10.978515625 96.0009765625 24.978515625 c 0
 96.0009765625 39.978515625 107.000976562 50.978515625 122.000976562 50.978515625 c 0xb3
253.000976562 50.978515625 m 0
 267.000976562 50.978515625 279.000976562 39.978515625 279.000976562 24.978515625 c 0
 279.000976562 10.978515625 267.000976562 -0.021484375 253.000976562 -0.021484375 c 0
 239.000976562 -0.021484375 227.000976562 10.978515625 227.000976562 24.978515625 c 0
 227.000976562 39.978515625 239.000976562 50.978515625 253.000976562 50.978515625 c 0
>>>>>>> FETCH_HEAD
EndSplineSet
EndChar

StartChar: F.ss01
Encoding: 65543 -1 69
<<<<<<< HEAD
Width: 683
Flags: MW
HStem: 522.99 66
VStem: 426 87 474.01 97 489.01 67 532 83.5
LayerCount: 2
Back
Fore
SplineSet
370 538 m 2xc0
 365 528 359.009765625 522.990234375 339.009765625 522.990234375 c 2xc0
 203.009765625 522.990234375 l 2
 184.009765625 522.990234375 169.009765625 537.990234375 169.009765625 556.990234375 c 0
 169.009765625 572.990234375 183.009765625 588.990234375 202.009765625 588.990234375 c 2
 324.009765625 588.990234375 l 1
 359.009765625 672.990234375 l 2
 371.009765625 699.990234375 395.009765625 723.990234375 445.009765625 740.990234375 c 0
 468.009765625 748.990234375 489.009765625 767.990234375 489.009765625 790.990234375 c 2
 489.009765625 796.990234375 l 2
 486.009765625 798.990234375 478.009765625 805.990234375 477.009765625 826.990234375 c 0x90
 476.6796875 833.990234375 476.229492188 842.100585938 475.7890625 850.2109375 c 0
 474.899414062 866.430664062 474.009765625 882.650390625 474.009765625 889.990234375 c 0
 474.009765625 913.990234375 496.009765625 929.990234375 522.009765625 929.990234375 c 0
 550.009765625 929.990234375 571.009765625 913.990234375 571.009765625 889.990234375 c 0
 571.009765625 882.650390625 570.41015625 866.419921875 569.8203125 850.189453125 c 0
 569.520507812 842.08984375 569.23046875 833.990234375 569.010742188 827 c 0xa0
 568.010742188 806 560.010742188 799 556.010742188 797 c 1
 556.010742188 791 l 2
 556.010742188 770 561.010742188 754 600.010742188 740 c 0x90
 656.010742188 722 664.010742188 700.009765625 664.010742188 665 c 0
 664.010742188 646.33984375 661.930664062 583.25 659.860351562 520.16015625 c 0
 658.8203125 488.58984375 657.780273438 457.009765625 657 431 c 0
 656 414 648 393 623 393 c 1
 608 22 l 2
 607 7 596 0 572 0 c 0
 548 0 532 8 532 22 c 2
 532 389 l 1xc8
 513 389 l 1
 513 22 l 2
 513 8 497 0 474 0 c 0
 450 0 439 7 438 22 c 2
 414 634 l 1
 370 538 l 2xc0
192.009765625 445.990234375 m 2
 197.009765625 434.990234375 200.009765625 424.990234375 200.009765625 417.990234375 c 0
 200.009765625 406.990234375 197.009765625 403.990234375 187.009765625 398.990234375 c 2
 170.009765625 390.990234375 l 2
 166.009765625 388.990234375 162.009765625 387.990234375 159.009765625 387.990234375 c 0
 149.009765625 387.990234375 141.009765625 397.990234375 132.009765625 416.990234375 c 2
 127.009765625 427.990234375 l 2
 121.009765625 440.990234375 119.009765625 448.990234375 119.009765625 453.990234375 c 0
 119.009765625 462.990234375 122.009765625 468.990234375 130.009765625 472.990234375 c 2
 149.009765625 481.990234375 l 2
 154.009765625 483.990234375 157.009765625 483.990234375 161.009765625 483.990234375 c 0
 169.009765625 483.990234375 178.009765625 474.990234375 187.009765625 455.990234375 c 2
 192.009765625 445.990234375 l 2
248.009765625 335.990234375 m 2
 264.009765625 335.990234375 275.020507812 324.990234375 275.020507812 313.990234375 c 0
 275.020507812 300.440429688 265.830078125 223.780273438 256.650390625 147.120117188 c 0
 252.05078125 108.780273438 247.4609375 70.4404296875 244.010742188 39.990234375 c 0
 241.010742188 18.990234375 230.010742188 -1.009765625 201.010742188 -1.009765625 c 2
 98.0107421875 -1.009765625 l 2
 69.0107421875 -1.009765625 58.0107421875 18.990234375 56.0107421875 39.990234375 c 0
 52.4609375 70.4306640625 47.720703125 108.760742188 42.98046875 147.081054688 c 0
 33.5 223.760742188 24.009765625 300.440429688 24.009765625 313.990234375 c 0
 24.009765625 325.990234375 35.009765625 335.990234375 51.009765625 335.990234375 c 2
 248.009765625 335.990234375 l 2
=======
Width: 698
Flags: MW
HStem: -1.02 337 -0.00999451 21G 522.99 66
VStem: 425.7 87.29 473.48 94.94 489.11 66.31 531.99 83.59
LayerCount: 2
Back
Fore
SplineSet
420.830078125 737.549804688 m 0x64
 456.370117188 747.209960938 489.111328125 758.77734375 489.111328125 778.27734375 c 2
 489.170898438 796.607421875 l 1x64
 484.840820312 798.84765625 477.05078125 802.557617188 476.180664062 823.227539062 c 0
 475.4609375 841.587890625 474.23046875 872.397460938 473.48046875 889.877929688 c 0
 472.5 913.84765625 495.8203125 929.967773438 522.330078125 929.967773438 c 0
 548.790039062 929.967773438 572.270507812 913.7578125 571.130859375 889.877929688 c 0
 570.30078125 872.458007812 569.100585938 841.627929688 568.420898438 823.227539062 c 0x68
 567.611328125 802.557617188 559.811523438 798.84765625 555.491210938 796.578125 c 1
 555.420898438 778.278320312 l 2
 555.420898438 758.778320312 594.2109375 746.788085938 620.991210938 737.538085938 c 0
 647.260742188 728.518554688 653.140625 707.608398438 653.140625 668.768554688 c 2
 653.140625 431.708984375 l 2x64
 653.140625 412.298828125 646.430664062 393.2890625 623.180664062 393.2890625 c 1
 607.990234375 21.9892578125 l 2
 607.390625 6.9697265625 595.990234375 -0.0107421875 571.990234375 -0.0107421875 c 0
 547.990234375 -0.0107421875 531.990234375 7.9892578125 531.990234375 21.9892578125 c 2
 531.990234375 388.989257812 l 1x72
 512.990234375 388.989257812 l 1
 512.990234375 21.9892578125 l 2
 512.990234375 7.9892578125 496.990234375 -0.0107421875 473.990234375 -0.0107421875 c 0
 449.990234375 -0.0107421875 438.580078125 6.9697265625 437.990234375 21.9892578125 c 2
 413.41015625 611.508789062 l 1
 361.990234375 537.989257812 l 2x70
 355.600585938 528.819335938 350.990234375 522.989257812 330.990234375 522.989257812 c 2
 202.990234375 522.989257812 l 2
 183.990234375 522.989257812 168.990234375 537.989257812 168.990234375 556.989257812 c 0
 168.990234375 572.989257812 182.990234375 588.989257812 201.990234375 588.989257812 c 2
 306.990234375 588.989257812 l 1
 365.629882812 686.94921875 l 2
 381.290039062 713.099609375 387.889648438 728.599609375 420.830078125 737.549804688 c 0x64
187.000976562 455.977539062 m 2
 192.000976562 445.977539062 l 2
 197.000976562 434.977539062 200.000976562 424.977539062 200.000976562 417.977539062 c 0
 200.000976562 406.977539062 197.000976562 403.977539062 187.000976562 398.977539062 c 2
 170.000976562 390.977539062 l 2
 166.000976562 388.977539062 162.000976562 387.977539062 159.000976562 387.977539062 c 0
 149.000976562 387.977539062 141.000976562 397.977539062 132.000976562 416.977539062 c 2
 127.000976562 427.977539062 l 2
 121.000976562 440.977539062 119.000976562 448.977539062 119.000976562 453.977539062 c 0
 119.000976562 462.977539062 122.000976562 468.977539062 130.000976562 472.977539062 c 2
 149.000976562 481.977539062 l 2
 154.000976562 483.977539062 157.000976562 483.977539062 161.000976562 483.977539062 c 0
 169.000976562 483.977539062 178.000976562 474.977539062 187.000976562 455.977539062 c 2
51.0009765625 335.977539062 m 2xb0
 248.000976562 335.977539062 l 2
 264.000976562 335.977539062 275.000976562 324.977539062 275.000976562 313.977539062 c 0
 275.000976562 293.647460938 254.331054688 131.307617188 244.000976562 39.9775390625 c 0
 241.000976562 18.9775390625 230.000976562 -1.0224609375 201.000976562 -1.0224609375 c 2
 98.0009765625 -1.0224609375 l 2
 69.0009765625 -1.0224609375 58.0009765625 18.9775390625 56.0009765625 39.9775390625 c 0
 45.3310546875 131.307617188 24.0009765625 293.647460938 24.0009765625 313.977539062 c 0
 24.0009765625 325.977539062 35.0009765625 335.977539062 51.0009765625 335.977539062 c 2xb0
>>>>>>> FETCH_HEAD
EndSplineSet
EndChar

StartChar: G.ss01
Encoding: 65544 -1 70
Width: 880
Flags: MW
<<<<<<< HEAD
HStem: 393 73<506.99 573.99 506.99 609> 700 29 754 27 849.99 22.01 900 30
VStem: 0 28.99 95.98 26 124.98 26 199.99 30.01 267.99 239 356.99 62 617 83 660.96 97.07 675.99 67.01 719 82.5
LayerCount: 2
Back
Fore
SplineSet
114 700 m 0xcec2
 50 700 0 750 0 815 c 0
 0 879 50 930 114 930 c 0
 179 930 230 879 230 815 c 0
 230 750 179 700 114 700 c 0xcec2
19 393 m 2
 9 393 -0.0087890625 403.000976562 -0.0087890625 422.000976562 c 2
 -0.0087890625 437.000976562 l 2
 -0.0087890625 456.000976562 8.9912109375 466.000976562 18.9912109375 466.000976562 c 2
 267.991210938 466.000976562 l 1
 267.991210938 652.000976562 l 2xcec2
 267.991210938 679.000976562 286.991210938 700.000976562 315.991210938 700.000976562 c 0
 334.991210938 700.000976562 356.991210938 725.000976562 356.991210938 734.000976562 c 2
 356.991210938 747.000976562 l 1
 350.991210938 747.000976562 346.991210938 753.000976562 344.991210938 766.000976562 c 0
 343.880859375 773.560546875 342.390625 783.120117188 340.91015625 792.6796875 c 0
 337.950195312 811.790039062 334.990234375 830.889648438 334.990234375 834 c 0
 334.990234375 862 360.990234375 872 388.990234375 872 c 0
 413.990234375 872 439.990234375 862 439.990234375 834 c 0
 439.990234375 830.889648438 437.330078125 811.779296875 434.66015625 792.668945312 c 0
 433.330078125 783.109375 431.990234375 773.559570312 430.990234375 766 c 0
 428.990234375 753 423.990234375 747 418.990234375 747 c 1
 418.990234375 734 l 2xcea2
 418.990234375 725 430.990234375 700 458.990234375 700 c 0
 487.990234375 700 506.990234375 680 506.990234375 652 c 2
 506.990234375 466 l 1
 573.990234375 466 l 1
 572.33984375 533.75 571.1796875 580.58984375 570.389648438 612.479492188 c 0
 569.319335938 655.329101562 568.9296875 671.19921875 568.9296875 674.529296875 c 0xced2
 568.9296875 698.479492188 579.009765625 719.369140625 607.990234375 729.999023438 c 0
 635.990234375 739.999023438 675.990234375 761.999023438 675.990234375 781.999023438 c 2
 675.990234375 796.999023438 l 1xcec4
 671.990234375 798.999023438 666.400390625 806.138671875 663.990234375 826.999023438 c 0
 661.950195312 844.729492188 660.959960938 889.33984375 660.959960938 891.5 c 0
 660.959960938 914.66015625 683.559570312 930 709.989257812 930 c 0
 735.44921875 930 758.029296875 914.66015625 758.029296875 891.5 c 0
 758.029296875 873.540039062 756.999023438 844.459960938 755.999023438 827 c 0xcec8
 754.798828125 806.009765625 746.999023438 799 742.999023438 797 c 1
 742.999023438 782 l 2
 742.999023438 762 782.999023438 740 810.999023438 730 c 0xcec4
 840.029296875 719.349609375 851.059570312 698.239257812 851.059570312 674.399414062 c 0
 851.059570312 671.099609375 850.869140625 664.599609375 849.62890625 622.76953125 c 0
 848.609375 588.479492188 846.889648438 530.459960938 844 431 c 0
 843 409 833 393 808 393 c 1
 795 22 l 2
 794 7 783 0 759 0 c 0
 735 0 719 8 719 22 c 2
 719 393 l 1xcec2
 700 393 l 1
 700 22 l 2
 700 8 684 0 661 0 c 0
 637 0 626 7 625 22 c 2
 609 393 l 1xced2
 19 393 l 2
113.991210938 729.000976562 m 0
 161.991210938 729.000976562 199.991210938 767.000976562 199.991210938 815.000976562 c 0
 199.991210938 862.000976562 161.991210938 900.000976562 113.991210938 900.000976562 c 0
 66.9912109375 900.000976562 28.9912109375 862.000976562 28.9912109375 815.000976562 c 0
 28.9912109375 767.000976562 66.9912109375 729.000976562 113.991210938 729.000976562 c 0
107.991210938 792.000976562 m 2xddc2
 100.991210938 792.000976562 98.978515625 792.001953125 98.978515625 796.001953125 c 0
 98.978515625 805.631835938 103.778320312 814.021484375 109.978515625 821.001953125 c 0
 111.818359375 823.061523438 113.598632812 824.971679688 115.249023438 826.741210938 c 0
 120.819335938 832.69140625 124.979492188 837.141601562 124.979492188 840.991210938 c 0
 124.979492188 845.991210938 121.979492188 849.991210938 112.979492188 849.991210938 c 0
 106.069335938 849.991210938 100.599609375 847.611328125 97.2099609375 846.130859375 c 0
 95.7001953125 845.470703125 94.6005859375 845.000976562 93.98046875 845.000976562 c 0
 89.98046875 845.000976562 83.98046875 855.000976562 83.98046875 858.000976562 c 0
 83.98046875 868.000976562 101.98046875 872.000976562 114.98046875 872.000976562 c 0
 137.98046875 872.000976562 150.98046875 861.000976562 150.98046875 842.000976562 c 0
 150.98046875 827.380859375 141.760742188 819.600585938 133.291015625 812.4609375 c 0
 127.28125 807.390625 121.651367188 802.640625 119.991210938 796.000976562 c 0
 118.991210938 792.000976562 116.991210938 792.000976562 111.991210938 792.000976562 c 2
 107.991210938 792.000976562 l 2xddc2
111.978515625 781.001953125 m 2
 118.978515625 781.001953125 121.978515625 779.001953125 121.978515625 775.001953125 c 2
 121.978515625 759.001953125 l 2
 121.978515625 756.001953125 118.978515625 754.001953125 111.978515625 754.001953125 c 2
 105.978515625 754.001953125 l 2
 99.978515625 754.001953125 95.978515625 756.001953125 95.978515625 759.001953125 c 2xeec2
 95.978515625 775.001953125 l 2
 95.978515625 779.001953125 99.978515625 781.001953125 105.978515625 781.001953125 c 2
 111.978515625 781.001953125 l 2
=======
HStem: -0.169998 21G 390.33 73.33 699.99 29 753.99 27 849.99 22 899.99 30
VStem: -0.0200043 29 95.98 26 124.98 26 199.98 30 338.08 97.88 355.4 63.24 617.02 82.96 662.21 94.98 676.56 66.26 719.47 82.72
LayerCount: 2
Back
Fore
SplineSet
850.830078125 668.490234375 m 2xe761
 844.861328125 431.3125 l 2
 844.37109375 411.90234375 835.220703125 393.092773438 809.720703125 393.092773438 c 1
 794.670898438 21.623046875 l 2
 794.130859375 7.11328125 782.650390625 -0.1669921875 758.720703125 -0.1669921875 c 0
 734.900390625 -0.1669921875 719.470703125 7.712890625 719.470703125 21.623046875 c 2
 719.530273438 389.163085938 l 1xe761
 699.930664062 389.163085938 l 1
 699.98046875 21.623046875 l 2
 699.98046875 7.712890625 684.5 -0.1669921875 660.6796875 -0.1669921875 c 0
 636.799804688 -0.1669921875 625.219726562 7.11328125 624.6796875 21.623046875 c 2
 609.359375 390.333007812 l 1
 15.5693359375 390.333007812 l 2
 5.609375 390.333007812 0.62890625 399.373046875 0.62890625 417.422851562 c 2
 0.62890625 436.5625 l 2
 0.62890625 454.622070312 5.609375 463.662109375 15.5693359375 463.662109375 c 2
 268.2890625 463.662109375 l 1
 268.779296875 640.692382812 l 2
 268.779296875 661.782226562 282.149414062 678.211914062 311.219726562 682.971679688 c 0
 338.939453125 687.471679688 355.399414062 706.8515625 355.399414062 729.181640625 c 2
 355.399414062 740.931640625 l 2xe759
 351.549804688 742.662109375 341.58984375 746.702148438 340.780273438 767.432617188 c 2
 338.080078125 834.1328125 l 2
 338.080078125 858.0625 360.709960938 874.2421875 386.959960938 874.2421875 c 0
 413.330078125 874.2421875 435.959960938 858.0625 435.959960938 834.1328125 c 2
 433.200195312 767.432617188 l 2xe761
 432.390625 746.702148438 422.430664062 742.662109375 418.640625 740.931640625 c 2
 418.640625 729.181640625 l 2
 418.640625 706.8515625 435.100585938 687.471679688 462.760742188 682.971679688 c 0
 491.890625 678.211914062 505.260742188 662.811523438 505.260742188 640.69140625 c 2
 505.640625 463.661132812 l 1
 573.750976562 463.661132812 l 1
 568.661132812 668.491210938 l 2xe759
 568.661132812 693.861328125 577.970703125 715.491210938 608.180664062 726.340820312 c 0
 636.55078125 736.470703125 676.560546875 758.911132812 676.560546875 778.37109375 c 2
 676.560546875 797.2109375 l 1xe762
 672.23046875 799.401367188 664.430664062 805.87109375 663.5703125 826.55078125 c 2
 660.860351562 889.970703125 l 2
 659.830078125 913.900390625 683.219726562 930.060546875 709.689453125 930.060546875 c 0
 736.219726562 930.060546875 759.76953125 913.870117188 758.51953125 889.969726562 c 2
 755.869140625 826.549804688 l 2xe764
 754.999023438 805.870117188 747.208984375 799.400390625 742.819335938 797.209960938 c 1
 742.819335938 778.370117188 l 2
 742.819335938 758.91015625 782.889648438 736.469726562 811.259765625 726.33984375 c 0xe762
 841.41015625 715.490234375 850.830078125 693.860351562 850.830078125 668.490234375 c 2xe761
113.981445312 699.9921875 m 0
 49.9814453125 699.9921875 -0.0185546875 749.9921875 -0.0185546875 814.9921875 c 0
 -0.0185546875 878.9921875 49.9814453125 929.9921875 113.981445312 929.9921875 c 0
 178.981445312 929.9921875 229.981445312 878.9921875 229.981445312 814.9921875 c 0
 229.981445312 749.9921875 178.981445312 699.9921875 113.981445312 699.9921875 c 0
113.981445312 728.9921875 m 0
 161.981445312 728.9921875 199.981445312 766.9921875 199.981445312 814.9921875 c 0
 199.981445312 861.9921875 161.981445312 899.9921875 113.981445312 899.9921875 c 0
 66.9814453125 899.9921875 28.9814453125 861.9921875 28.9814453125 814.9921875 c 0
 28.9814453125 766.9921875 66.9814453125 728.9921875 113.981445312 728.9921875 c 0
107.981445312 791.9921875 m 2xeee1
 100.981445312 791.9921875 98.9814453125 791.993164062 98.9814453125 795.993164062 c 0
 98.9814453125 805.623046875 103.771484375 814.012695312 109.981445312 820.993164062 c 0
 117.981445312 829.993164062 124.981445312 835.993164062 124.981445312 840.993164062 c 0
 124.981445312 845.993164062 121.981445312 849.993164062 112.981445312 849.993164062 c 0
 106.071289062 849.993164062 100.590820312 847.603515625 97.2109375 846.133789062 c 0
 95.69140625 845.473632812 94.6015625 844.993164062 93.9814453125 844.993164062 c 0
 89.9814453125 844.993164062 83.9814453125 854.993164062 83.9814453125 857.993164062 c 0
 83.9814453125 867.993164062 101.981445312 871.993164062 114.981445312 871.993164062 c 0
 137.981445312 871.993164062 150.981445312 860.993164062 150.981445312 841.993164062 c 0
 150.981445312 827.3828125 141.750976562 819.602539062 133.291015625 812.462890625 c 0
 127.271484375 807.392578125 121.641601562 802.642578125 119.981445312 795.9921875 c 0
 118.981445312 791.9921875 116.981445312 791.9921875 111.981445312 791.9921875 c 2
 107.981445312 791.9921875 l 2xeee1
111.981445312 780.993164062 m 2
 118.981445312 780.993164062 121.981445312 778.993164062 121.981445312 774.993164062 c 2
 121.981445312 758.993164062 l 2
 121.981445312 755.993164062 118.981445312 753.993164062 111.981445312 753.993164062 c 2
 105.981445312 753.993164062 l 2
 99.9814453125 753.993164062 95.9814453125 755.993164062 95.9814453125 758.993164062 c 2xf761
 95.9814453125 774.993164062 l 2
 95.9814453125 778.993164062 99.9814453125 780.993164062 105.981445312 780.993164062 c 2
 111.981445312 780.993164062 l 2
>>>>>>> FETCH_HEAD
EndSplineSet
EndChar

StartChar: H.ss01
Encoding: 65545 -1 71
Width: 310
Flags: MW
<<<<<<< HEAD
HStem: 475 57.99
VStem: 6.00999 46 58 85 103.01 98 120.01 62.99 162 85.5 261.01 43.99
LayerCount: 2
Back
Fore
SplineSet
33 475 m 2xa4
 16 475 6.009765625 493.989257812 6.009765625 516.979492188 c 0
 6.009765625 530.989257812 13.75 578.059570312 23.25 635.889648438 c 0
 26.7001953125 656.859375 30.3798828125 679.249023438 34.009765625 701.989257812 c 0
 37.009765625 722.989257812 47.009765625 739.989257812 76.009765625 743.989257812 c 0
 104.009765625 748.989257812 120.009765625 767.989257812 120.009765625 790.989257812 c 2
 120.009765625 796.989257812 l 2
 117.009765625 798.989257812 107.009765625 805.989257812 106.009765625 826.989257812 c 0xc8
 105.6796875 833.989257812 105.229492188 842.099609375 104.7890625 850.209960938 c 0
 103.899414062 866.4296875 103.009765625 882.649414062 103.009765625 889.989257812 c 0
 103.009765625 913.989257812 126.009765625 929.989257812 152.009765625 929.989257812 c 0
 178.009765625 929.989257812 201.009765625 913.989257812 201.009765625 889.989257812 c 0
 201.009765625 882.649414062 200.120117188 866.4296875 199.23046875 850.209960938 c 0
 198.780273438 842.099609375 198.33984375 833.989257812 198 826.989257812 c 0x90
 197 805.989257812 187 798.989257812 183 796.989257812 c 1
 183 790.989257812 l 2
 183 767.989257812 200 748.989257812 229 743.989257812 c 0
 258 739.989257812 271 722.989257812 276 701.989257812 c 0
 278.309570312 692.869140625 280.44921875 684.409179688 282.4296875 676.559570312 c 0
 299.290039062 609.959960938 305 587.419921875 305 576 c 0
 305 568 304 560 299 551 c 0x8a
=======
HStem: 0 21G<92 115.5 190 214> 475 58<24.5 190 33 190>
VStem: 6 46<505.495 552> 58 85 103 98<884.5 902> 120 63<791 797 779.5 797> 162 85.5 261 44<572 614>
LayerCount: 2
Back
Fore
SplineSet
33 475 m 2xd2
 16 475 6 494 6 516.990234375 c 0
 6 536.080078125 20.3603515625 616.549804688 34 702 c 0
 37 723 47 740 76 744 c 0
 104 749 120 768 120 791 c 2
 120 797 l 2xe4
 117 799 107 806 106 827 c 0
 105 848 103 879 103 890 c 0
 103 914 126 930 152 930 c 0
 178 930 201 914 201 890 c 0
 201 879 199 848 198 827 c 0xc8
 197 806 187 799 183 797 c 1
 183 791 l 2
 183 768 200 749 229 744 c 0
 258 740 271 723 276 702 c 0
 297.870117188 615.4296875 305 588.76953125 305 576 c 0
 305 568 304 560 299 551 c 0xc5
>>>>>>> FETCH_HEAD
 289 532 268 513 257 513 c 1
 238 22 l 2
 237 7 226 0 202 0 c 0
 178 0 162 8 162 22 c 2
<<<<<<< HEAD
 162 389 l 1x84
=======
 162 389 l 1xc2
>>>>>>> FETCH_HEAD
 143 389 l 1
 143 22 l 2
 143 8 127 0 104 0 c 0
 80 0 69 7 68 22 c 2
 48 475 l 1
<<<<<<< HEAD
 33 475 l 2xa4
204.009765625 612.989257812 m 2xc6
 199.009765625 606.989257812 198.009765625 602.989257812 198.009765625 600.989257812 c 0
 198.009765625 597.989257812 199.009765625 593.989257812 201.009765625 590.989257812 c 2
 111.009765625 590.989257812 l 2
 68.009765625 590.989257812 52.009765625 570.989257812 52.009765625 532.989257812 c 1
 190.009765625 532.989257812 l 2
 195.009765625 532.989257812 201.009765625 534.989257812 206.009765625 539.989257812 c 2
 256.009765625 590.989257812 l 2
 260.009765625 594.989257812 261.009765625 600.989257812 261.009765625 606.989257812 c 0
 261.009765625 620.989257812 248.009765625 632.989257812 234.009765625 632.989257812 c 0
 227.009765625 632.989257812 220.009765625 629.989257812 215.009765625 624.989257812 c 2
 204.009765625 612.989257812 l 2xc6
=======
 33 475 l 2xd2
215 625 m 2xe3
 204 613 l 2
 199 607 198 603 198 601 c 0
 198 598 199 594 201 591 c 2
 111 591 l 2
 68 591 52 571 52 533 c 1
 190 533 l 2
 195 533 201 535 206 540 c 2
 256 591 l 2
 260 595 261 601 261 607 c 0
 261 621 248 633 234 633 c 0
 227 633 220 630 215 625 c 2xe3
>>>>>>> FETCH_HEAD
EndSplineSet
EndChar

StartChar: I.ss01
Encoding: 65546 -1 72
Width: 880
Flags: MW
<<<<<<< HEAD
HStem: 0 78
VStem: 597.99 52 728.99 52
LayerCount: 2
Back
Fore
SplineSet
33 106 m 2
 8 65 3.9873046875 56.990234375 3.9873046875 50.990234375 c 0
 3.9873046875 41.990234375 9.9873046875 33.990234375 21.9873046875 24.990234375 c 0
 35.9873046875 14.990234375 43.9873046875 11.990234375 51.9873046875 11.990234375 c 0
 58.9873046875 11.990234375 65.9873046875 14.990234375 69.9873046875 20.990234375 c 2
 151.987304688 147.990234375 l 2
 168.987304688 175.990234375 179.987304688 194.990234375 188.987304688 217.990234375 c 2
 238.987304688 356.990234375 l 1
 316.987304688 230.990234375 l 1
 348.987304688 21.990234375 l 2
 353.987304688 3.990234375 367.987304688 -0.009765625 392.987304688 -0.009765625 c 0
 413.987304688 -0.009765625 424.987304688 5.990234375 424.987304688 16.990234375 c 0
 424.987304688 18.990234375 424.987304688 19.990234375 423.987304688 30.990234375 c 2
 400.987304688 235.990234375 l 2
 397.987304688 258.990234375 396.987304688 263.990234375 390.987304688 277.990234375 c 2
 302.987304688 457.990234375 l 1
 309.987304688 533.990234375 l 1
 335.987304688 509.990234375 l 2
 343.887695312 502.700195312 351.7578125 499.990234375 364.98828125 499.990234375 c 2
 449.98828125 499.990234375 l 1
 505.98828125 429.990234375 l 1
 551.98828125 147.990234375 l 2
 560.208007812 97.6201171875 589.98828125 77.990234375 641.98828125 77.990234375 c 2
 788.98828125 77.990234375 l 1
 802.98828125 63.990234375 l 2
 811.98828125 54.990234375 820.98828125 52.990234375 843.98828125 52.990234375 c 0
 868.98828125 52.990234375 875.98828125 56.990234375 875.98828125 62.990234375 c 0
 875.98828125 65.990234375 873.80859375 69.7998046875 870.98828125 72.990234375 c 2
 770.98828125 185.990234375 l 2
 758.98828125 198.990234375 744.98828125 203.990234375 725.98828125 203.990234375 c 1
 647.98828125 304.990234375 l 1
 645.98828125 318.990234375 l 1
 652.98828125 321.990234375 660.98828125 327.990234375 661.98828125 344.990234375 c 0
 662.328125 349.990234375 662.768554688 355.990234375 663.21875 361.990234375 c 0
 664.108398438 373.990234375 664.998046875 385.990234375 664.998046875 389.990234375 c 0
 664.998046875 413.990234375 648.998046875 430.990234375 617.998046875 430.990234375 c 0
 590.998046875 430.990234375 578.998046875 418.990234375 572.998046875 400.990234375 c 1
 480.998046875 518.990234375 l 2
 477.517578125 523.450195312 473.998046875 527.990234375 467.998046875 530.990234375 c 1
 467.998046875 547.990234375 454.998046875 560.990234375 438.998046875 560.990234375 c 2
 366.998046875 560.990234375 l 1
 305.998046875 636.990234375 l 1
 305.998046875 670.530273438 296.788085938 699.459960938 283.828125 724.580078125 c 0
 276.658203125 738.490234375 269.98828125 751.41015625 269.98828125 766.990234375 c 2
 268.98828125 793.990234375 l 1
 280.98828125 796.990234375 287.98828125 804.990234375 287.98828125 826.990234375 c 0
 288.098632812 834.009765625 288.249023438 842.029296875 288.399414062 850.0390625 c 0
 288.69921875 866.029296875 288.989257812 881.999023438 288.989257812 889.989257812 c 0
 288.989257812 913.989257812 265.989257812 929.989257812 239.989257812 929.989257812 c 0
 213.989257812 929.989257812 190.989257812 913.989257812 190.989257812 889.989257812 c 0
 190.989257812 881.989257812 191.87890625 865.989257812 192.768554688 849.989257812 c 0
 193.21875 841.989257812 193.659179688 833.989257812 193.999023438 826.989257812 c 0
 194.999023438 805.989257812 204.999023438 798.989257812 207.999023438 796.989257812 c 2
 206.999023438 766.989257812 l 2
 206.69921875 758.069335938 203.149414062 748.569335938 198.969726562 737.369140625 c 0
 197.889648438 734.479492188 196.759765625 731.469726562 195.639648438 728.330078125 c 0
 186.919921875 703.900390625 175.379882812 671.580078125 168 623 c 2
 105 225 l 1
 33 106 l 2
623.987304688 50.990234375 m 0
 637.987304688 50.990234375 649.987304688 39.990234375 649.987304688 24.990234375 c 0
 649.987304688 10.990234375 637.987304688 -0.009765625 623.987304688 -0.009765625 c 0
 609.987304688 -0.009765625 597.987304688 10.990234375 597.987304688 24.990234375 c 0
 597.987304688 39.990234375 609.987304688 50.990234375 623.987304688 50.990234375 c 0
754.987304688 50.990234375 m 0
 769.987304688 50.990234375 780.987304688 39.990234375 780.987304688 24.990234375 c 0
 780.987304688 10.990234375 769.987304688 -0.009765625 754.987304688 -0.009765625 c 0
 740.987304688 -0.009765625 728.987304688 10.990234375 728.987304688 24.990234375 c 0
 728.987304688 39.990234375 740.987304688 50.990234375 754.987304688 50.990234375 c 0
=======
HStem: 0 51<617.01 631.01 748.01 762.51> 0 78<617.01 789.01 748.01 762.51>
VStem: 598.01 52 729.01 52
LayerCount: 2
Back
Fore
SplineSet
105 225 m 1x70
 33.009765625 106 l 2
 8.009765625 65 4.009765625 57 4.009765625 51 c 0
 4.009765625 42 10.009765625 34 22.009765625 25 c 0
 36.009765625 15 44.009765625 12 52.009765625 12 c 0
 59.009765625 12 66.009765625 15 70.009765625 21 c 2
 152.009765625 148 l 2
 169.009765625 176 180.009765625 195 189.009765625 218 c 2
 239.009765625 357 l 1
 317.009765625 231 l 1
 349.009765625 22 l 2
 354.009765625 4 368.009765625 0 393.009765625 0 c 0
 414.009765625 0 425.009765625 6 425.009765625 17 c 0
 425.009765625 19 425.009765625 20 424.009765625 31 c 2
 401.009765625 236 l 2
 398.009765625 259 397.009765625 264 391.009765625 278 c 2
 303.009765625 458 l 1
 310.009765625 534 l 1
 336.009765625 510 l 2
 343.899414062 502.709960938 351.76953125 500 365.009765625 500 c 2
 450.009765625 500 l 1
 506.009765625 430 l 1
 552.009765625 148 l 2
 560.219726562 97.6298828125 590.009765625 78 642.009765625 78 c 2
 789.009765625 78 l 1x70
 803.009765625 64 l 2
 812.009765625 55 821.009765625 53 844.009765625 53 c 0
 869.009765625 53 876.009765625 57 876.009765625 63 c 0
 876.009765625 66 873.819335938 69.8095703125 871.009765625 73 c 2xb0
 771.009765625 186 l 2
 759.009765625 199 745.009765625 204 726.009765625 204 c 1
 648.009765625 305 l 1
 646.009765625 319 l 1
 653.009765625 322 661.009765625 328 662.009765625 345 c 0
 663.009765625 360 665.009765625 384 665.009765625 390 c 0
 665.009765625 414 649.009765625 431 618.009765625 431 c 0
 591.009765625 431 579.009765625 419 573.009765625 401 c 1
 481.009765625 519 l 2
 477.529296875 523.459960938 474.009765625 528 468.009765625 531 c 1
 468.009765625 548 455.009765625 561 439.009765625 561 c 2
 367.009765625 561 l 1
 306.009765625 637 l 1
 306.009765625 670.540039062 296.799804688 699.469726562 283.83984375 724.58984375 c 0
 276.669921875 738.5 270 751.419921875 270 767 c 2
 269 794 l 1
 281 797 288 805 288 827 c 0
 288.33984375 848 289 878 289 890 c 0
 289 914 266 930 240 930 c 0
 214 930 191 914 191 890 c 0
 191 878 193 848 194 827 c 0
 195 806 205 799 208 797 c 2
 207 767 l 2
 206.629882812 755.76953125 201.099609375 743.629882812 195.639648438 728.330078125 c 0
 186.919921875 703.900390625 175.379882812 671.580078125 168 623 c 2
 105 225 l 1x70
624.009765625 51 m 0xb0
 638.009765625 51 650.009765625 40 650.009765625 25 c 0
 650.009765625 11 638.009765625 0 624.009765625 0 c 0x70
 610.009765625 0 598.009765625 11 598.009765625 25 c 0
 598.009765625 40 610.009765625 51 624.009765625 51 c 0xb0
755.009765625 51 m 0
 770.009765625 51 781.009765625 40 781.009765625 25 c 0
 781.009765625 11 770.009765625 0 755.009765625 0 c 0x70
 741.009765625 0 729.009765625 11 729.009765625 25 c 0
 729.009765625 40 741.009765625 51 755.009765625 51 c 0
>>>>>>> FETCH_HEAD
EndSplineSet
EndChar

StartChar: J.ss01
Encoding: 65547 -1 73
Width: 620
Flags: MW
<<<<<<< HEAD
HStem: 378 53
VStem: 83.49 67.5 130.49 57 167.99 68.5 362.49 83.5 406.95 97.07 421.98 67.01 464.99 83
LayerCount: 2
Back
Fore
SplineSet
314 672 m 2x98
 314 697 323.979492188 718.991210938 353.979492188 729.991210938 c 0
 381.979492188 739.991210938 421.979492188 761.991210938 421.979492188 781.991210938 c 2
 421.979492188 796.991210938 l 1x92
 417.979492188 798.991210938 410.909179688 806.05078125 408.979492188 826.991210938 c 0
 407.979492188 837.8515625 406.94921875 884.391601562 406.94921875 891.491210938 c 0
 406.94921875 914.661132812 429.529296875 929.991210938 454.989257812 929.991210938 c 0
 481.418945312 929.991210938 504.018554688 914.661132812 504.018554688 891.500976562 c 0
 504.018554688 883.911132812 502.018554688 844.541015625 500.98828125 827.000976562 c 0x94
 499.7578125 806.03125 492.98828125 799.000976562 488.98828125 797.000976562 c 1
 488.98828125 782.000976562 l 2
 488.98828125 762.000976562 528.98828125 740.000976562 556.98828125 730.000976562 c 0x92
 586.98828125 719.000976562 595.98828125 697.000976562 595.98828125 672.000976562 c 2
 589.98828125 431.000976562 l 2
 588.98828125 412.000976562 580.98828125 393.000976562 555.98828125 393.000976562 c 1
 539.98828125 22.0009765625 l 2
 539.348632812 7.0205078125 527.98828125 0.0009765625 503.98828125 0.0009765625 c 0
 480.98828125 0.0009765625 464.98828125 8.0009765625 464.98828125 22.0009765625 c 2
 464.98828125 389.000976562 l 1x99
 445.98828125 389.000976562 l 1
 445.98828125 22.0009765625 l 2
 445.98828125 8.0009765625 429.98828125 0.0009765625 405.98828125 0.0009765625 c 0
 381.98828125 0.0009765625 370.98828125 7.0009765625 369.98828125 22.0009765625 c 2
 354.98828125 378.000976562 l 1
 310.98828125 378.000976562 l 2
 286.73828125 378.000976562 272.30859375 383.53125 263.98828125 396.000976562 c 2
 240.98828125 427.000976562 l 1
 231.98828125 22.0009765625 l 2
 231.638671875 5.970703125 225.98828125 0.0009765625 200.98828125 0.0009765625 c 0
 177.98828125 0.0009765625 167.98828125 8.0009765625 167.98828125 22.0009765625 c 2
 167.98828125 263.000976562 l 1x98
 150.98828125 263.000976562 l 1
 150.98828125 22.0009765625 l 2
 150.98828125 8.0009765625 140.98828125 0.0009765625 116.98828125 0.0009765625 c 0
 92.98828125 0.0009765625 88.98828125 7.0009765625 87.98828125 22.0009765625 c 2
 78.98828125 286.000976562 l 1
 64.1787109375 286.000976562 53.7587890625 293.7109375 53.7587890625 304.37109375 c 0
 53.7587890625 308.9609375 59.44921875 371.19140625 74.9892578125 516.000976562 c 0xd8
 77.4697265625 539.060546875 95.9892578125 558.000976562 129.989257812 558.000976562 c 1
 130.989257812 581.000976562 l 1
 124.989257812 584.000976562 115.719726562 589.981445312 114.989257812 607.000976562 c 0
 113.088867188 651.37109375 112.928710938 660.30078125 112.928710938 662.23046875 c 0
 112.928710938 679.05078125 124.5390625 700.000976562 158.989257812 700.000976562 c 0
 192.94921875 700.000976562 205.048828125 680.020507812 205.048828125 662.950195312 c 0
 205.048828125 660.83984375 204.838867188 655.41015625 203.029296875 607.740234375 c 0
 203.01953125 607.5 203.009765625 607.25 203 607 c 0
 202 590 194 584 187 581 c 1
 188 558 l 1
 217 558 229 543 247 517 c 2xa8
 307 431 l 1
 320 431 l 1
 314 672 l 2x98
=======
HStem: -0.00999451 21G 377.99 53 679.99 20G
VStem: 83.5 67.5 130.5 57 168 68.5 362.5 83.5 406.96 97.07 421.99 67.01 465 83
LayerCount: 2
Back
Fore
SplineSet
320 431 m 1xe6
 313.989257812 671.98046875 l 2xe6
 313.989257812 696.98046875 323.989257812 718.98046875 353.989257812 729.98046875 c 0
 381.989257812 739.98046875 421.989257812 761.98046875 421.989257812 781.98046875 c 2
 421.989257812 796.98046875 l 1xe480
 417.989257812 798.98046875 410.918945312 806.040039062 408.989257812 826.98046875 c 0
 407.989257812 837.840820312 406.958984375 884.380859375 406.958984375 891.48046875 c 0
 406.958984375 914.650390625 429.5390625 929.98046875 454.989257812 929.98046875 c 0
 481.4296875 929.98046875 504.029296875 914.650390625 504.029296875 891.490234375 c 0
 504.029296875 883.900390625 502.029296875 844.530273438 500.999023438 826.990234375 c 0xe5
 499.758789062 806.020507812 492.999023438 798.990234375 488.999023438 796.990234375 c 1
 488.999023438 781.990234375 l 2
 488.999023438 761.990234375 528.999023438 739.990234375 556.999023438 729.990234375 c 0xe480
 586.999023438 718.990234375 595.999023438 696.990234375 595.999023438 671.990234375 c 2
 589.999023438 430.990234375 l 2
 588.999023438 411.990234375 580.999023438 392.990234375 555.999023438 392.990234375 c 1
 539.999023438 21.990234375 l 2
 539.348632812 7.009765625 527.999023438 -0.009765625 503.999023438 -0.009765625 c 0
 480.999023438 -0.009765625 464.999023438 7.990234375 464.999023438 21.990234375 c 2
 464.999023438 388.990234375 l 1xe640
 445.999023438 388.990234375 l 1
 445.999023438 21.990234375 l 2
 445.999023438 7.990234375 429.999023438 -0.009765625 405.999023438 -0.009765625 c 0
 381.999023438 -0.009765625 370.999023438 6.990234375 369.999023438 21.990234375 c 2
 354.999023438 377.990234375 l 1
 310.999023438 377.990234375 l 2
 286.749023438 377.990234375 272.30859375 383.520507812 263.999023438 395.990234375 c 2
 240.999023438 426.990234375 l 1
 231.999023438 21.990234375 l 2
 231.638671875 5.9599609375 225.999023438 -0.009765625 200.999023438 -0.009765625 c 0
 177.999023438 -0.009765625 167.999023438 7.990234375 167.999023438 21.990234375 c 2
 167.999023438 262.990234375 l 1xe6
 150.999023438 262.990234375 l 1
 150.999023438 21.990234375 l 2
 150.999023438 7.990234375 140.999023438 -0.009765625 116.999023438 -0.009765625 c 0
 92.9990234375 -0.009765625 88.9990234375 6.990234375 87.9990234375 21.990234375 c 2
 78.9990234375 285.990234375 l 1
 64.189453125 285.990234375 53.759765625 293.700195312 53.759765625 304.360351562 c 0
 53.759765625 308.950195312 59.4599609375 371.180664062 75 515.990234375 c 0xf6
 77.4697265625 539.049804688 96 557.990234375 130 557.990234375 c 1
 131 580.990234375 l 1
 125 583.990234375 115.73046875 589.970703125 115 606.990234375 c 0
 113.08984375 651.360351562 112.939453125 660.290039062 112.939453125 662.219726562 c 0
 112.939453125 679.040039062 124.549804688 699.990234375 159 699.990234375 c 0
 192.950195312 699.990234375 205.049804688 680.009765625 205.049804688 662.950195312 c 0
 205.049804688 660.830078125 204.83984375 655.360351562 203 607 c 0
 202 590 194 584 187 581 c 1
 188 558 l 1
 217 558 229 543 247 517 c 2xea
 307 431 l 1
 320 431 l 1xe6
>>>>>>> FETCH_HEAD
EndSplineSet
EndChar

StartChar: K.ss01
Encoding: 65548 -1 74
Width: 398
Flags: MW
<<<<<<< HEAD
HStem: 0 863<308.5 337.5>
=======
HStem: 0 21G<308.5 319>
>>>>>>> FETCH_HEAD
VStem: 95 80 297 33<14 411>
LayerCount: 2
Back
Fore
SplineSet
<<<<<<< HEAD
212 496 m 1
=======
297 420 m 1
 212 496.000976562 l 1
>>>>>>> FETCH_HEAD
 176 429.000976562 l 1
 175 22.0009765625 l 2
 175 8.0009765625 160 0.0009765625 136 0.0009765625 c 0
 112 0.0009765625 101 7.0009765625 100 22.0009765625 c 2
 90 239.000976562 l 1
 55 362.000976562 l 2
 48 385.000976562 40 422.000976562 40 446.000976562 c 0
 40 466.000976562 47 490.000976562 53 500.000976562 c 2
 160 678.000976562 l 2
 173 700.000976562 188 711.000976562 223 728.000976562 c 0
 234.25 733.62109375 240.33984375 739.220703125 248.169921875 748.990234375 c 2
 257 760 l 2
 256 762 255 764 255 767 c 0
 255 772 257 778 263 788 c 2
 301 848 l 2
 308 858 320 863 332 863 c 0
 343 863 353 861 365 852 c 0
 380 841 388 826 388 810 c 0
 388 802 386 796 382 790 c 2
 335 728 l 2
 330 722 324 720 319 720 c 0
 314 720 306 724 304 725 c 2
 301 720 l 2
 295 711 291 693 290 670 c 0
 289 649 279 621 269 601 c 1
 269 537 l 1
 344 465 l 2
 353 454 354 449 354 442 c 0
 354 431 345 415 330 411 c 1
 330 14 l 2
 330 7 324 0 314 0 c 0
 303 0 297 7 297 14 c 2
 297 420 l 1
<<<<<<< HEAD
 212 496 l 1
=======
>>>>>>> FETCH_HEAD
EndSplineSet
EndChar

StartChar: L.ss01
Encoding: 65549 -1 75
Width: 530
Flags: MW
<<<<<<< HEAD
HStem: 219 140<255 300 300 313 255 332> 700 29<440.5 488 440.5 496.5> 801 26<460.5 500 478 500 478 500> 900 30<440.5 488>
=======
HStem: 0 21G<424 450.5> 219 101<113 349> 508 20G<62 73> 700 29<440.5 488 440.5 496.5> 734 20G<118 142.5> 801 26<460.5 500 478 500 478 500> 900 30<440.5 488>
>>>>>>> FETCH_HEAD
VStem: 82 99<649 713 639.5 725> 98 62<600 609 609 618 598 618> 350 29<791 838.5 791 847> 451 27<827 866 827 866 858 866 827 869.5> 550 30<791 838.5>
LayerCount: 2
Back
Fore
SplineSet
<<<<<<< HEAD
464 700 m 0xfb80
 400 700 350 750 350 815 c 0
 350 879 400 930 464 930 c 0
 529 930 580 879 580 815 c 0
 580 750 529 700 464 700 c 0xfb80
=======
464 700 m 0xf6f0
 400 700 350 750 350 815 c 0
 350 879 400 930 464 930 c 0
 529 930 580 879 580 815 c 0
 580 750 529 700 464 700 c 0xf6f0
>>>>>>> FETCH_HEAD
464 729 m 0
 512 729 550 767 550 815 c 0
 550 862 512 900 464 900 c 0
 417 900 379 862 379 815 c 0
 379 767 417 729 464 729 c 0
514 814 m 0
 514 805 507 801 500 801 c 2
 464 801 l 2
 457 801 451 806 451 814 c 0
 451 827 451 850 451 866 c 0
 451 873 455 880 464 880 c 0
 473 880 478 873 478 866 c 2
 478 827 l 1
 500 827 l 2
 507 827 514 823 514 814 c 0
<<<<<<< HEAD
469.349609375 25.5 m 2
=======
395 290 m 2
 469.349609375 25.509765625 l 2
>>>>>>> FETCH_HEAD
 471.389648438 18.2099609375 473 12.4599609375 473 11 c 0
 473 3 464 0 437 0 c 0
 411 0 401 3 397 14 c 2
 332 219 l 1
 113 219 l 2
 86 219 74 239 71 261 c 2
 47 447 l 2
 44 468 40 501 40 511 c 0
 40 522 51 528 73 528 c 1
 84 548 98 581 98 600 c 2
 98 618 l 1
 94 620 82 628 82 649 c 2
 82 713 l 2
 82 737 106 754 130 754 c 0
 155 754 181 737 181 713 c 2
<<<<<<< HEAD
 181 648 l 2xfb80
=======
 181 648 l 2xef70
>>>>>>> FETCH_HEAD
 181 631 165 619 160 618 c 1
 160 609 l 2
 160 587 168 575 182 562 c 0
 197 550 213 535 222 498 c 2
<<<<<<< HEAD
 255 359 l 1xf780
=======
 255 359 l 1
>>>>>>> FETCH_HEAD
 300 359 l 2
 326 359 341 343 341 320 c 1
 349 320 l 2
 372 320 389 313 395 290 c 2
<<<<<<< HEAD
 469.349609375 25.5 l 2
=======
>>>>>>> FETCH_HEAD
EndSplineSet
EndChar

StartChar: M.ss01
Encoding: 65550 -1 76
Width: 580
Flags: MW
<<<<<<< HEAD
HStem: 388 135<451.99 463.99 463.99 573> 490 66<299.99 414 326 403.99> 542 17<486.49 491.49> 575 18<449.99 454.49 486.49 491.49> 584 32<443 443 460 460> 616 32<443 443 460 460> 629 7 648 31 663 18<368.49 373.49> 679 21
VStem: 120.99 80 370.99 18 410.99 18 434.99 17 443.99 17 488.99 84.01 509.99 17 538.99 18
=======
HStem: 0 21G<149.99 173.99> 388 135<451.99 463.99 463.99 572.99> 490 33 490 66<299.99 414 326 403.99> 542 17<486.49 491.49> 575 18<449.99 454.49 486.49 491.49> 584 32<443 443 460 460> 616 32<443 443 460 460> 629 7 648 31 663 18<368.49 373.49> 679 21 688 12
VStem: 120.99 80 370.99 18 410.99 18 434.99 17 443.99 17 488.99 84 509.99 17 538.99 18
>>>>>>> FETCH_HEAD
LayerCount: 2
Back
Fore
SplineSet
<<<<<<< HEAD
573 388 m 1x8001
 463.990234375 388 l 2
 439.990234375 388 430.990234375 399 421.990234375 429 c 2x8048
=======
573 523 m 1xa096a0
 572.990234375 388 l 1
 463.990234375 388 l 2
 439.990234375 388 430.990234375 399 421.990234375 429 c 2x401120
>>>>>>> FETCH_HEAD
 403.990234375 490 l 1
 304.990234375 490 l 2
 294.990234375 490 281.990234375 493 274.990234375 500 c 2
 242.990234375 534 l 1
<<<<<<< HEAD
 184.990234375 429 l 1
=======
 184.990234375 429 l 1x2004
>>>>>>> FETCH_HEAD
 200.990234375 245 l 1
 200.990234375 22 l 2
 200.990234375 8 185.990234375 0 161.990234375 0 c 0
 137.990234375 0 126.990234375 7 125.990234375 22 c 2
 115.990234375 239 l 1
 69.990234375 362 l 2
 60.990234375 385 43.990234375 434 43.990234375 465 c 0
 43.990234375 478 46.990234375 490 52.990234375 500 c 2
 165.990234375 678 l 2
 183.990234375 705 196.990234375 715 231.990234375 732 c 0
 243.990234375 738 253.280273438 742.940429688 261.990234375 756 c 2
 267.990234375 765 l 2
 267.120117188 766.75 266.049804688 769.26953125 266.049804688 772.889648438 c 0
 266.049804688 777.540039062 267.809570312 784 274 793 c 2
 313 853 l 2
 320 863 332 868 344 868 c 0
 355 868 365 866 377 857 c 0
 392 846 400 831 400 815 c 0
 400 807 398 801 394 795 c 2
 346 732 l 2
 341 726 335 724 330 724 c 0
 325 724 317 728 315 729 c 2
 312 724 l 2
 306 715 303 698 302 675 c 0
 301 654 293 629 283 609 c 1
 326 556 l 1
<<<<<<< HEAD
 414 556 l 2
 431 556 446 540 446 523 c 1
 573 523 l 1x4021
 573 388 l 1x8001
=======
 414 556 l 2x900480
 431 556 446 540 446 523 c 1
 573 523 l 1xa096a0
>>>>>>> FETCH_HEAD
428.990234375 700 m 0
 428.990234375 695 424.990234375 691 419.990234375 691 c 0
 414.990234375 691 410.990234375 695 410.990234375 700 c 0
 410.990234375 705 414.990234375 709 419.990234375 709 c 0
 424.990234375 709 428.990234375 705 428.990234375 700 c 0
<<<<<<< HEAD
388.990234375 688 m 0x0050
 383.990234375 688 379.990234375 692 379.990234375 696 c 0
 379.990234375 701 383.990234375 705 388.990234375 705 c 0
 393.990234375 705 397.990234375 701 397.990234375 696 c 0
 397.990234375 692 393.990234375 688 388.990234375 688 c 0x0050
451.990234375 679 m 0x0104
 451.990234375 674 447.990234375 670 443.990234375 670 c 0
 438.990234375 670 434.990234375 674 434.990234375 679 c 0
 434.990234375 684 438.990234375 688 443.990234375 688 c 0
 447.990234375 688 451.990234375 684 451.990234375 679 c 0x0104
370.990234375 663 m 0x0090
 365.990234375 663 361.990234375 667 361.990234375 672 c 0
 361.990234375 677 365.990234375 681 370.990234375 681 c 0
 375.990234375 681 379.990234375 677 379.990234375 672 c 0
 379.990234375 667 375.990234375 663 370.990234375 663 c 0x0090
460.990234375 648 m 0x0402
 460.990234375 644 456.990234375 640 451.990234375 640 c 0
 447.990234375 640 443.990234375 644 443.990234375 648 c 0
 443.990234375 654 447.990234375 658 451.990234375 658 c 0
 456.990234375 658 460.990234375 654 460.990234375 648 c 0x0402
526.990234375 636 m 0x020080
 526.990234375 631 522.990234375 627 518.990234375 627 c 0
 513.990234375 627 509.990234375 631 509.990234375 636 c 0
 509.990234375 641 513.990234375 645 518.990234375 645 c 0
 522.990234375 645 526.990234375 641 526.990234375 636 c 0x020080
556.990234375 629 m 0x020040
 556.990234375 624 552.990234375 620 547.990234375 620 c 0
 542.990234375 620 538.990234375 624 538.990234375 629 c 0
 538.990234375 634 542.990234375 638 547.990234375 638 c 0
 552.990234375 638 556.990234375 634 556.990234375 629 c 0x020040
460.990234375 616 m 0x0802
 460.990234375 611 456.990234375 607 451.990234375 607 c 0
 447.990234375 607 443.990234375 611 443.990234375 616 c 0
 443.990234375 621 447.990234375 625 451.990234375 625 c 0
 456.990234375 625 460.990234375 621 460.990234375 616 c 0x0802
506.990234375 613 m 0x0801
 506.990234375 608 502.990234375 604 497.990234375 604 c 0
 492.990234375 604 488.990234375 608 488.990234375 613 c 0
 488.990234375 618 492.990234375 622 497.990234375 622 c 0
 502.990234375 622 506.990234375 618 506.990234375 613 c 0x0801
460.990234375 584 m 0x0802
 460.990234375 579 456.990234375 575 451.990234375 575 c 0
 447.990234375 575 443.990234375 579 443.990234375 584 c 0
 443.990234375 589 447.990234375 593 451.990234375 593 c 0
 456.990234375 593 460.990234375 589 460.990234375 584 c 0x0802
488.990234375 593 m 0x1001
 493.990234375 593 497.990234375 589 497.990234375 584 c 0
 497.990234375 579 493.990234375 575 488.990234375 575 c 0
 483.990234375 575 479.990234375 579 479.990234375 584 c 0
 479.990234375 589 483.990234375 593 488.990234375 593 c 0x1001
488.990234375 542 m 0x2001
 483.990234375 542 479.990234375 546 479.990234375 551 c 0
 479.990234375 555 483.990234375 559 488.990234375 559 c 0
 493.990234375 559 497.990234375 555 497.990234375 551 c 0
 497.990234375 546 493.990234375 542 488.990234375 542 c 0x2001
=======
388.990234375 688 m 0x000a
 383.990234375 688 379.990234375 692 379.990234375 696 c 0
 379.990234375 701 383.990234375 705 388.990234375 705 c 0
 393.990234375 705 397.990234375 701 397.990234375 696 c 0
 397.990234375 692 393.990234375 688 388.990234375 688 c 0x000a
451.990234375 679 m 0x004080
 451.990234375 674 447.990234375 670 443.990234375 670 c 0
 438.990234375 670 434.990234375 674 434.990234375 679 c 0
 434.990234375 684 438.990234375 688 443.990234375 688 c 0
 447.990234375 688 451.990234375 684 451.990234375 679 c 0x004080
370.990234375 663 m 0x0022
 365.990234375 663 361.990234375 667 361.990234375 672 c 0
 361.990234375 677 365.990234375 681 370.990234375 681 c 0
 375.990234375 681 379.990234375 677 379.990234375 672 c 0
 379.990234375 667 375.990234375 663 370.990234375 663 c 0x0022
460.990234375 648 m 0x010040
 460.990234375 644 456.990234375 640 451.990234375 640 c 0
 447.990234375 640 443.990234375 644 443.990234375 648 c 0
 443.990234375 654 447.990234375 658 451.990234375 658 c 0
 456.990234375 658 460.990234375 654 460.990234375 648 c 0x010040
526.990234375 636 m 0x008010
 526.990234375 631 522.990234375 627 518.990234375 627 c 0
 513.990234375 627 509.990234375 631 509.990234375 636 c 0
 509.990234375 641 513.990234375 645 518.990234375 645 c 0
 522.990234375 645 526.990234375 641 526.990234375 636 c 0x008010
556.990234375 629 m 0x008008
 556.990234375 624 552.990234375 620 547.990234375 620 c 0
 542.990234375 620 538.990234375 624 538.990234375 629 c 0
 538.990234375 634 542.990234375 638 547.990234375 638 c 0
 552.990234375 638 556.990234375 634 556.990234375 629 c 0x008008
460.990234375 616 m 0x020040
 460.990234375 611 456.990234375 607 451.990234375 607 c 0
 447.990234375 607 443.990234375 611 443.990234375 616 c 0
 443.990234375 621 447.990234375 625 451.990234375 625 c 0
 456.990234375 625 460.990234375 621 460.990234375 616 c 0x020040
506.990234375 613 m 0x020020
 506.990234375 608 502.990234375 604 497.990234375 604 c 0
 492.990234375 604 488.990234375 608 488.990234375 613 c 0
 488.990234375 618 492.990234375 622 497.990234375 622 c 0
 502.990234375 622 506.990234375 618 506.990234375 613 c 0x020020
460.990234375 584 m 0x020040
 460.990234375 579 456.990234375 575 451.990234375 575 c 0
 447.990234375 575 443.990234375 579 443.990234375 584 c 0
 443.990234375 589 447.990234375 593 451.990234375 593 c 0
 456.990234375 593 460.990234375 589 460.990234375 584 c 0x020040
488.990234375 593 m 0x040020
 493.990234375 593 497.990234375 589 497.990234375 584 c 0
 497.990234375 579 493.990234375 575 488.990234375 575 c 0
 483.990234375 575 479.990234375 579 479.990234375 584 c 0
 479.990234375 589 483.990234375 593 488.990234375 593 c 0x040020
488.990234375 542 m 0x080020
 483.990234375 542 479.990234375 546 479.990234375 551 c 0
 479.990234375 555 483.990234375 559 488.990234375 559 c 0
 493.990234375 559 497.990234375 555 497.990234375 551 c 0
 497.990234375 546 493.990234375 542 488.990234375 542 c 0x080020
>>>>>>> FETCH_HEAD
EndSplineSet
EndChar

